<mxfile host="Electron" agent="Mozilla/5.0 (Windows NT 10.0; Win64; x64) AppleWebKit/537.36 (KHTML, like Gecko) draw.io/26.0.16 Chrome/132.0.6834.196 Electron/34.2.0 Safari/537.36" version="26.0.16">
  <diagram name="Page-1" id="gyTBtXespBzoWfK8ZsUN">
    <mxGraphModel dx="1366" dy="804" grid="1" gridSize="10" guides="1" tooltips="1" connect="1" arrows="1" fold="1" page="1" pageScale="1" pageWidth="1100" pageHeight="850" math="0" shadow="0">
      <root>
        <mxCell id="0" />
        <mxCell id="1" parent="0" />
        <mxCell id="ItOmqRgpExPdJanpy6mj-3" value="" style="shape=image;verticalLabelPosition=bottom;labelBackgroundColor=default;verticalAlign=top;aspect=fixed;imageAspect=0;image=data:image/png,iVBORw0KGgoAAAANSUhEUgAAB4AAAAQQCAYAAAADLEYYAAAAAXNSR0IArs4c6QAAAARnQU1BAACxjwv8YQUAAAAJcEhZcwAADsMAAA7DAcdvqGQAAP+lSURBVHhe7L0JgBXFufb/nDP7DAwzw74z7IsooKigggZRQY24oGYzmkTwJrkJJHfJNTE3ud7PL/nn5pOYaCJJblySGIG4RAURUXBhEdlE2fd9nw2Y/Zx/PXW6Z3oO58ycM3MGBnh+w8vpru6uqq6urq6qt94qX9AAIYQQQgghhBBCCCGEEEIIIYQQ5zx+51cIIYQQQgghhBBCCCGEEEIIIcQ5jhTAQgghhBBCCCGEEEIIIYQQQghxnlBnCugl77yKTW/PgL94q9lraGZoHwLZfTHg+mkY/bnbHDchhBBCCCGEEEIIIYQQQgghhBBnixoFMJW/vsX3Y1TXQnsgVpbuy0Fw7DNSAgshhBBCCCGEEEIIIYQQQgghxFmmRgH8v/9xLb6Wv9g6NkhaHjDub8Dq/4Pg/sX4w47r8ODP3nEOCiGEEEIIIYQQQgghhBBCCCFEYpk5c6azFZkpU6Y4Wy0DxveOO+5Au3btHJe6HD16FC+99FLC412zBrC/ZDsqg8kItMoHxr8EjP0TkJLtHPWQ3h645V2g09UIJqWjqLoNAiV7nINCCCGEEEIIIYQQQgghhBBCCNE8UFkaSVoiVP6+8uqrVtEbDt14jOckmhoL4N99sy/uGFKC7PG/RVLJFqRkdwOOrwPW/tyeaEnvANyyEMjug+Bbt6No5zJUBNPw0met8dBTXDc4nB1YOHMBtjl7QB5GTr4Lw3Od3VgpWI05s7ehT2OujYcdCzFzgRvbPhg/ZRzymyVspstK5MXjZwLisWPhTNTcnoe8kZNxV7MmbDjh+cKk9vgpGJfv7JxxGvE8olCweg5mH78UU2pupgCr58zGiuPObt5ITL5rOKIGwzy4vbe5HhHilLh41ku9cSBnKB7NRc39hZ6RfWY1D8jQZ7zn+SUGvnvbe3vzeIQ0DItXbLSsZ8H7XJl3psuT5sdbdnrLy7p5x/lmOHt1sN8WRD8uhBBCCCGEEEIIIYQQol5isfzlOS1REewqeifddluNJXAkt0RSawGMINL9pfCVH0N1zhAEsvsCuYOco4aMjsCt74SUv+98ESeKjlnlb8NQ6RvSvE8eCaxYuBoFzpGYyR2Ou6Y0VsFBBckcrG4oUCpYbQe9M1Jgch4Kdxj3JoXdFMLinYB45I9zR0GMRx/Pczk7ypra8CkJ1redHUweWritDya7N8M8NXM2jl9ae59Uqu5kvopIAVavLMDIEWczMVpCHLzE+P7GTN37CynwcmvfeyPjsQAzF0Z9SI0iv3cfbNvu8bOg0MTkOLbtrL2xgsIC5OXlOHvnJvnjJqPPtoUJfF4tAPMeF/Z288d45K6ovb/C48ft4JXQsUjKXQ4AmYmZ26keFkIIIYQQQgghhBBCCNEU3H78cGnpUMFLRa9rCdzcyl9SowBO85cjO6kEvuX/hsr9S1F9YCnQ5x5g4INABi1/3wFa97bKXwz+FjI//zqQnAEfAkjxVTq+1E/u8EvR5/g2eHQeLYfC4ziel4ca9UvucAxvKTowcU5QsHObeWd6Oda9BVi9cAVywy2b68tXBTuxLffSs2vJ2RLi0Jx4748Ke6v8rau4oxJzZMHKxCoxc/KQZ5W+IZhXckeOBI4Xui4IZZ9zPeFzMfzSXKxYlVgF+lmlzjubA/OZ8GCea706e5Med5kKyLjezr4QQgghhBBCCCGEEEKICxGvEri5lb8k6ScGbqx641e4uGMJSquSUXZoHZL2vYnUIx8CpYeA618EsmuVv+g8BsULv4PA8fXISS7EZ4czMWzi96yHdSnEjpUHkDFkMDpnhO/Tsm8hdhSux9tvH0Depb2RS4vJ51/DBytXYqWRwrxL0dvqQ0LnFvV2/KlzXmHoWp5mra2ex2sfuNfnYcdsTjVciv3rjVthHi71rcLMhUXoPbgzbJRccn0o/OB9rPf3xuBQZB28YTvbeeX4cHYofMYxd+ccPP/aBzbMHTXXh8W5zn7ddOH0orPfDsXZxrF3oTk3LN7WLVoaREgr/wG89trbYXFyccPvjINvPI/1Ge61Bk5VatOnDEvC7rWOPxGfQXj6e/ytQ3i+IKFrPyx3wqiJR+g5nZ5G9LgRzyPi/YTFp1H3VoCNH+5A3ohLHT824sOVGRhyvZs3wwi7P1Kw8UMUdr7K8TdSGnndosQnYtxD9177ruViZ5R7aTgOpK578z2bg8Y9/D0wfjch79e5v4Pr8YGvN64PXewhA2UHPsBnNi8yDsbPiO8x9yM9hwhundNRbu6hsHPo2TGvZIzoDXywHT77jA5i/Qdl6Hy1k18auEfvsyyoeRY8Nhtv23RChHhFS+dQ+kR+jiSevEaKsGO9uZfwMjYWPH7u8Ptx4LUPnbQOT/dGPgf3luoQ63nE+5wKsHPVSqyw9396XqsL35kC5NakkRBCCCGEEEIIIYQQQpw9OFUy+zUbkksvvdS54uxTX3zcYy0tzuGcOnUKGzdtstsDBw5EZmam3W4OahTAy994Er3aJaMKKfZAdTAJ6VUH4bv+BaBNvzrK36K3piIpsx0yCpfjZHUGNhxOx/Cbp9vr6lJXUVSweiE+KOuDqy6lYoDHPkNB31vwlVsGwyqpnn8fGeOnYPL1l+LS3n6seu1DlNsOfq8/PO8zdJ38FdxytTkvz+zvzMXgzmXgWqvb+kw2/l1tH3Dv3Fz0vjQPhSsL0ZfnD841UdqBlQcyMOQ05QTP7Y3yD2dbRUCtEsAbdijOnxZ2xS1fuQVX5xXi7QVv42BX3oMJ0+x/8L6jzA6799P9qT2W29vch4nvpYzr2ytR1PsqjL46LN51rm8orUwcMy7DlMnXh8XJxfXrUgznPWz31Sh7dqx6G74ht2BwruOPe68mjPULVjphRHkGZavwWpkTrk1/62UEHL+p1LOFCJVHgzFocB4OvLYevkt9WDW7AJd9ZTQ6O1ecnkaee435eUS7Hzc9mnJvYQq8MrN/MAODoynBTsuHO7DktTL0rlEYe+NkHQwet4NLIsQnStzNu8F7r3nXdkS6lkSKg/c5ubIdBSbWXaPmXzdNm/psIr0HvMfG5v2691ewcxXWl3bxKDo9FO0wZ1Ohx7TzPgfPM7BK+PAyx5wSMX1DSuX9drCFyRvrMzHo0kGmDF2Fwlzj18FVeLtGGd3wPdaWm258OJjjNZReba4ZYfyIGIdo6Ry6t8jPMco92jhGymvGo4wyHPhgPzLqlDmxUPe+Ox/8EMYbJ595053nNvY5RCDW8ww7Fs7G9r7X4yobiQx0HlybZrXK6tC5dWF8pQAWQgghhBBCCCGEEEK0DEL9mg1LS6I+5a57rL5zzjbeaZ+p/OV2jx49mk0JXDMFdLKvGum+Uiuc1jmYmovqiQuBNgNOU/6m9bgOrcb+AuXd70RVMAUVRqJzHCtmz7SjCexam3cN93SA59VOeWqnR+2D3u5Um7nDcWmf47UzpLo4a2e6fs5csA3HeRKndj3eB5c2NHdt/jhMqRMHL850nZNHomDBTEReBjQPI8c51+f3tmvp1tyD3S9AYbxTx9IalPdirR1joMG0MnF013BtKE48vm07Qre6A9sLRqJ2+VfPvXrDiPYMOM3ttgWYE9Pcud41gN0pePMxbjywwKQDxoetpxk1jeJ5HlHux0tC7s3h+HGEe19DeD7csR0FI0dEWEM0CpHiEy3uFk+6RLuXiHHwPidXuIa0hzP1bEhT8n7Y/eXm1KR+44hW5kRJ35p1gE08tuXm2Hs1p9p1gOus/xvDPdako8O2hSEFaM1041Hzaz3pHOk5RrvHevMap0mOUObQutf6T1nolDke6GdebfljlwwIbdZPPM8hUhyippUXKplnYmXe5Chrpuejt0lL75rOQgghhBBCCCGEEEIIIc4c7PdtqYSv+Ru+JnBzUKMA5jq+2cklVjitc9Yl3wAqS1H91p2ozL0Mlf7WKJo/BUmpWUjN64sTH/4Y5dvn2Wt99v9oeBVIYUq9RtMH470KqTqLrCaA3OEYNzIvpKxpbqiQoL7T3stkmGDPMPkYMbIAK1cXmKisREHNGrbhhCt0IjwDk253me1xCCmSIivQG0GzpFEEBVUNCbi33F7ok7cNsWWhAqxeWRCm1Atfa9RglW65sHrLqPGJ4d2IeG2kOMTAGX82jSXC/VnFnzv4wUsT1+ON9mwYnnmGO8zN9XG0u7m9+gDHdzZx/d/jRvI8ClhDTPnVk86Neo7R8lqhiYuTT704cQqdn6hvQT1ESoNIcWgwraj8XQiMmxJF+VtLkwcVCCGEEEIIIYQQQgghhGgUbl91SyNc+evS3ErgGgVwDb5kpAz8ClKL1qL6H2NRsvNDFH70BApf/jwqd7yBlC1/QMFLn0fp2pAm3VoN+8vsdpOwFnEehVnBaqzc5rGCc3HOo8KyDo7C7TT3cGjlNmc1Tjtrx2rUXkoF0PFai7xGQQWe17pue5h1pEOhOScvz5xtsJZs1rV+Yk2rGLFKqG2rsOo0JZTHos2xsrNhRHsGDrnD78LkkXnWqjE+dmChVULRDNhjIdiYNIpIlPvx0uh7C7d6zMXwS/tgW7gluXlWq7nvzYeMS+6lqKtbogLtOFYsrM2rO1atwPE+vesozurEp4G4h1Pn2ohxiIEz+WxIY/N+pPvLpQXsNiyoUx5Q2TcbK2rOrec9bqDMOS2v8HyswIIVQE3RwvvZtgIrvArTuO8xD33G3YXxON2K9fT8GiWdoz3HaPdYX16zlryOX/FAP4+vwCrnvjkgpbbMTOBziELU83as8uSHKNhnlOc8V1OOzZzj+Z4IIYQQQgghhBBCCCGESAQ04okkLZmXXnrpNOWvi6sE5jmJpmYN4LVzH8ewjsXAkG8B/hT4cwehFK2R1Ocu+DPbwR+sROvhU1HZZigCSELWFf+B1NLdyCrbjLWH22DYxO9ZD+sSvm6jl/Bjueht17p8DR9wndH1Zbho8i0YdNp6j6Hz1i9YEDqPUpiHS3t3Rme7huxreNtxD63jmwtf4Qd4/wPnvNyCyGsA55Zh/fOznWvXY3+X8fjKaK5A6w07PM717WfY87nuqY2jLw99CspO96dzLvzrF2AB43cwA10yzDl2HcmwePeGx+9Y0yrSPglzyzBpceBtfJxxtbPOKuE5hcjI2IG33/7AhLEfXcZPBpcXdZ/Vac/AtwozZ4fud/3+LrjarlEaCfpdd23ZHf48lH+4APsv4vqanZHrX4XXPixHbz4n8wwjp1FD9+rdr+9+vOc19t4ykF6+3pzbObQOKsnt7azf6jwnysGuuOoqc0+eNYDLNn6Iws5Xnbb2aG7v3rX3ba7d7huJybcMCuVbKpBPi0+0d8ObdyJfi4hxCE9PF4971Pwbfm19+9yOntfqvgf5jcr76RzIEjGNTRlR/iFmv2bCtWlm3v3SPIy8/irHj/reY64BG6HMKYz0bEJ+pZfvwPqaddAJ788827zLnPV/Q26NucdBg501zNf70TtjPZ4/LQ71pHPUdyzKPXJ99Yh5zXh2cD0+KOuMq8MTu0GMn85a0fTvYNeL0GV/QW1aJ+w5hBHxXarFrhX96WehcB3Z4ef60AexcKbzzbBp+RXYT8Zpz4jQTWsACyGEEEIIIYQQQgghRGNx1yWOJi0Vxq2+dX55rDni7wsauPG//3Etvpa/GLj4XxCsLEGwzxdRsvZZpPX9PKqOrUfawbdQNfCfUPLONCRl90T25d9FcPebOLH5H3h598X4+s8WWQ+bB1pUbUfvMzFt6AXKjoUzsb33lNo1RG2ar0Te5LvitwptkZyB+ylYDTtTbNQ1piNh4jWnECPiuibRnO04NPezifP++Bxnr8BxO339+ZL/yRl4B6wFtX0JEhDGmYivEEIIIYQQQgghhBBCCHH+UTMF9MDx07F0Xw6C63+Lsoy+KC/ah4o976Jq7yJkpALFhcdRuX8pMi5+EGn+cgRPHsCJo7uxYl9rDLphuuNLM8HpPhszpaiIDU5fWjASIxKuXacCJ9wU3zO18/lG7nCM67MNsyMvuBqF/DgVxs1BS4hDcxLn/dWsEyvFY7zsWOidPlsIIYQQQgghhBBCCCGEEGeDGgtgsuSdV7FhwROoKt4N1znFV2mnfK4OhnTFPiNp/jKUBzPga52Pi274FkZ/7jZ7LOGct5Z4LQVnvdPjkdL3fLO+kzVhy0XP5sxwrqWz8oUQQgghhBBCCCGEEEII0RjqKICFEEIIIYQQQgghhBBCCCGEEEKcu9RMAS2EEEIIIYQQQgghhBBCCCGEEOLcRgpgIYQQQgghhBBCCCGEEEIIIYQ4T5ACWAghhBBCCCGEEEIIIYQQQgghzhOkABZCCCGEEEIIIYQQQgghhBBCiPMEKYCFEEIIIYQQQgghhBBCCCGEEOI8QQpgIYQQQgghhBBCCCGEEEIIIYQ4T5ACWAghhBBCCCGEEEIIIYQQQgghzhOkABZCCCGEEEIIIYQQQgghhBBCiPOEpimAi9bi1VfXosjZPWu0lHgI0ZI5F98TvdtnHqW5EEIIIYQQQgghhBBCCHFO4wsanO3ToSLglTUodHZD5OPaSW2wZhFw7bXAIv7edgnaOEcTSsTwczBs0m24xBsgzwuPj+uWiLidFg+TBl8dg57OXkx44xNt2zk1JhJ5f/FQJy0akQ6xksj7qxNn0sTn5zjFRMLuowhrX30Fa+q+DJacYZNwW50XIgqJTNNIhKWzjVevnU0LM5Y4e89p7nuMxmnh8nkZh0t7YefKsxAfl0jp0VAana00FEIIIYQQQgghhBBCCCFEQmhYAXw2FQWx+h/pvETGLdyvXe/h2TVtMKmxfjd3ujU3ZyL+Lfn5xUNzpFVj/WzW57YL7z27Bm1qBmeY/feAMWOaODwgljg3633FiqPwvda5/xYRJ0OkeDQUt5YSdyGEEEIIIYQQQgghhBBCNIqknxic7dMpP4RNO4FeAzsh3XGyUEEw/xA69wJ2usfp9uJ8LF+7FmvX7oIvfyA61bmoEUQLn3jD23gQZemdMLDzIcxnvAZmYNP8RdhZeBAbzfFdvnwMbEpkwuORAxQvP4T0YT2RU+e+i5FLN3NK0dpX8eL85cbNuO/yIT9a3MorsGnlUeMenoaOX05alx+ej/mL6L4WxbnD0NMXcu/s+Hva8VAkPP458YiUlvHiTY9o8TPhn5YGp92jk0/KvX7wvnOw60w8v/xCLK4TbpTnSYXxq4vqvwfrMZWgr2KRdWc65KNwWQLvwyU8/cPjy3MiuXuuK4/0bKznjaUIu9aWo9MVTvjm/56hTODJp5txeNMiLFrupM3iFzHfbnvysxsP9zpPGVMnzjXpXoS1iXifQpFuAunIKN+ENYWdQ8/40GZsSh+ISzI21d5XnfjUzfu1xzcjwz5DKpQ/QvlANz0bSXjeJ1HzjxMnOMfDnlni0koIIYQQQgghhBBCCCGEEM1JwwrgNWuwxioHXClG7sB0HKSCoEY5U46PXjyEgV+9DWOHDcOw/HIsX+RR5jSWSOFbZRXDW4aMa7+K28YyPB921YlPT/TsbNwOdsJN99yIS5qqdAtTohStXYxlZZ0wLCwe+b41eHNzBobl7ML8RT5c6aRH7uHNKDNxsGkWHrfWRx2/o/jVqcymgW+Yc6+5xVi0phD57r3yN9LxaGnU1GdCvOnhPKPTwu98CIvC06An8EmkfFLnHqjwSkenM/H8Tgt3F96L9AwuucSTftHyegY2vfomyq900sEc65mT4PtwqbmfKHmmZ1Hk+2Be4nURn00TFY28uniR8de8o8W5Jg6Ob25cbVofRKeb7sGNnUweWbSxdtubn9386b3OcW/TaaBNVyu5hzF/E0w4HeumcWPfpwS8F+nlh7H8ULq9912fLEJ5pyvQM937rCLkm0tyUOQMJvFtWo6ijAwUwZQROYew2dxfk99X5/2sU4a6A2aixclNc+8zu8JJq0W7agcZCCGEEEIIIYQQQgghhBCiReJ3fqOTMwyTvvpVfLVGIqydWlSIAuzAomefxbMUrgNaWBS2dm8jCQ+f05IyPON+SbMsPhuFwjV4xbm/V3b2Ck0fHBaPNr16IWfHLuxqk4Ncmx7vYZdx7zkmhvVmo/nFHe+95rQ5XfkS6fiZTKNI4UdKg/rySXPHNdLzo7s33PqegUu0eyjaiZ04Q+ntEi2+Dd1HY/JnDPQc47yjPXeF0ua9Oiln0roXejHRmUe82/ZgDNBa1U33RTuAgkIUOYdOo7408D7zeMJviJ49kW/DMPmhIJ+7tUTLN1T25heY/GOyaFEuel7SBgW7TCx5fm5OYqZgNvdbpwydNKy2jIj2Prq4z4nw/swVjKsQQgghhBBCCCGEEEIIIVouDSuAYyVcyRBJUXwu472/BtfG7Ikx9tye2GWVKyFF2xklXJFzxomSBmcrn8T1/BrgnM/rzZw/e44xfl/rKEMTBJW/r+xEr0lOmrtKzBaFo8zdtRM7c82241pDlHyTYzJjUaFJq4I2ZrsXehWYbfP+5tbRIDcT53xeFkIIIYQQQgghhBBCCCFEOIlRANOisHAN1p4pLacNbyd2OpZoRTt3RlZ2NrcSNOy+bTzye6Jn0Vq8t5aRo6JtEoblFKCwJHRODeFxi+ZXaDd+aK3nSaMzTqQ0QJz55EwrsWN5BtHyOhV3iHJvzXUf0eLb0H1EejZNzSdU0Hotfq0FbpzWtZ50snF2tmvwWKOedry536cY6dkzF2sWrTldeRst3xhonYw1a1BgftuYP+7SCNhc0rzUE6eImEjt8FoECyGEEEIIIYQQQgghhBCiRdLwGsDO+pt11qE8bX3OARiQ78OaN+djeZ21epth/cq1u+DLvwJXdDqM+W8usm4HMzojvSy9znqh6emdkOGsSbrLl4+BTVl/NVo6IAc9Pfe98WBnXHvbJchJL8eu+W9ikY3vRpQNvAljOxbW+uGNG3KBE8mnpWGNX+Fhh6e99569x+kf10l10qh23c/we4gTa4m5BoVlB7HRux50ePiX5OBQeBr07FgnvWrySfg9kDPx/E5zj/I865wbLa/3tGs7e92Lc4ehZ8cE3odLlLjUxjfKfdT7bJoYr/QMlK95E/OXO2mysQwDbxqLnnDC9D5jb7rXxOkS9OI6vfOX2+tPe6fN8ZzD8/Em1xj2HqcfiXifavJAEzGZpXitDz3tmtKGGv+j5RvG35QXyw+i05WXgNkjvXwXFu1sgysvSUCcIt1fQ3Hyli3e8ndnLq695wp0dLwRQgghhBBCCCGEEEIIIUTLxBc0ONvifGbXe3h2V098dUxz20CepzD91rSpXTtYiPMdDvZYBKs4V54XQgghhBBCCCGEEEIIIc4dpAA+j9n13rNYtMPZQT6u1fqejWAX3nt2EXYgB8Mm3YZLpAkTFwpSAAshhBBCCCGEEEIIIYQQ5yRSAAshhBBCCCGEEEIIIYQQQgghxHmC3/kVQgghhBBCCCGEEEIIIYQQQghxjuMrLi6WBbAQQgghhBBCCCGEEEIIIYQQQpwHaApoIYTlrbfewg033ODsCSGI3gvRUlHeFEKICxOV/0IIIYQQQgghYsFXWFgoBbAQAsuXL7edSUVFRY6LEELvhWipKG8KIcSFicp/IYQQQgghhBCxIAWwEMKiziQhTkfvhWipxJM3n9mY6mydee4fWOFsCSGESATxlP+rV692ti48hg8f7mwJIYQQQgghxIVJHQVwZmam/T116pT9FUJcOIR3Jqk8EELvhWi5xJM3qQAe1q7a2TtzrDmaJAWwEEIkmHjKfyqAW7du7exdOJSUlEgBLIQQQgghhLjg8Tu/NRw4cADLli1z9oQQFzIqD4Q4Hb0XoqWivCmEEBcmKv+FEEIIIYQQQoRz2hTQbsPxyiuvtL+JIBAM4Mn3n8Qf1/wRxenFyGmfg/KychTvKUbXjK74wdgfYNLFk5yzE8v5GnZVVRWCwcbN3u3z+ZCcnOzsnRssXboUq1eustutsnMwbOQo+ILxWTMF4MOC11+2o+T9SX58/rbb0KVLF+doYlj8xBNY+8c/IqOkBO1yzPOuqMCe4mJkdO2KMf/+77h4UuPzWnV1NUpLS5292MjIyEBSUpKzVz+RppNrbHng9/tt/ownjzKevMfzgbS0NPueeSkrK3O2xJkiEAjYvNgUEvleCJFI4smb55oFsO/YMWT36WO3T7zzDqpHjLDbiaC6OoBf/nIGxo69BsOGXWzL65YAy6tAIGjqZ0n46l+r8OwXz6162rlMhamr8ZudkpLiuIjGsPmIHzuPOTsJ5qLOAXRp4+yIuMp/WQDHx7Zt22raW2wz9u7d226LxlFs2sFbt2619fGhQ4ee1i7dvXs3jh49ijZt2qCP8913YX/HunXr0Ldv3wsyDwshhBBCCJEImrwG8GeffRa5g93nA9UfFdUVeHzl45h/cj7G3zAed3W9C+nmjx0thyoP4U+f/gm7lu3CtwZ8C9MmTAtdGyMXathUJO3cuRPZpqFUo2Jywq0hfN9DQUEBevXqhfT0dMelYfbv24cVKz429+xDaloaOnTujgCV0M5xGxbDNBu8R/tL19A/u+1P9mPv7l2oKC+354waPRpt27bllQ0ye9Ys/PWvf8XgQYNx8YhLMfG2eyKnfxQYh6pAFX7yb9+1SlHyhS9+AReZhmgsNPS8qysqsPKXv8TJt97CDTfdhK533oGkrEwEAyYvHDyIA3/6E7YGAvDddhtu+u53Q9fGCTtwGPdYOygrKyttg/rqq692XOonUmdSY3n11Vdthwkb+rGwdu1a2+Fyxx13OC6xw8EMK1eudPYMzjOJBXa4Hzt2DOPGjXNc4ufEiRM1aeYqvDkFX1ZWlo0bldrs/OA+8z3hL/dzcnLs/vmIOwAgnvc00Rw07x7Luaakc6LeC15fWVVt8kYpgj4/0lKSkZqajLzcXOeM5kNhn/mwjx07br/Vp8rKzXsQQLr5bmaYvNi2bV7C3ol48mZLUgCnzJ6NzAcfRDA723EJUT1qFE6++KLdTv3975Hy8ssIXHwxfOY7duoPf7Duab/4BdJ+/Wu77eIz5WvF17+OUvMNjgWWyS+8MAsDBw7A+vUb0b17V1x22aVo3bqVc8bZYdmyj1FRUYkxY0Zh1poA7h7mxzPv7sV1Q/LQs0NoetfziUOFFZi/6hiqzDtaF/MdNf/4ubz58o7okNO861dTwfDuu+9apcTYsWNjHjTX3CRt2ICsm29GtXkHSn/3OwQ6dXKOtFymvphiyjtnpxmYeW+ls9V4WJ5kfvnLSNqxAyfmzUPgHFXuxVP+SwEcO2wT8Buda+oJbCMwfVmXzcvLc844N6FCO9FlG7+lTJ9ODZRNPOfTTz+122wbdu7c2W4Tlr8rVqywac00HjRokHXnoBw+P9bjCwsLcdFFF1kFcVNgGjAcd8AP04PtNLdfQAghhBBCiPOVJq8BzIZ+WXmZrUizwcRfr/zX/P/Cn/b8L0aPH43ROaNth+htubdhz4k9WOdbZ695YfcL2L9gP1644wWMzh/t+NwwF2rYJ0+exL59+zBg4MBQ+J5wif3lvt1z9j1wJC0bX1RAxcpb8+fj3Xfexb79+zBm7HW4+74H0SrdYzXDID2/oTiFwvabXyqOS06VY+ZvZmDvnt08ExNvnohrxoyx29FY8uGHWLVqFbZs3oLuPXtjzPU3wh8MIDmJStAYe5mS/HjjlZfQunUW9u7aiUxz31SOxqMAbuh5z//P/8S+Z57B9ddcjbafu9rErBrBKnNdRSiWTJNDf/kLXjcN2TtfeAG9Ro2y/sbDhyYtJk6c6OzFxmuvvYYxDaSxS3hnUmPKA5cjR47YNC4vL0d+fr7jGhlOWUelNpWkjRllz2tLTpy0eey0Z8MTwra90P2dhQttp29jmDlzpu3USE1NtR0IEyZMQIcOHbBx40bb2UZ3dpAwPagMZ1rOmTPHdkIwbWiB/oMf/MDx7fyBHSxUjNOy7mxa123atMl23LVv3z7mwSbhNPW9YFrs3LkLx09Woaw6GcGkDPj8SaZ8KEWqrwI56UDPHt3iGpATKwr7zIfNcm/b9h04VRHEyep0BFMy7fewurIU6cFTyEoNoke3rsjObnpnfDx5MxYFMNMtUF2FJFNMVpsS02/SjGVqU4ikAE5++21k3X03KidPRvm3v+24mm+l+Ta7yhj/5s3IGn+DfX/Lf/k/9lziM99QvylPXZIXLEDab3+Liq9+FWU/+pHjWj+8z1mz/m7K6xvs/t69+/HZZ+tNnagVLr/8UlNetLPuZxLGafbsVzF48ADzrRiM6kDQVF18eOGDA8jJSsaE4e2dM88f/jhvG4rLT6Jn5/ABGaG63d5DhcjLbI0vX19/HaKpvPfee3ZQJKGy4fLLL7fbZw2T59P/4z+Q9rvfOQ7GydQvSn/1K1Sa96ZZqKhAyhtvhMTUUYK5uSj/3vfsexeP4nnK30IDFO8alrjBJifKfXhzg6nbme2nm6gATlq2DFlf/CJ8x4+HHEz9kQNHKu67L7R/DhFP+S8FcHT27NmD7t27O3sha9Ru3bqhVavQgCDWZdnm9p4Tfk2sfPTRR9Z/97tK5SPbCdznNn/dbRe2U/gdJPYbbcTdPm7ysTsjGMuwK664wh4Lh4pOtkXcaxMF48pB5VSW14erAKaCl+0fPhPeF2EbkOUu74HtKFcBTH937Nhh48z2UlMUwPSbaUV/mA5u+rvpymfAe9AMEEIIIYQQ4nzltJ69eNcP8jlKFyumMl/za2R3wW78bd0LCFwUQE5KDtafXI9PjnyCHq17IMOfgc+KPsOGkxvQP7c/iocU4zsvfsfxNTYutLArq4FtRwLYergaxaWBmvCscssRxsP+hu2HS7ywkcRGE61TgqYxlpzkw+HCEhwywt/DBWabcjz0e6CgGAfM9oHjxdh3rBh7jxZRD2v8CVh/bEPUaXjVBxvdby9caBvinbt2Rb/+g9B3wBD06tvfyIAGJb+fkT79cPTIARw6sB8pppHXmBHQ9T3vAtOY/2zWLFxkkjV7WDe0/9KXkTWkB05tXI/Sws+QNW4s0q+5Bpn9+2OIaQTP+k58ec0LlQuxwnObOtq7seuJUeG2YcMG26B2p1GLhNshQUVdQ4ri+kgymcub92vEfWZhkuQIt5sCO445kpwDKnjPn3zyib1vvi9UaNMCm50Y7MyhOwdf8Dx36nGenyjK9+/HitGjsfl737PvaDR4jOfwXF6TaNgZxQ6zpqZtImBnDvMgO35YliSKeN6L1Ws/wYHiICpa9ULrDr3RsUtXdO3aGW0790JSbm8crWyFTzdssgN7Eo3CDoXd6QyFzfJszdp1OF6WgrJWvZHdoZe1jOnapRPad+6JpLb9UBRojc1btlmLluagsWU2y+GK8jJ0yAji6j5tkFZ9CmWlpxAw99QcBPr0QdWllyLltddQPXSoFa8lXsB8L1//+zrMnLG0RvlLgiY93fP95p2morjyppuco7HjWv7wt2fP7pg48UarfF2yZBleeeU17Nmz1znzzLBjxy60a5dXUz/72t9C6Z6a7ENKchKOFsc/jXY4lZVV5ntcBlrEM++XlJww36kSFBUV1wj3KSdOnKzpHG8uqirK4EMVUjNSHEl2JLSPYDVOmm9Jc7JlyxardGA+cIUKmrNJ6osvWuVvwNQraP1bfdll8Jn3M/Pb34Z/2zbnrMThN/WvVuPGIfOBB6zyl/hMvSX9kUfQyoSd+re/sfJu3WMhx5QhNwwMJFBC70Kn7CbmR3MPTEMqf4MdOyLQrRuC5nln/Nu/2YEl5wONLf8vVFgn72jyAmd5Yr11s/me8FtIZTrrshQOFKPikO0UnsN6O+vxrkVrPCxZssTOduQKyx/6y/YB4+D+Moz169dboRunT6Zw9q+9e/daYdz5vDngdL+pyy9atMgJ5XRYlnMgOuvlvDf7vTdtl4bEe36kbVf5HCusDzEtaWVNeC3voatp34e3GVh3HzFiBPr16+e4NB6mFwdGsE2QnZ1tFcn0n9scDM/7oBKa9yyEEEIIIcT5SJ3aNivHbGjEg1W4mEo7xUcx+/bXyHtbF6OwVSEqMyuxbP8yrNm/Bp/u+dROxVtyqgRr9621bqsOr4Kvgw/Hko9hf1HsCokLLezFmyow5+MyzF9fYc4PhMKMIDZOEdxdIe5vrLCRxkZfN9NI49rGyX4f8jvnoLcR99dKl1zzm4s+VnLsb1/jlt8px1zHTuaQPxR2xsTCkEGDnS1ziZGyiiqPVNYr5dSaJwCmV7TnvW3xYrQuKkKr1AoU7HoXx7avQ96N96HquiFofftX0H7UNdixdCFOfLYWHcx1SUePoqiRireyMjbKG1YC8xye2xQaUx54ocUlG9fssIgGOz9cy5t482QNfBZhz8fdjiSu4tfdPnz4sO1s8co//vEPx/P6oZL9qquuwvTp0/Htb3/bWgRQuRtNaFXwne98B9/73vdw5513xqXQrw8qclfecgtyL7kEJatXY8M//3NEJTDd1pt4Fi5bho7XXWevSaQSmB07rnUzlWFnG5Zb7Nhhpz47v7Zv3+4caTzxvBerVq1Gua8Vqlr3MnktmVkVlVUBnCqvRlW1Kc3okNkeFakdsGbNWueqxKCwQ2GbTxU2HzyFZduKQoOOmjnsyuQcVLbqGf2+szqhPL0T1q37NK6O01hoSpnNwVlW4VtZir/+9S/o1zYFqVQCl4WmTGwOKqZMQTA9HWlPPOG41KWydQ6KOkS2skr+4AOk/PnPdmrcxsDy/0hpWo0SmNKlS2fceutE3HDDOBw8eBizZ7+MzZu3Ntv9uzAfMBxORc3yitw8OFQ9rzb5Z3CPXKzZ2fQBA8eOFTiK3iIUFhYbKcLx44X2lx3fvE9azFExTAU4f5uTQFUZTp08ZeJDJTSFyymEpNgI8zPPaS54r6yDsK7CbxaFSgEqgRj22SJl1iz7e+qFF3Divfdw4u23UfbIIyEr3ddes8cSRbKpC7TitNfr1qHqxhtxyrxPJ199Faf++leUT5sGnwkz46GHkP7TnzpXxMaJcuDxd5MxZ00SKqt9+N2H5hscytp1WLTVj493n5nBYn7OHrB1K6pHjkTxpk0o+fRTVDzwACvWSF6xwjnr3KWpdfYLDS49w5l5OMD4ElN3JgMHDrTiLfO5TTcqIlmvvfjii63yk25sLzSGcP9dYtlmXZYDGvm83Zl2GlJcum14Dkil9TIHAPFb05B4z4+0zTjEU4+hpS2V51RYE/rDcNq1a75ZNzigh21E19KaMC0Yrht3KoZZB6CiWAghhBBCiPOR01rdV155pZVYsYowR+pY3hnZcmwLynLKUHawDP+3w//Fb/v/Fn8a/Se0y2iHsfljMXPoTOv2pcovIVARQHlmOT7ZF3tj6kILu7IqiI45SejZLhmt0k1YjhLLFTc+xLtN3H3KpoNV+M3Ck3hiwSms2xuhRyYCbuORQiVSUpJpTCX7ayTFSDLF5Ch2uJsrbGd7pWksU1FbXsEOcE4vGfLD+hNHo5HQW6Zvm6x0j2SE7deV1hmJWTvOm37hz/vohg1oU16KpIwyZFZsQeXLk7Drgzm46Cs/RNerJuLtn01Hq/f+G0nJu0JWHOXl2NeITgNOHcbGNi14ysrKbeOVCnUXbtONx0JWPqfsNU0h3vLAy5AhQ2wHy+DBg+3I6nDY8OeUzxzh7na+NAabL5z8b58Jtz3vhRXHPVx4DUf/Dxs+vI7Eao3M69lp4MJ9TllGpbcru3btssJOCHa88xwbVycOTaVs/34sv+UWdL5yqE3rSx/4Kir2bMGn3/52HSUwt9d961uo2LURl933ZfTv2RP5d0yw19KPpsJOKeY/5jv+8h7PJm6ZxTR2O3r4rGgt0VRieS92796DsmrgREoXVJtyz+cL4pQpB0+WUyEYQKnZrqg07uZcf1YHpGW3te9LIlDYtWGXVlbj6KkgDhT7bLjNFTY7NCtMcXwipVOD952U1R6Zbdrjk3XrQhcnkMaW2XxXaAFcYd7jQ4cO4Sc/+U9c3L0NkipPorwZlcCcZtZXWIjUP/7RcQE2HvLhxVV+rNkL7CsKbb+/rbasTFq9Gmm//CVO/fnPjkt8sGw6mdQBs9e1wptbs60SmJ3DFJYRnCp15MgRuPHGcXaA0Isv/t3kk3W2HGkOdu/eizZtsm3YbjrfeTFzClAdrEZu6zQUn6o20tQBQ1zHMgft2rU13z3ORNEJPXt2Q9++vZGa0w0bSzrhZEZf9Ord165VzfObk0BVuVUmuFbHXikyUlZaiurK5lEA83uwcOFC9OjRw367vEIrNdad4q2jJgqfef8IreRdXOv4hFqqUrn73e/Cx/v+7//Gyb/9DZX33ouqsWNROXEiyn7yE5wwaRRs394O0uB7FyvLdiahS5sgxvYN4M0NPlzfP4j0ZPM+F4bydbF5rJSxfQL4eI8pm6tD7s1JkNPHmnfdb+qcXAfYZ+oqyUuX2mMBc4/nA40t/y80qED11vP5DaASkt8AEmpLhcoDbrt1SXcKYnfATE9Tj45HaUg/WE8fOXJkHbnsssustasrnCKZ7SIKldScFpkzFbjfIA5U4cAVKlP5S6FbffBat93BbyDj35B4z4+03Rg4GJaDbzhLEp8D9xvrV0Nw9h8q7d37JUwHDr6lcJvC43z2tPaWElgIIYQQQpyP1Klxc0QrJR5YabaNAf6yYeCRYFYQ4JJDMbbrA5mmwZEaeyfjhRh2eSU7kgOoNqe7cYgkJNp+WgrQIScJaWk+7Dkem5UelYtsRFGqjFRUVWPrvoI6so2/+82vI9sPFGDHgULsPFiEnYcKUWmuqQqE/KB4lZexwisYdqxSyYRKAG7aRXreGaZRmc1gOADb/BaeCBp3e5klOTWIjC5BpHYO7aeb89Ochmg8hEZ7n6yRkydLrbUllb0h4bSOpXXO4TWNpTHlgReOqOYUyOxYYUeq23FBuE8FMEfeU2HqrrXVWOyzcZ6HVfZ6npPbUWGF7hGEx9xpoSmNgf5wDeC77rorotDi9/bbb68TbiJYbvxm/Lt06o0Tx46hYvtODJp4G8p2bsS7X/+6VfxSFpvtsm2fYcC4iag6eBjF+/ejfUYeet91C5Z7plhtDMxn7BBjh47byULoRgsFVync3LBcoaKdVl2cLo+dOUwbwvD5jtCNVhuN7dyP9b04duwoqn2pdg1anym5TpRXhxSB5pfKwPKqgMmPoSle01N8ppxoZa5x1iVsIgo7GSlJJv+Z8t8Eh5KKJBwrp0Uuv38+ZKUnJTxsTmMY9LeqG3Y1v5tG+A6ac7xh+9Pb4Mjh2rVsE0GTymzzPnCAFt8hwo7Z//rpTzCiVy585Sesctj7bieSsh//GEmbNyPlxRft/nvb/Fi4OQndc4MY2jmAFbuT8PyK0EAbTvmc8e//jpMvv2z3GwPzwR4MMGUD0DMnNEMAxVtWUJiWV1wxEpMm3WLvfc6cV7B8+ce2HEkkn366Hn365NsyyS2X3CmgOXCOg/+G5LfDqm1NtwK230GPWKVz0Ic1+4BLOp5CXuopLNpUjYPlbeysLc1J4YlKnDxlvhuOxW9dKTHfjXIUNlnpHRlOxUqFD5UArvWvK3SjVV1jpnhNBOWXhxR4aT//OT9q8Jnvauqvf23dqqOs8RkJZqVSk3zRpPqZv6Bs9wEU3X43Cqd+G6VVPuvutdTlVOul//M/bATYdYlj5aSpD7PsLTP+HSzxoU/7UNkxZ23oPV5/0GeF1aDBnYLYbYrhrUf8eGFlUo3MW9+4ulg0guZ9rvjCF+A7eRKtR4xA6wEDkLRmDaqHDbPTbCeKglIfFmzy2/WQKX9fk4Qt5t6amyaV/xcYnHKYij5XyUtYHrLcf+mll/Bz8+797Gc/s/KLX/wCr732Wo3Sl+LWJ/md5Mw+sUJF7Y033ogxY8Zg9OjRVrl79dVX45prrrHCGYVcodL30ksvtcrgvn372vPHjx9vr3f94O+tt96K++67z95TNPhdCbW7Q0pdtx3ekHjPj7Ydb12aeTQnJ8fOyMP2AQfhNhccYMTvPeNL+Nz4HPnrCo+7dQC2V3mNEEIIIYQQ5xuntUjjXT+IKowaZYv5dZUvlFG9RyHF/KENcO/We3HtR9fi2vnX4uDJg3hz65u49gOzb9x+VvYz61daVhq6tY29IXUhhh1SAJuGmWnLMFxXiPc3fNvdJ7yWSuTyqtgbbWzgsQFF4TaVuW2z041kOJKOPGc/j9I6A7lW0kPSKt1e4/rh+hM35prS8sowMQ3x09xCQuvjRFDf8+5nGuoB02g8cRw4cjQZefe+gB6j78Lml/4Vh9fMwbXfm4Gcif+MYKZ5fsaf1ukmreLoMHBhZwOnb3SnaAyNoK4r3mM8t6kd1U1dT2zYsGFWEdenTx/768KGP0fB09KMHRtNxT4b53nUKH2dfSvOc4skxDstNMUcsO6x4vrj9dPdZnzKysutlLKzqTw0jfcVV16JZ597ziqGzIl1hJ0QsZJj/Cnctw/HjhxAcVGRlZJNW9F33I3Yv3szXvrSlzD7i1/EsV2b0Ofa8Ti1Z1/NeWVZGdjz/ofIiaNTORx24LDD3NtpwjRk3qPil+7Mj+4vO4yaA64pRotrrufFziVOP+7Gw32uLHc48MBVArOzvzHE8l5wWtXqpCycqqxClQn3RGnAzohQWsUBPEGrJOTsCWkpfqQbSc3KRnlFYtYfu9DDLjffmiWbC/CH94/jTx+dwor9fuw+kYrfLy/DHz4swp+XHEBWamLDZnlb7s8Mhb3pCP6w+BCeXXECz64J4PlP/Hju41P4wwdH8ef399iwM1q1toOpEk1Tyuyg8+fCmQse+z//jcv6tEWgtLhZlcClP/85khcvRsrcuTDZArdeFMA9I0Ly9VFVaN8qCL+5t8yvfhUn3nrLuarxHKpsi5LSIC7qXG3LBrfcdju03TKDQsugiy++CHfdNQm5uW0wd+58LF78gX3mTeXQocPG/xRTJqWZvVA9i9RMAW0qbFzKolNuJrYdNGUttWpNwP0uuffGb81nh5LQLYuDxYJolRrAyG5lyDZ1thWH2uFgSUhhRzYcTsbeoiRPDmkaBSdNuWC+h8Wsy7hSU585YcrnahQ3Q188lTZHjhyxHf6uAihcCGcu4XlnEipgZ1zx7ziVlYu03/wG2T17IrtfP2upSiVl5ec/75zZMLSe/+7fU6LKP2VPwQOPH8CUG/9Ux/2n8+rWPxhmoEsXO100LWdjoUt2EPltg+iWE7T159DbFZkupq20t9Bnzg/gjktqZdyAROW0WspMOVP+0EMoq/ajyrQdeG+nuMZxHHWu+uB01j+Zm4zZq2vfm/kb/fjFwtAglua2dG5qnf1Cgta7fL+pBGRdlWm3cuVKa3V777334oum3szf2267zbZhOCsA2yyuEpEDXDmDQGNgOc/6MAcscjtcGAYHxzJOrLPSjfVWV/iNYp2XFslUoPIbxXOiwTKfM1vEIrQ0juQeTfgdiZfOnTvbNgEH4XCwcHPh1v/ZRiGuEp/py19+/1zlr6sA5jEhhBBCCCHON+rU2tkAinv9IHYmmcq17VByOpasGLfxvW6wDQmwX4khsX1tdm1PALc50xJ/2cYvg5127aLci8xOjFyAYVNpW2YtgIM1YZJIv+HbrvBaqwCujL0j0asApuUuOyFLK6qMVDoSWpOXytja9XnrCq1xa/1onAKYaZ3jTO9cVyJPBZ2oKaBNwkV93j1uvNE+7xMV5rTcHLTrexE2/nE6Kt/8Hxyc8QUcWzUHVZ2uQsEO+7jt8869qOHnvW7dOrz55pt4//33bacE04wdzlRyULjtVf5Swo/zGl5LP+gX/YyVRpUHYXB6MvpBRRsVvezIoL9s9LOjnXHjNNBNhc/BPhfvr/O8KPYcZztc3I5wr4SuiA364f6Gb1OYz91pu0NTjhmprp2SmOkQLuz4iZWL/+d/0PH22/HZogU4UXwUp4qKrJR8tgljrx6LXXs2Y//erbhi9NU4uXVHzfHKNB/WzPkrUnoPtH40BnZg8Z74TF2Yfsx37GjxWlVx+mt2rBcWFtZ0xiQKdtSzoycvL8+G64bNcBgXF3Y4Ma7s9GOn02effWbTOx5ifS+SkvxI4pQAJvyjJ6qsYtC6myySYv5LMceTqQw120l+H9KSgnWm7G4KF3rY9I+zMORm+tEui1M/h6bP7dgK6Njah47ZnOo3sWEz3/P+bNjmvc/NTELbLD/aZgJ56QF0MNsdWyWhY5tQ2OnJtEpJrAI4EWV2OBy48//97P/i8r7tUNXcSuCnnrJWwH5nCtw6mDCzbrgBJ5aGpmxtCkWlMN/rFFsGczCCW25z3/sdCBeW1/369cUdd1AhkG+VwPPmLcDhJlhyf/zxKgwY0M9uJyen1KRtzRTQtAA2dS5alA/q2Q4rtjTNYt17P+zsLq1KwuYDlSZ/UvEdqpYyHbpmBzG2TxUOlPjxztY0FJeF3pcPdyThzY2pph4Z8i8WaAX/lf98BTdPn4Obpr+Em773Mm6Y/gqWbSlD6akKlBSdwImSUzh5wp3F5BRKik/gVFkFlmwpxfhpL+Om7/7dyCxMnPYifvHsYsfn+OE34d1337XfCu/3KZLQCph1lER/r6Jhlb+LkrEWXfHb/3kPZbfeBhMJBEydsfyb38TJV15hIeecfQYx70dg8GC76Y93elSTjU31vwa36GBec6k0+SMtOYitR33468f+GnkzwRbAhFbAZT/7Gb71q734pycP4tRzz9n0TQScun7mkiTzzQNuHhLAf4yvwk8nVOIbo6rNtyBop7HnfdWHf98+tB42DG1ycpD+k59QY+UcaZjmKP/PZ1jP5kBBlrmsm3J5ELblWE/k++8OBuE265cs/7lkBLdZJnDmIg6SiheG50r4PuuufI6sL1P5y9lsqCT2ltsUV1lJa1rv9dHgNSzz6hMOnKSC+4033oh4PJo0RoHL6ao59XN9VsuJgN923jvhc2N933WjcNsVpilFCCGEEEKI85HTWqLxrh9URxlGcSrVdE+rTsUXun4BKdmmcUBDROoITPtk2YFl2FiwMWQOSbfK0JRA3+/3fROh2Bv8F2LY3imgXRi++xtJCDv0XKECuMz4E58C2ITpKKfcKaD3HSupK0dLsN/Z3n/sBA5Qjp/AQUrBCXNNqIHq+kM/44XxZ2d+rEKr40RQ3/MOpqejyz33oJVpBO9++SgWjB2BA8/NQMlR4NNnqzD/ii9gxdgvI3lD6Hn34MjnGCyYOD0ZrSvdzoZNmzbZaQs//PBDvP/+e1i0aBHeffcdvPNOSLhNNx7jOUuXLrXX8Fr6Qb/iXdsoEeuJXXzxxTXTPFMBzM4MKsGptItn6rRoeJ+LfU7Oc/G6U8LPrU9ihfmReK8L3ybMK8nJtaPMTxNz3LsfD7zfy37zG7S++gZsWPYBKk4VoLyoyErZp5swceQVmHDpSJRu2GbdKk+dQmrX9li3YD5S+l+MS3/9a+tHYwiPL++T7zhH0Ltp44X5kB1qzIuRjjcG5il20DEe9DsarmLYhRYT7Lhyn1E8xPJesIMrPakKmWlMkyBSTTJxDdjkJJ9VgHK9dCpBaRGbYT4V/uoyZGYlZvrGCz3s9FQferTNxPUDs3Bd7xTkpoWmIv/CsDR8YWQO7rysnY1XQsPOy0WGvywUdvvWuH5wG4zNT8WNfYFbBwRx5yWZ+MIVbXHn5Z1CYQfLrSVPoklEmR0OlQoz/t8vcWXf9qgqLWlWJfCpZ5+F34Tn865LbsoKKp5KErRmclWAU90GUXyyDP/4xxtGXserr75m5HW8/PI/rLz00qv4+99fsTJnzsuYPfsluxbw3/422/zOMd/ZD215tmvXbuvO7XjhYBiWSVz/l8pGrrtbXR3SltVOAR1EOQfsGenZqQ1WbWu6AphlJZUHLP8WbvLhko6ltjxmncxbLieZd3VY1yBG5QewbE8aDpb4MWlIpak/BjF/k3l5Y4Sfl01btqNrzin0bmek7Un0bXcCw7sWmXLCVIXNLbOqVlXtM98OTtNp3EwYSeYdGd652J6b3/6UkXL0bFuFl97+xPE5fjgQjgPQXOUOxf02uOK6UxHDdGJ9qrlxlb87jvnQt30AX5ncA+XPP4vibdtQsnYtyh57DMEmLpXRFHwlJfaX9d144NfVfAZq2iwpyThtTe9tR02ZmQsM6BDEA1dW18jnhyZ2gIyXoPnuV/s5Ejcx8P7+8rEp2A1Tr6rGbSbutIDu3Aa4vGcAP7qxyiqBl+zwY+vR2nv34t+4Ea1Gj4Z/5067nzZjBlpNnMiXwe7HQszlf/EGvDVnDt7a4JnFgG5vbUDT5zUwJNKvBEMlp6tUZVnIb9nq1avt95jlOH85QxEHrdLClfVZCtutZPny5XafdUi60S/6GQs8n+F5hX65ZQ63qfSdO3eubb9R4exaCbv1bQrDZtlEXH+aAutH//jHP+xU1+5AyeaE9W6uwcw2cXPCGYEYFtOK3zZu8xnwl+lI+Gvb80Z4DtNWCCGEEEKI8406rVBWxBtTGWdF2lW4eBUvHEk7Y9gMjM4ajYzeGSGrV9OOvXfRvfjZ+p+FlKMpJtyBmbjHdw/u7nS39S8eLrSwT5YFUFxabUfMu+ER95d4t93GJYWKQAoVv8Wnqq1fsRIM1FoAs/FEC+DM1JS6kpaCjLRks51sf9PNrytpKclWGUtLENefxiiAeMkpx+qYv3Wl6jShZXKiYLpGe94jfv1rZF95JfqwA2FrKba9B3z6ckjPf8qk/cVG2ph3y3fPPejx8svIuummkKf1wAY4/eY7yQYpp/l66y12Vr+Ev/99FmbNegEvvPAX/PWvz1vhNt14jOfMn/96zdRg9IN+xdNJ3djyIByO8uZ0u+xYZacK48DtVato+TTAOatp2GdhGu/eZ+O6u7/RJNLxeAn3x7vNP2uZ6Om8sR1PTudTuPKXEi+89yuefBLZ19yIjZ+sQaDqBCqp7DUSWLcZ1Z9tQUrbtkju3h3o0REfvzwbrS4fg8t/85tGK38J8wc7Vtxp4Nzyxu1o4b246eHC8oPPn9bDieDw4cO2w47humULxQ2f8SLs1CLc79Chgy0Luf6aezxWYn0vmO9RWYq8LD+65Kba3zaZJq3S/GiVloQs85uZGloHl4qWgDmXAyMSgcL2o2ObFGSn+2x4dCs/VYK01CRkmHDTkhMfdq+ePREoK7ZWv96wM014mSbcdPPNd8P2+4MoLylEtwRbvySqzI4EO6Kf/PWvcEXf9qg4VYzKinL7njUHVddei+R33kHSxo12P/NrX0OAZVeCyEzlLCjmGQRSceutE43cjAk334LbbrsFt9/+eSu08r3zzkm4667bMXnyHbj77jtx77134QtfuNv8Tra/99xzJx566Ov4539+yH5f42X58hUYMmSQVcSyo5oKWDdN3SmguU8r+grO/lJZjd5d22LllmP2WLx8uDMVH2732/Ao+4qSUHLiJLLTHOvfMHHJSvNh4uAgerT1Y/YnqbgqvwrvbzPPKRDbt5Jl8Rc+1wefmu/QgUPHceDgcRwrOIXCEipcqTzzG7+SUB30G0ky235Umm1aUhacKMOxwlP2uoOHj8MXrMTVA1s7PscH1/RlvcqtC0fKv64bf3mOqwxZv369dW8OwpW/3x0bsBaxTYUDbIZ1DUSVS4+swsg1r2GEb28d9yGd6obtM/efZN7/oMmjgV69HNf6GdYtgJE9Qmk5Op+W46H8PHV0FT7XP4jp11Xj0u4mT5tnfKDYhy45Tb/fs8lBcw+HSny4qHMQw829h5OVCtxxcch9wUY/1u47XSoeeQw+1ttuvdVaKVdffDGSPv4YqZyiOgbiLv+zu6PNnmXw6oATRvYg3HDDIGQ7u4nCrcdFor5jLlwmhHU+Tp1M61O+5xReSyUo33Ue4zms23KqYtZv2W5x29EcdMhjPIfTSPM4/aCiNhbc8of1YLd97sJtzrrBeq0bB071zF9X2KZz661ueUW82/HAcvF///d/sXnzZrvPNPiNaRv87ne/s4NfGM+zARXiTAdaQxP+cj+e+PBZss3BNgIHIfPX/f654ra7+J1i+tMqXAghhBBCiPONpB/84Ac/cbZtRZhTDq1ZsyZmyzw2RtjZb5UupkHiVYxR2EiZ3HkythVvw54Be5DcPhlV7avgb+9H+kXpaN+hPR6pfgR3JN1hR+XHw4UU9r/9bR+WbC7GlgMl2He8DNuPA4s2nsRrK4/hdSP8pfzj46P4x0ojH5vtFUfsvnvs9VXHrSzbXo6tRypwoMD4c+gUlm87ifEX1d/goQXQ5k2b7D2zYzArJxc7TCN1757ddWTfnl1G+BuS/fzdG9ouKjiGdas/QkV5ufVn8JDQCOv6WP/ZZ9ZSlHTo2BkDBl+EVmmpVqmc4VEw10pSnX0qnqtNWIveftPmb8Jnx0YelT8dOna0bg3R0POmW6fJk1Fs0mTg3r1oZxqT7UwYbc3vRVROccrjH/0ISXfE9rxpBdStezerIGUnBRVW3bt3x7XXXRuXXHrpCFx00RDrR58+vdG9R3ekJKfUdB544bp4XOeK1pSkMeVBNOhXcXGxtdDjLztK2FHFzpWmwmfDbuhIz4XUt09hZwvzodeNltJM84aYM2cOBg4caPOSey0J32Z+Y5q7YtccZqeDs+/G3R43v+xgYsdFPDCc7hMn4vCnm7Bn5TJkt8pCsCoIn8l/vqwsHFm1CgWfrcTOzRuRd+0EXPXUUzbcpsJny44nxp15x+2EokKDQsWIfUYmfuyIITyHHTHsyHLTqTGwbGD47ExzoSUdwyN8Z7nPPMcOPLrz/aM7n1ssNPa9YP4uLDTPMa3aWoeybKIVbCbXf031WWWg3x+69+TKYuzdtR3Dhw2z+01FYXvCNmEFg5VolwGM6tO6Jr8lOmzmZ64JmJfpN+VcTr33nRI4iR3bNmPEiOF2v7HEkzfXHE1Cp8zoSpaAeTdPnTyBnHQ/dpu4RerM3r9/P44eOYRbbxiLXQcL4Oe3xOk4jcbBU34Ma1fXks+/fTtSFi5ExZQpjktd1uw19aTLLsbwBz+PtF//Grv+dxY+OZaBcf0jd3CnzJsHtGqFqjFjHJfo/H1tAL9cVI1k8+fz+fHi6kqM6e3HMx+n4a8fAzcMCODlT4L4+TvV+PwQX1zbtw+NvTylwmHVqjW47LIRtpwMuZ0yZdph9OrVAwPN54ffguWbjqB7p1yTh2khG0TrzFQsXrsbVw5sb6+JBV775GLgvxek47MDwNeuTkdSUjKeXlyOz+WXWGt8PkPmT/sN5a+5Ffe7xA8sn3DbVklYtQe4pEsVVu72o1/7ILJjNAi9Ylh/vPHmOzhWVI7k1Aybd3xJKUhyfv1+Uz+jRaaPA6BoicXvhSm/TT2ua4dcZGekIc0XxK6t6/H0z6ebsjy+gVJUHsyfP99RtNcOoOR3y90n3Ob3ib/8XvHbTTl+/Litr/A9TyTNpfwlJqtgZM9gVLmyYjOu/f6dGL32VQx7+IsY2T/Vul/ctW74GT/4AZJWrEDlV76Cqptvdlwj89qnocEuNw0K2EE2pFObINbt96NnLqd6DilDeYyywuSjy7rXn48qTPExf2MSWqcB1/VrnJIrnDc3hPLPTYMT49/6gz6sNuXWFb2C1pI5EiYr453Nfqss5n2Hy4S//BhZZcU48f77qL7iCgRMfks1dcxgly6ouvFGx5da4in/WVdiXaiG8qPYtjcNw035tWy7D4O7mTagdQO69WmPNFrwvrYYq9evt4Mf1u/1WffyDW/htcWra93aH8XixdtxdNsyLFsdOrekzWB0g7l+8VG0p1/Yh+Vz3sIyx6+a4zX+74WvWx+090QvEnwf+Q0i4QNuWGemopTKO77TLlQWetsZVACznuC+724ZsN18k/jOUzhwluUE65UMs23btraNwHok05rfedb5CcsKCs9l+A0NKKOlMdt1DIdxo9KZ/hO6URHJsNhmo59sM/GeuFSOq6RkfFkmcQYJxtUtr2g5PGjQIOtXOLwmmmUr68XMN7w/F5Zz/Ebt2bPHTnNNfxl+JDiYs07eigDvhffKZYGYTyPBZ8hwec+E/rItxro7485fulHh3lB4LryOCm3+8rnzXpkWjAPvx22bEKYjy/mmtneFEEIIIYRoidRRALOCzoYjibUCzMozm7qhTqNQZxEr097GVYovBXd0uAO3V9yO3OJc9KjsgZHmb8qpKXii2xO4rud1tlHXKCWs+b0Qwn551Sl8+druuLx/W4we2A4j+7fD4B45GNitDQZElGwM6NrGHrfS3ZzryLC+7Ywf7a0/l/bNRXFZAFf1rb9Ta4NppG/auNE2MtlJvH71x9iy/pN6ZatHtm1Yhw1rV6KirMz6QRkyZAj69gutfRcNrwK4wDTMigqPY92aVVj/6Scxy/ZtW3Fg7x77zAh/2XiOWwFsfut73j7TwOxw552ouP12pG3YgBJO5XbZZSh98EEMNA3bTr/5TczPOxDklKlJyMjItA1Vyt/+9iLmvjEXH6/4OGbh2rNjxoyp8YPYTl5zD+GEdyY1pjyIBjtr2PHBdGfYbNQPHz68Jk5NwT5Xk/70N+Jz8Wwz37FDh+J2mnB66nAFMNOisQpgV0hoO9RZYy19GUeKebauEtiNt/eXnRCNGoXO+3njDZzauQVtfRWoWL8NVSatK3fuRNKJE2jVsx2Ol1cjPb8fet18c008mwqfgXvfvFemKztc+NzZ6cLOGqY3z2O+Iux8cTtgGgutARiOGybDYieSGy47yBiGu+YvO454fkMDT7w05b3o0L49jh85ZJV/eTmtrTLSroPLeZBNWnEN3IzgKWw0ZeSwYZfYDkT6H9652RgUdihshtW3fQZG9sm2U5E2Z9gdO3bAjm1b0CYzBXm52afdt92vLsEm81265OKhNq82Jex48mYiFMCEHcIlRYWYMO7qkBI4KbleJXBjFcBUXg198xn4Tp7E/i9NxSdH0pqsAF62A9h8KAlfvTwUV049O7BjElbuS8GgLinoll2FIZ2DGNzJZ5W5LI/j2Y6HJUuWIT+/p1VOsMxn+eVaO/Xq1RMPvBBSKC/deBj5XfIQAL9f5vtgwuN61uargg45seWbH7/hw8e7TdkcMNeWAb07JONISRAlxUXonVthfGbZbbKoyZ/216p7+Wvyi3HgO8Ny9NMDJs8dq7RWjgs20soTyI3R4JD5Y8wVl+D3z85Bq7adkZ6WidR0U05nZKGVKZezzfNr3SoLrbMykGXeh1aZ/E1DWVklVn22G5u27cPGT5bh2V8/gk4dQgqTWGHazp492yoXuM248H74a7+7Rly8+dj9PvHbRbZt22aVN97zm0JzKn9jIdCzJ/ymTpr8/vtI/vBDVJk6azAvzzlqMPX19J/+FGm/+x0CXbvi1J//bNckrg9XATx+YO27yhSlUjSSzr57Tkj5+9qnfrRvFbJaDideBTDz+K4CP46d8kWVZTvNO2fO7dseEY+7kpIUUlo3xNGTISUu74fvRySOnfThvW28zyBG9Qqgd9tgXVkxH9n7dyDIQWocbPCzn8Fv8lzl3XejeuRIx5da4in/IyuAzXnDh6HDvrewwTcY3dJcBXAF1ry2Cumj7sINVw7G4G4cFGnc2x/FsmU+jLjrBlw5eDDaHN2OivZpOLL+MDqMvRVjh5tz25Rg2dJ9aNPHuFu/0rD9rcUoH+H4Za7rlr0Py187gr6OP4O7VWD1MldZHB2+d6wXu9Mtu99NfkdZ1+vRo4d9Z72EK4CZDiwH+J677zp/aQVLGAbPZ12R9Ur33ecvlcSsm1NZOtI8D7cdwfMofA5UyNYHnw/TgOHweVHJymsYB8ad4t4n/aPileez/kp3Cs/lfbkKYO4zLrTg5bmR4HWs+0aC6cj2OC1k+X3n/re//W17j/SfimVa4/aKYv0fiwKYx6kcr6/NR+Wwq/wljAevCZdYlb8ufJaMI8Omn246UgjTj8LnyjzEZ8L0TET7VAghhBBCiJZCHQUwYaMxHmVPMivIwWBNo8T9JeG/7TLbYUyHMbity224tdutGN51uK2M8zgbsnErYS+gsN/4pBQllRnYfLAaO45UY9/xahwu8WNfQTCi7DHH9x4PmF9KNfYcC2C3s7/tUCW2HQlip3E7VATsO3oCN18SskCJBkdtuwrgRMmQiy5Cv/6xK4BpFXtw/z4cOXwoLjl0YF+dhhw79NhYj0sBHMfzzjTPs9WXvoQukyah6+c/j64jRiDpy1+O63nzXtPS0m1D1+0UWLBgge2UZ8Ofwk4MHuf9uMLOCDZ03XMY1vXXX1/jh7kJc+/VznZdwjuTSLzlQSQYp8ceewxf/OIXbQcFLZmHDRuG//zP/8RVV11l490UeD1Tnh3jTONwIfxlg54jyDnKncJGfkVlJfbu3Yf+Jh96r4nVApidyuyg4TrH7rXE3WY+IVw3m9uuEthV/roKYfdc9zoqpeJVAAdNOr/7zW/i6OI3MSTZhLHjKNjdwxgw97PLJOnYCbTPa4Wd27fg0PrN6DVxog0vEbh5jP7x/eJzYYeTfT7GjfnV7Uxzj1Oa0slChQmvp3/0n+lG5a5rIUBlCp8zyxtadNCdU/bFQ1PfC1p3FB47isqyE8g0t0rFZGpSECmBcgTLS1Bw7Ag6dWyPdevW2fzJzk2mI+PaVBR2KGxON53ib/6wmc/ZQXlg/36cKj6ONq1SrfWvyaFGKnCy8DAOHdyHLp072lk1mhp2PHkzUQpgQiuq8tKTuO7qy03d4iRSzHvulnXhNFYB3Gb2X5D/8NdRZr4TJ7/wIFaOvB3jBkSOf6wK4D8t8+Hvq4GX1viw8WAQlQEfWmckoX1rP/YXBNAjcz92HjyJ7YdOYsehU9hx+BR2WSnFziPm18ieo6XYfaRW9hi3dbtOoH+X+utQXtjxv3Tpclx99WhbBrJ84vf62LHjprw6ZcqoHqg0STakkw9L1h+2ZVd5Jaet5lTQAaSlpmDlxn24fEDD3yhyURcfvnRZEC994sOTX87E80srseVgBSYNLLLfTX4kmHftps98h6jwtd8o8x0xeZNLGNAy9/cfVKNtZjVmfuCzynNO4btsJxXgTkAN0LpVJrp3aYfX53+A5Kz2SEpOM2GloaI6CeVVSSit9OGkycolpdUoLCnH0aJSFJWU2bpXWcEufO8bt+GGa69wfIud999/334rmM4kdK+1Ep53WVfgM+L3gwofKph4PdOC7xrrME3lbCt/XaqvuQbJS5YgaflypD33HJI/+MBO95z65z8j/Uc/Qso771iFZOmzzyJgypqGCFcA7y30WQXvCfNcT5rn6yp4OeUxn0drZ+ypKSqRl8kBOqF9L/EqgFeZ8uOp95PservRhGv2UiId80rXnJCSuiGy0oJ4y8SR9zmmTzDifSzamoQtR3y4eUgAnx8asIpir2T17Y7UF15Aiqnrpz31lFX+UvFe+sQTERXv8ZT/URXAfdqjfbYP61cfRXtzWUjRW27aiB0wfLijkHXPHZyNkvWf4bP1JWgzuBu6mnCyeexIGwwe7Jxr/CpZv4dm3yg+TL9KsH6vxy9SvA/rt23FNscieP22I+Ye0tHB+NlQrZfvqlcJTMVkNOUvYbnqVQDTGpTwvXd/6SeXqWF+5LvPbzgVkaxXUhgGv3m8lu0rhscBrDzXPYfC9M3JMRmmHiIpgBke90Nlbe16tBy4yLoMy3/XjUJ4Lcslr8K5sQpg1st5nPHg9bzHfv362biwDcn2DZXfzGuRiEUBTNjuYpx5z0xLr7AuRGFau78U5m0Kn6O7TYlXQcs09Cp23bQmdKN1MvMV3yk+S94T04TtCiGEEEIIIc4H6jRRaTFFiQe3A8UVF3c72i8bHKx0U1ylQLzQL6+Ql156qWbb+0tLPXe/ucIm7na038aG3SaD6+qmItMIrSIyMsx2emTJSE8xv+45KbBTIacmIT0tBZw2j42erIx0ZPEcc3628bsh2DBmfBMpbmdcrDAN3QZwvNJUGLZXXNztaL+8z0blNZ8fK1euxOLFi2ukf//+uPPOO2vkiiuusMour9DNew6v8fqxcuUqRs4JpH4aUx5EYtmyZbZBzdHlbIRzlDXTIi8vD/PYcZ8AmN5e8cJ9pj8b9OxQYQOfU5qxQ2fVmrUYOHBAvdfXRyBCHg73ixIpT0ZT/lLihcrfhd/6Fo4uno/LzPvdem8BqE5qZeRUj3Y42b2d3aZb6z3HcFlqCo4smo+F3/62vTZRsGOFz5n5hoqNcPj86e52vDTmXsNhXmL6sdOIHfPh4bLTi/FhfotVaVsfjXkvevTojtw22aiuKEPxsUMoPLIfZaeKkZbiR98++bbj7bPPPsPy5cvt/TB/ssMtESjsMxs2Z1gYOKAfunTphJLC49i/exv279qGgiOHkJWZjmEXD7X5sDnCbkzebCwcxFZRUYnystK4v+UNkWy+VVVjx6La6cw+9cc/wr9nj91uCj+8KYgvXBZSvh07CRwuDqCsMohTFUB2Sik6t81Gx3Y5dsrhHp1ykd81D326tUP/nm0xuFd7XNy7I4b17YjLBnTCJX07IDklFZ/sLLGDG+Jh3bpP7dq/boc88wC/ke53gNx5ceiX5TMtyNNTQ5JmtttRo+ZLwrb9sS3e2aFVECcqfOjcxodr+iXjmv7JGNWtxJSV5ttDJa/zLar7G/ou0fqXv6+uDeCa/ErcMSyIzYeD2HY4gO/93YeO/LDEwa03XI0xI3rBHyxFanoWUmkB3Ko1WrVuhWwjrVtnobX5htAquFWrbGSa7SRfOQb1ysbXvvh5x5f4WLFihb0HpjHhNoXpzroB3bntPge6EQ7KoCLIFV7DGUOaSktR/pKgSd8Tc+ei9Be/QDAtDcmLFiHtt79FyiuvwH/4MCrvugslppyquvJK54r4mLU69K3fftSHVXtq6+J8/6jwd3lro9/kUWenibTPCmJ0fiAhQr9igcrpy3oEcOSED8+tSEJldd0yYc0+P+atD81s4K6NHE7VVVfhhKkTV06caNf/rfja13CCCvgYBwc1uvzPHoQru+/Bhn3OfkkxIpcsXXGFyQ933dUNe02bes6c5XAviZvsIbjB+uXKFcb32GD9kQpfKmLrU/5GglMpU1nJd5yDOvi+U7p06WIHfLCdwPXu6S/3uUQMv88sG5i2/OWsP+51VKxTGct6ZzQL2XB4rlsGueJ147a7z++Bd989zrixPbNx40a7TffGwpkNeF+EStAJEybYe3Phd4oDpqmEbQqsM7D9xzSlVTEV1q5s2rTJ3gsHxlHswAAjrCfROpuD9VyhG5XA8ULlPNsofF5U+LpTejPtaH3Me+fgX6YH6zQc/MPpvoUQQgghhDgfaPIawO4ITDZS3MaKu+/ddn/Z6GLl2x3ZyQZFZXUAR01DJl4r3PCw2aj4wx/+YBtunGqXjUJOZ8T7efHFF21lnm6s2Dc1bDa4XnnlFdtQ5P2wgUTlxsKFC+1oVnY4cZsdSAybDTaO5G3sfa/eXY2cNq3MfYbWkWqV5kPrLK5z6ztdUvxIS/EhzbPdKiMFSf4AgoFqq/TlMbpnpfmRFKzAVX0jjwx2+ezTz+w00Ew7V6Z9/3uYcPNEXPu566yMtevOmm1Hxl57rXU7cPCASadPUGwa1jtNQ5r3y+svGnoR+g8Y4IQQGa8FsEvJyRNond3aWlCy8zL0m2SnZqbliskQ9rz3P/jAdqpT0WcCrJlais+Cjdt4LIDPdD4vLyu3eZVCpRaFU3RddNFFNXLppZdi9OjRdYRu3nN4jXs918YcOvRiE5+KmvvxEm5N0JjyIBze99NPP23Tgv7ccccd1rL2t7/9rX1HaWV2+eWXN2mUNZ+n+xzCxYXPgSPP2enAdOrSpTP27j+AXj262w4hdn7wmfGXeZNWwbFYAL84a5YdMe+1AHaF+YRidmx+C1lUJdV0soef75XDJp/EugYwFQQLvv1tHF00H2NTUtF6zxFr+UspzO+C75dV4h34cVPbHOQWllj3jKJT6NquLdZv24KDGzah94QJNtxEQH9YHvLZs1MuvGOOacxjPIfPPdaOu0hQ6Uv4zPj8+My898EOMoZFCxC+d425x6a8F7fuvhXfPPBN/Ozoz7AxsBH3df4K/hr4C+4qvBO/Kfs1Hi95HD9o9wN7LsujRYsW2W03LHZQxZIPG4JpvcG/Hv8IvoqdaTvQo013dM6stYppjrBfLn4ZfVL7ICM1w3wbM01+zjbfsDZo1SrLdsDOPzEfeUl5uPziy5v1viOF7dLcac4w25t81759O/P9yUFmRu2Uvd6wWT6ReMOOJ28m0gJ40qRJGDvuBsxb8gla5+QhPSPTlGmR3+N4LYAzv/51rBh9LzJ6dalZS/NoaRLWlrTBpHuHoeKhh6ybl1gtgPn6X5kPtM2swjsbfdZaLzXZfK8DQfzTNT5kpiXbupKVzBRkZ5jy1PxacbaTk/3Ysq8Q76/bh655qbhlZGfkd4rd+pfl37vvvofrrhtryz6WSSy7+E1g3bG4+AQ6dOmOR9409TTz+dh74CB6d8lDRloKUkx9h0pbKoQzzf7qzfsxol9sawGbItJaIF7TLwW/f7cYdw09ZcNPpgI4wi+tfrkMBX9PlPvw148qcd8VoXVds1KDdi3h574KXNKIqsGYK4fj+b/NQbtu/a2SNyuTU0Gnm7ppuqmbppr7C1nBcWqPQKAC+9Yvxl+e/Kk53rCVWTj8NtBakN8BpjXrIvxu8D2h9Ry/QSwT+L7y/WG4rFPwmVAh4eKexzqV1+ouFvymDtrqhhuQtGkTTo4chceXZLUI5W8NzIOm7lhu6hFV48ahytTfK778ZZQ99hgq772XmkXnxIYJtwBeutOPUfkBHCrx4VRlaBryf6zzY9Nhv52mef0BH7qbqvnmwz4M7BSssRD2Eq8FcJ55HYd1C9bIEPOpG9zpdIvbSDKsK3Bp90DNtfQrVlheLd/lt9bxH+8x9bgTPvOcqfhNwtz1oSmn77+8Gn3aRX/eQVNuV955JyoeeCC07q8p16IRT/lfnwUwXdPap2Pf4lU4ktYBfYa3R8Xqrahw1+V1z21/FGu2p5nf9ug2uBt8e7ehPNex9HWnb963AcuKO2B4b8eaeHBX+LYtw750Tv3MEwxpFTi6ehWOci3gRqx0QvieUmHHejLLq2i49T8vbJfzOpYLfO9ZLrCNxEG3bluAfQecUYblB8+h8pcWpFRW3nTTTbZOT79ZllAhzLjEAp8NyxDGn2URFc4cjMb9ULkb+ibwl8/MtQAmPIffiPfee8/GlYNR2BfB5841g1leRbMAJnWevwfeA5Wq9INhk48//tgqvl03DuyMls6xWgDzeg7EpFKVadwYGBfOuuS252OFit133nnHtgHZFmA9iwppxpvlvQvvl8pot01BWD9r6uwwQgghhBBCnG2avAYwGx6sKLNhwoq5KyR8mw0mNjSooGXD6+DBQygsKsaeAwfRpWOoMh4P4WGzQbBq1SpMmzbNNoipoKUi9t5777Xrj06ZMsVW5BMR9vPPP48bbrjBNkTYCKR1JRVJb731VkjZYxo6bOTRIvkb3/gGfve73+GSSy5pdNif7qtG61bpSEr2I5UK3fToCmCr3KVY5S+sW1KSacxUVSM9PRXpaUnOubQmMZkgUIHLekXodfGwbt0n+OzTT23j2JXRV19lOyBWmzS31kvmWWSahiobTa4wT7ERud+cl5qagrLyMmSbhhSvH3rxxRhgGs71Ea4A5nP+uklPV8HJTnSvUBFHYVqzwy7dNO7Y+N+7n9NudrF+NFYB3Nh8fsA8Zyr0du7Zi+5du8T0vKurA3aEMv1iXmY6Mz8zf1PY+Kewke6K6+aewzzPac3YMcH8SAVwamq6vRdvg9clvDOpMeWBCzsT2IGydOnSmg6p733ve7bxT/jezJgxw4665mhrd+Q1O0LctIwVTs8dbfpnCvMaO274PKgE5vqKH5lyoW1uXs39UvHCTgymOcuIAybPUUncEH974QXb4cL85oZHmE9cIXwXapS/5teNL3Gv8wrTLNYOjne//33seO453Na+LXJ3HahR/p7o0wMPllXi1ouGoUdOWzx57Bgmtc1Fm8JiezzL/PZs3w4b9u7Coc1bkc/OxkbA98ItE3if/HXfFfd4+DnMW8yHfEd5v42FnTcsf938zE4qbzg8xrzFkf+uuxsfN60boinvxaslr2J81nj8b9f/xa2tb0WWPwsD0wbigZwHcHXW1fb4v7f7d3su74EW/EuWLLHWKCxTeX/sLGMZ1pR0WlG6At89+F1MbjPZTvG69NRSXJ15tXM08WE/dOAh/PzYz/GdvO8g1cfcVpeHDz2Mnx75Ke7Ovhsd0zs22303RHOmeUN4w2anY2PCjidvxqIALjXlZBtTt6hPAcwlBcbdOAF/X7AMue07Iye3HVLTor/H8SiAM77zHVRNnIiPO460lnI1CuCTPnxyIAljvjcRWeY4LeO8xKoAdunauhLFhfuxvSjbLplxxyUV6NomwMKY/+y9sIymFWxo24+iE2VYtvEgln26H13yUnHt0A7omBP/wKXNm7fYDn1aqNNvlkWE5SWnf+a3KKVND1QE01EeSMHWkramnuZDj7ZUyHJNUlMHNPttszOwZstB9OrYCq2ZWA2QkmTqkftNeVx5Aiv3+NEtJ4COrVk3rFX0ur/hbv/fW9W4e1gV2jm6qIGdfLj3Mp9ds7UxpKYk46L+PfHCS6+g94DhyMyg5SLXbaeSNdWEm2SXdTClNT5d/hp+8p0vYPCAhqcfjgTTmPUNLjvBaVtHjBhhB8pRucM0Z32M7yKVPPx1v9use7G+wqUreB3rlaxzxqX8Nd8bTqPMQQ0+E16SqZfhmT9jVd4wZA/u2WzKX/p43LwzVMSa27cDHcyjNPkYKK/yWQtkd13bglKuTR46HjTpfjS3O5KHDkJxtz44kZRlrXTLzDWRFLORaEgBTOvX4d2C4BTnl5vtz/UP2Hed074nSgEczvMrkvD7Jcl4c0NSg1JYGlIeNwYOzr3S3GtRqd8qtKnk5y+tgrnu7zevCeDiLvHHPxrxlP8NKYCBbHRrU4L1R9KMn73Rp81R065dVjtFMxXDg7Nx1LR1l1nrzG0o7zsWV7Ytwbb1n9VYbK7f2wajbh2G9jX+d0O39j6sN9etds4paXMlrhhc1239Xp8nLrHhvqv1EUkB7ML6J9sEfPdZX+TyIFTw8t13YflMP1he0DKV5YFbPrDNQMVxnXRtAD4ftj3ph9tGZHlHPyh0t+WfeXH5zFgGUfns3ieVvh999JFt07AOzXiwTOJgYcYvmgKY/kWLJ/1/8803rd9ME6YH2yAffPCBbb8zL9XXbqUSmtfFAstY1seZnqyPxwPvgcp2tx0ZK/ymUmnO65gGbHPSWpvpFw7TPj8/357DeNJKnOnBZ81BA4yDEEIIIYQQ5yJNXgPYrUBb60v+msqxK9bd2WbjioqVI0eOYuPmTbbhk5OTi5PGrW2b7EZZ3ISHzQYSLWrYQUlF0t/+9jeMGjXKNhhojTt48BBs2pKYsF3/2Zi79dZbrXKODTKuaUqrM07Hy1GmbESx84gjT7Nz2jQ67C1HgIxWVN5RcYuQAjgzBRnOtIA10wNSaP3rWgGbJEr2h5S/aRlU/vIcR0FsFcNUFlVhaNfoI6gJFYmfrqurAL76mmuw8uOPMff1N7Bxw0bk5Oaid5+QNSU7ItgpwWe+xTSod+3chWAgaDs4Ob0fz7n4kkswcNAgJ4TIhCuA+YxpObzuk3VYtXIltm4JdaZmtcqqUey4snP7DtvIZP5jA7CT03HHBigbzfEqgEk8+XzDxk04ZBqPWVmtcKqiHF06tI/5edNK9/DhIyadqm06Mp/96U9/wl/+8he8/fbbNj8zT1HeffddK+4+xT3OvMiOATZ82dHg8/lBK7hIDd/wziQSb3nAdH/00UetAprTdrHR7I64fuCBB5yzTJ4zDWpaZvMcHuNUqBy9znWOx44NWUbFSop5nt7nES6MU8iyqthsB0wZsBWdzXMfMGCgfVacGYCNfCpemF8KCotx4kQxepp0a4gXXnjBDvTwKoBdYV6lMHzmC9fyN5qy2n2veD6fVawK4A9/+lPklJ7AZWWVSKV1t3E72bcXppaW43ODh+I7s2bhqnvvxZ75C/C8ub+J7fLQuqDInpdh3skDGRk4YPLaxV//uvUvVhhX3pcbZ3ffdQt3d/f57rkd7fylm5sGseL6Sz+YXzk63/WfuOG5nWrc9h4n3HepL+ymvBe0gr0442Jcn3W9Vf6SNF8a2iS1QXmwHLOLZmN62+nWnTDfX3bZZXbNSioHOaCDHWv8jjA83m9j+MeJf6BDUgdMyZ2CoWlD6yh/XRIZ9jVZ1+CtE2/hKzlfqVEA37TrJkxoPQGZ/kxcnnk51pSvweeyPoe2yW2b7b5j4VwOO5682aAC2LwPZadCFsD7dm61fjN+jIP3Xbnxxhuxac8xpLTKRfvOXZFhvm+0/o32DsWqAE5/+GEERoywU86u2G3qclv84DSqGw758f42P/YX+XDL6FaoNnW6zK98BZVf/rJzpfkGxKkA5lq6O/Yfw9RxeThRFsDNQ6pRfKoShScrUGVu1U7tb26Hd3S44BTeX7sH2/cdx+DurXH1kA5olx2PmqIu77672Hzjrq4p+4hb/oUGKhXhov7dUFpeidX7kkxdLxn7ilOwYKMPXdr40DknpASmFXBGagrWbj2Aob1jm8GmlYn2x/vT8cBlpVi4JRnzN6bi4i5BE4ZrfRb6tVbAyaHfjYeAVTvKcOfw2ufLR02FclPo0qk99m7fiu2HDpv82s9a6mdlZpp6aYpJ99D3cPuW5ejTugL/9LUvOFclDnbw8xlQscFvhFcBTFwlENfCbCypzz+P9P/6LwSpsDDhBM03Pe3YYYz8dC4u/eGXkNqmeaZrN9V9/OurKWhrPjndc4OYtSYJ3XNgFa1/X+PHW5uScHXv0Dv9f95iPoS1St16xG/3r+4TxLMfJdt3budxU84U+jGwY/Syw0u4ApgWsVT+ctBBp2ygd9uQPweLgVxz+20cvVJzKoD3mPiXVpiw0hsWvkruwJPGQMX6iO4BjOkTwACTZrQqnnRxALdeFEC7GKeTjpV4yv/TFMBp7c21YQrX7G4Y7Lpxe/DgkFAxXNEew7t1RTfXzUgfmgfbNYA7YOytYzHcujvr+Hr957bnOmv1G+ZWE26CqU8BzHYt69luOUxFKAeKcCAoZyhi+4UKYraj2IbiDEZuOeHWY6k05QCuWGFbjkvzcIAuZxDjzGWs79Nfd+AXheUQ40ALYMaLcaSwvcQ2B8tHXsN4sV1J4cBbHotGnefvgWFxMC4HzLNNxl93ABjTgG6slzCMSN95tq14PFYYb9bZ2eby1snrg+Ey3Zge8cL7YRvwuuuuswp7tknpX7TBPEwPKoh5Hvty2FZlm5n3SaVwpDQQQgghhBCipVOnd5GNDEpjYHU4vFLs3WeHPBsSbFR069IN148bh5PlpWiTlYWuXUKWmY3FGzY7r2hJQwUYK/u0QKRShw2OFSs+Qod2HRISNhuFX/3qV21DgducxpZhUdnswjixkcb7PnWqtEn33SbDb0foZ6T5rBI3NYUdcAEkR5CUpCBSkoNINZLkC6I6GEB6JtcG9ttrvUILF/rdEIHqAKoqK+sIG27W3TSEKZWVFbaRxcazV6hkc8+hlZF7fSAQf2eI21g8bBrMbHhTmL7xQuvjxhBPPu/cuRNunjgBlYFqdMjNizuvscOGeZdC2KlzzTVj8Morb2DevLfw9tuL8O6772Px4g+tcJtuPMZzeK7bEUQ/2OA+cOCQ2asb/2jEWx7w2dCql6PB2anBMN3fH/7wh85ZtdBSn50znG6LacaR9+zI+vGPf2zTMVZiyUV8T5OTU7B7/wEMGTQIgwYNtmGwQc9wad3Dd5idAwcO7sc1V5+uIIuEVzHixZsnuF0jJh519h1hOjAN2CGyffsOdOgQ27SeZNKcOSju0Bkf9OmFgClXivr2xo9Ly3H5wMH47qxZoTCN/Mcrr6B/r954rKISRX3yEWjVCh/k98AeXxJumz3b8S02eN8UWwaYX77bTE9KqCww77jz626757iKD3aouP64fsWCG6YrtPBl+jF/0/LeDYvhhsfHG0evH5RYiee9eCjvIVyXeZ2zV5duyd3wy06/dPZqYV7lt4XWHBxcxPeD7xAHefA+GwOtj18/8Tq+sPcLeLbwWVQGK50jdUlU2G38bZDsqzvLwKTsScjwh3r7W/tbI9n8eWmO+46V8yXseMtsLyyHksw7uf9YEb5y/9fwu5m/x2+fnolnnn3Orgnoheuytslth4zMLFPnCg3AaQrpjz2GQK9eqPjiF+0+196kgmrrMT9W7vGhe04Q94wIfROqTfld9uijyJo82e43BluGVIcsWr99bdDUm0LTKlMqKqtxorQKq7ccwV/f+gyfbt2P0QNzMfmantbatins2cNZLjpapSOfe1mVH3//NAO7i5JDM0QYYVqaahUeXxzAvuOV2FMQwMHiADYdDOIbzweweLOpu6WEhOsQ7zh4AoUnQlOINwQtG68x6frOrja4sl8mvnVtkgkn3VpHBoIhpUOSSYvQusCh/f96rQL/NKZpzzcaD3/vQRz69D0Ulhww34NkOw00p0nn9omTR7Dr4zfxi//6N+fsxOIqe9k2oLiDhbjNY5RIA+XiIfXPf7a/J+fORbFpl5SsX4/yf/5nZJwoRNaCufZYczGoYxBLd/jtgAYXfmIPFPvROTtofkNu7bJgpyxmnlu202evc7n9kmrz3gUw6eLY62PhfPOaalzWPYBvmd+r8mv9GZUftMppl8nDq5GdFlsdIF5uvagaj9xUFZPw3ERAxTYHV1zZK2DTm9bXzU1Tyv9w9i3nGr+OLDXP64rYlZznAu6MQ3znqbyk8N1nmXC1qf8/8MADVvht5i/d+D2msP7IsoFlBJWInO0oHviN56xNVCwzPA78cb/14XVS/rr1VXefz5gzGXBwL7/NnJnAPd5YaP1M62YqWZkOXhg+2ydNDcML6+0MK1bcQfXxwnhzQB1naHOfM9t5HADE+4oGv8M0IOAgCw4KYHucz4nPrr7rhBBCCCGEaKmcpvljRXnZsmXOXgyEdfyFdwRyn40GdsDTssGOpG2bh49Xr0ZmaoqdBq/RRAjra1/7mh0FS2XA5z//eXz729+21n033TQB69dvQJucNgkJm9aunIaJ1jBsAFLGjRtn4zBy5EjbwGADh+uN8r4HDBjQpPtunZ6ESrfNEQTKKwMoOFF+mhRSTpajyPwWm99THDrvT3bS6vQeCPpJvxuClqiVptHjFSpSKqtqlTtU9IYrfylcz9Y9p5p5wfxe+7nP2bVLzxZ76lnfMCIR8pqX8HzO96htXlssX/kxWmemx/282SlRUVGJ3bv3WaHlNP3u168/8vN7GullpzLmdq9ePayEtkPHuN23bz97Da91/eE+p1iMlXjKA3aorFu3zipxf/3rX9uwaF17zTXX2MZ3OHxH77//fqv0pGX8E088YafwpfKDFsGxUm3yE0d4833kdYwvxd2m+6fm3d+wZSvGjR1rleJUADCeHLDARj2fHTtxuG70Dddf7/jcMFXmHYgJ5hcj3lzDPENhOrEzieUFOxkKiwpMOrR2zmqYVl264M7XX8fmopN4t3cP/G9pKToNGITvz5ljFb8u3P7xP/6BjN598by594+GXYTNxafstfQjVph2kZS1TEOKe9xVtNr33lG8srOLv64S2PXHu90Qka5zLRs4GwDTMzxs9zw3fuG4x2Ml1vdiTOYYO+VzJHKTcjE5O7ISi/nizjvvtJYXXG+VAyn47aT1P/NrvFDZvCJ/Bb7f9vtYWbYSUw9MdY6cTqLDdnko9yFk+urvnG6usGPhfAk77jqcA6c5Tk/PxImqJPz5jQ/wu7/NwxPPvYyf//Z53DDhFkycONE5E0hJTUOqeeeSzHvMuDeFtF/9CsGMjDrWwLSau+/yaozoGkC3nND2uP619YVqU8cq/9a3kGm+H42BbzqXWaCSk0IFcGqyH8lme8ueI5j74QYkVZfiq9fn446reqJzXmKUKmvXrsMVV1xeo3Rcsz8Nuwv8mL0mFT+Zl4onV3bF7P1X4puzU5CZnIaDRT58urcaS7ZUYufRaozs5cetl3AJjyRnlhc/xg7vhffW7ndCaJhLulTh7mEVdlppWjv+5l7gUuPvA3/24c31jhLYCH/nrKzG5T2qGz3Vc0NQ4f3U//svLHplJkpPUQlSifKKClNnLMXbc36N3/zyUfOtaKKpcRRcZY+9XxMP95lw23XnflPw7dtHTTOqPVbEgcGhKVr9PNaMJPlDyscl22vrANuO+ZHfNmjXuKVFLuHrO6JbAPM3+pGTYdLFMyX1H5cm48n3k/Dapw0PEo1GalIQXc07zKmuaRkcDVqnc5Brc/PeVr+9H6/Q7XyhseV/OF2vuAt33eXKFYiq/s0ehBtuGBSy+j2HYDuAg7cJ33XC9oCLW1+ksE5JYZuBA1z5y3olYRuH7f144OxTXJqKU9MzHrSsZVnD+qobprsdyc0Vt5xKFIwH6x/f+c537IwkhNMe33PPPbYdx3p7IqE1b6S2YThU/jJujYHPict7sA/GhYpnPk8aC7iwr2Lu3Lm2PerCug0V7RzQzWUDaKnN8zhYr7kHBgohhBBCCJFo6rQc2PhhxTbRsCHFSjits7Jzc7Ft1y60yshAfn7DFf944YhYWtGw8cLKO0f40o2jPkebBsz+w4cTEjYbJLfddpud+pVQ6fy5z33ObnMkLaeV4ihdriXD+x500UVNuu+OOUnw+YM4WVZllbqlVVyXK2RBElGq/SitTrLnlVYEcKq82oi5NkySkkJ+NwTTz2v9S2FDiA1Sl6rKqhqlr1e8FsBWMWOu3WPSgkrlMw0tPQkb8U3tuA7Hm88zMjOwdddOtMlq1ajnzU7Pz31uLG6++SYrVCBzKsLrrrsW7drlGWlrf9u2za0j3mM8l9fwWtcf+skOzliItzygwpXPmCPSaVXLZ8+OEq79Gw12LlFpx+tef/11O9qe19CaPlZ4rbsmtCt8L921/jgg4+rRozDplok1nQh8Vm6eZAfKxk2b8MGHH+LzpuyIByqfmUZcw4xlAIVKHCrCOb0cp3hjJxNzWrjy14X5hfF57/33bAfLgP61HRWx4iqBN+Rmof01Y/AvYcpfF7r98JVX0O7qMVh/vDhu5S9h3MPfHe67nVGuMJ9RsU3hPuH74R5zzyOR/IyG91w3XP4yDbnNjjTXeoviDcs9173eJZJbNOJ5L/776H/bdX4jsb1iO+7Ze4+zFxkOMOIabJzNghYLHCAwf/582+kYD3sq91gF32UZl+Hhdg9jTVloncD6SFTYLjsqdqAqGJvlRKLDjodzOeym1OFYNqSZ73xu2w7o2qsP8gcMQZ+BQ9G5Z1/Mmv8Bbpx4Kx566CEMGzYcxacq7NrrXFKgKaT+8Y/wFRejfHrtNOhesndsRP7qhc5eXaquvRaVkycj41vfclziwJQVnOY5tKYuB+FU45Mt+/Ha4nXo0saPf588FDdf0R051EolCA7E2rVrN9566238/e+vYM6cl3Hkk5eRV/IRThQdx+HiSuwu8GF/cTIOFAaQhCpc1bsax08GrHVmTloFhmWtwdMvLcNTf1+G38xZjl/PWYaPPtuNtdtqO61jISc9gCt6VJrnF9q/th/wwtd8OFRcjS/9sRKbDgXtWrG/W1SKr40OndNc9M/vjntvvAbvvPsXlJw8aeoNJ/Heh7Nw+3VX4uJGrvsbC/xeEK9yhcJtl6YqgKtN/cN4irTf/97u+0ydKPWZZ+x21fDh9rc5oQL44z1+OyU0+Xi3D7uO+8yv34rLpT2C+HC7H2P61K2Tf31UlbXc5fTF5wuLrQKYSu1aodv5QHO14c9X2E6gUo/vPC09OQCV+xx8RVhGuOUE3ahcZ7ueg11ZVnCKZlqHxgvDo2KV/RRUBrPNRGWwtyziLweFsi7rLZvc43SnH64bJVGwnsxBlYwb22QNKbjdNGoMnPbanakqEpziPNpUzbHAKZu5NJd3DWOmG5XCtOZlm4Rw0B3bnjwWDtuUNCTgM+IvZ45iW6+5BwYKIYQQQgiRSHyFhYWNr7kbMkxjiJac4R3r7jaFDRMqg7bv2InjxSfQqW0uunZt3NTLXi6ksA8eK8ane0+irCKxUw+lpSZhaLdWJm71j99mI2n6d76LdZ984rgA/zx9mrXiJGyQUtHLBpTbWHUbrKtXrsIna0IKh8LiInRoF5re9oGvfw33NWDBs3jRIrw1/y1nL8SXvvJlbFi/HgcPcjpjYPDgQejYqZPd9vLO2wutIpJs37EDl1x8sW0MUinaxTwHrj/MBnYsxPO8t23fgX2Hj6J3ty4JyWvk73//u7WMpVV7nz59rYK4Pqqqqm2D9rXX/mFHWdO6rCGowL3hhhuscrwxzJ49246g5ppUHDDABvK//Mu/2KnT6oOWt1OmTLHKeSrrOAKb6y89/PDDzhnx4yoAvc/HFcIOCz4rdvas37TZWp5cc1Vs0z57GTNmjB1k4k69x/tm2K7SkXBaNXYSeRWR3riwM2HFxyvQO7+3fVbnCkxD5nm3k8y77Yp7Hu/VTQ/v/bviusUK/YwUHt3c4+FEC7OhsJvyXnxx7xfterj/lPtPjkst68rX4eZdN2N3/4ZnI+Ca2pzunoML2Bl2++23x9Up9uTxJ/FSyUsYkT4CH5V+hK/lfA1fzfmqc7R+GhP2w4cexqySWbit9W34bt530SOlB7ps6oLVfVajY3JH/Pzoz/FC0Qu4MvNKfCfvOxicFrKKC6ep990UzoWw48mbz2xMPW0t3nBC71C1XaqB2/zul506ieNHDqHw2CEM6tUFuw4dR1ZOB7Tr1MV8F7PqfXcI1x6+f2Bda5nkt99G1r33otLcV7lngFDQlKGBnj3ttt98v1pfdpndPvXMM6icNMlu+w4fht98C12S581D2syZqPjyl1H2ox85rvVzuLAUzy3YjBtHDcDyz/aa+lUhxl3SDaOGnF6PSCRu+eTilkWEJVbBKVMemS2u1frgrCrcNCAFv3ybIzWD+O095dZ6k0VbTfnGH3N5emoyWkVaPLURHD8J/GKBKZ8O+PAv44K4NvZZOpvEjZO+iO7XfxGpqRnY+NpMvPPai86R5mGRqVtSYcbvtneQEp8R8z0tvFhf5BrdjSVpwwa0GjuWC5Ei0K0bfBx4WFKCqlGjcPKNN/gxdM5MLJXmNZ+5JMkqbzmt818/TrbTG/9puR/fHhMqA/7ycRJuHlyN2WuS8d2xVaio9llr3d99mGSnfX7uoyQ8OLoKmXFmqyl/C13AaY8TxckKH4rLQn7+dGLT2kCf7Pcb/5wdhyzzvl3c5dxTcsdT/nPNWbe9diHBKYCHNzDYgt9aDtZ24eArtmNYZycsDzhLkfccWo/GYr0azu9//3u73Iw7a41b7vDXFXff/TZwm+WSeyz8O0L4TXj//ffxpS99yXE5HbZNYoXlX6wDYKgY5xrCTcEd8OaF6Rtt/eamwvb0O++8YwcBMAzOtsKB/VR6R4OWwByMxzYrFcVs18XahyCEEEIIIcTZpo4CmB0hhJ0isULLN7eR5BLeIciGSUVlFQpKTmBAn3x0bORUPuFcSGFTsUqLQjZaEgXjy0YuFW9uY7Q+PvzwQzzywx9ZS0Y2JC+74nJkpKXbaZ1Dnca0VAl1HHvZv28/dpoGNjleWID2bdvZDrfPT7oN3/r2t617fbzx+utY8uESZy+kAI6FSApg3vOhw4cwYeJE3HHHHfZYLMTzvI8VFWNQvz4JyWts6HOqKlqFsbFKC6xII5QjwQ6Lp59+2lqm0yrd28kZifDOpHjLAw4A4BTsXAd7y5Ytdkp0TvEcC+yM/d3vfmevZT5/8sknm9Tw532yw8v7zMKfF6dvLj5xCtlZmbjkksatCc3nw+mnXbxhuNvsROb0Y4yTm/48xvzCQRIchc4R9lQen4vwPsIlGm6a8Jdp4U2vxhAp3IbCD5eGaMp7cfPum7GubB2+mfdN9Evthzuz78SK0hVYeHIhPin7BHNPzEXhwELn7PqhZc9bb72FsWPHNsrq5HDVYeyu3I3uKd2tEjYe4g17f1XtlLRt/W2R5k/DgaoD6JDUAUm+JBysOgjz1bDH85LykO6Lnvebet9NoaWHHU/ejEUBHA7fperqKpw6cQIlRQV2al5O/5ydk4us1rROalg7FEkBnDJrFjKnTLEKXy/Vo0fj5Jw5djt15kykLFhgrSj95nty6o9/tO5pP/+5nTbai8/cb8UDD6D08ccdl/o5WlSKx+esRdvsNHxueFcM65uYemEimbUmgDc/TcL6A8Avbg/imr7OgfOUgsJiXHbVOFO/9OHjJW8jp03zdqzznVmzZo3N45G+CxTWjWkV2BSSVq1C+g9/iOSVKxHMzraDHsp+/GMEm1EZx3V/F2z0Y8JgU8qaz+Ezy5Mwtm8A+wp9GGN+yebDPpRW+rC7gGvk1iqU3tzgt+tvv7vFby3SSUaKD1+7MjbF60/nJWNfUdO+69GgRfPXroyvDDufiaf8lwI4djgw1B1EStxlRRo7DbEXLknjljvheNsHbv04khuv5bb3GOHAWXfq5nMN3tPGjRtrZjvhvXTt2rzrTnOmKVpz8zmzrTh+/PgG22FUdrM/gNNIxzv1txBCCCGEEGeT0xTArNyy4/HKK690XIWohUo+wsYSG9ZUIDcEG3ZUYBMqBmmBSzi62G3ANsSa1WvsdEv0iw1zt8FbH2ywu1bIby98GxNumgB/kt8qGamUi8WPsw3j764/xbRzG6u8N94X08MdDe52DvCXz4fXcGotpjevodQ3AjxSZ1K85QHjy6nUqKRmGscDLXJp/UvFbywDEs4VmPfdZxQOn1NTp5lsqTBvejmT71siw27Ke/Hbgt/i49KPkWr+Lkm/BA/lPYR3Tr6D2UWzEfAFrPuvO//aObth2LHrdvKeaRT2maehsOPJm41RAJPQN6YalRUV9rvDMovTPyclxfYdjqQAjgWf+RbQSpgWv1T+ct3fRHLg+El0zsty9lomf17hQ5JJ4i9cdrqy4Hzk8JFjLKzRoV3D9cpzDlMfMxUwe3/nM5yuvNTcanOQZaqF53fqxUc85b8UwPHBwcNuvZ3fPLfdmijot9uOY7uJ267QjeLWY912ndu2c4XtOdeNv+c6vGfOHMW245lQrjI8Kp3Zt8B+gVjfj3iso4UQQgghhGgpnDYF9LJly+yvFMBCXFiEdyYRlQfiQkfvhWipxJM3G6sAdvEOqohnQEVjFcBCCCGiE0/5LwVwy8Kr/HUVwBy0y21+a93jxFXy8rvrWia7CmCvElgIIYQQQgghotHkNYCFEOcHkTqThLjQ0XshWirx5E0qgM8WUgALIURiiaf8lwJYCCGEEEIIIS5cpAAWQlik6BLidPReiJaK8qYQQlyYxKsAvlCRAlgIIYQQQghxoSMFsBDCImWCEKej90K0VJQ3hRDiwkTlvxBCCCGEEEKIWPDNnz9fCmAhhBBCCCGEEEIIIYQQQgghhDgPkAWwEOKc5tChQ86WEC2Pjh07OltCCCGEEEIIIYQQQgghxJlBFsBCiHOKK664wtkKQQVw//79nT0hWg6bN2+WAlgIIYQQQgghhBBCCCHEGccqgPPz851dIYRouezYsUMKYHHOIAWwEEIIIYQQQgghhBBCiLOB3/kVQgghhBBCCCGEEEIIIYQQQghxjiMFsBBCCCGEEEIIIYQQQgghhBBCnCdoCmghxDmDpoAWTeXoH36DY8/9HsGKcselfnypaWh734No941vOy6xoymghRBCCCGEEEIIIYQQQpwNpAAWQjTIl778FWerLn/58/PO1plBCmDRVDaNuQQdvvRl+FKSHZf6CVZV4vCf/4IB7611XGJHCmAhhBBCCCGEEEIIIYQQZ4NzewroXc/g7rufwS5nVwjR8ln83nv4xS/+B5WVVY4LzHYlfvE/v8TKlSsdFyGaB1r+UvlbWfxJTOJLTonZWlgIIYQQQgghhBBCCCGEaAmcrgCmUrV/f/R/ZLHjEGLxI8atPmVrPMpYNwyPhAUnhGhh0NrXK41lw/oNWLN2LR6f8bhVAlP5+8tf/j+sWbMGq1avds4SMbF1BkaPnoGtzm6Lp7ni2wR/k7LbOVu1RHITQgghhBBCCCGEEEIIIc4VIlsAD7sH92x6Es+42txdz+DJTcMwzNmNSM/7MWvW/ejp7DbIsIexYPNmO0Xm5gUPY9ODUgIL0dLg1M/u9M/udrTpoGNlypQHcdVVo7F27Sf4f4//P/ziF7/Euk8/xTXXXIOvf+1rzlnNSFOUkOeawlXUS1J2e+R+6b/QauwXHBfYbbrxmBBCCCGEEEIIIYQQQghxLhJlCug+uH4iMPfdkAZ48R8ew4CJxsFh1zN3e6x37w4pil0LYOf3GVoMx2rdS+UxlcBPOhbEdSyEH0Ht5YvxSI278fcjx5ksfsS4OXERQrRY/H4/Hpo6FaNGXYlPPlmHz9Z/hquuuhpTHvyGPdai6TsNS5ZMQ19nV5zbVBcfQekn7yBj+A1W8Zt19WS7Xbb+fXtMCCGEEEIIIYQQQgghhDgXiapt6XX/tzDgsT9gsbX+fRjfuM45YOh5/6yQ5S7l9wPw2B/CNLxrHsO2693j9+BFV7FbHz3zMWDNNuykknf8Yxjw+9D1Cx7ehAetBnkXnrn7QcBxpzx6eehSqzC2h2bh/phNkIUQsRBp6uemWgFXV1fjRMkJZw8oKSkybgFnrznZihn3TcfSpdPRz+fD6B/9sK5Fr2vh6/zOmOqDz5xHmTovhuOExxw3K17/Xez1UzF1tHutiVfNtuecGn+mwnWu497P3IvjXPf80ZgRzUw54nnzMNXsj3YvsueEjm2dMdo513M+j9cX/7DjNe5eYoxvnfBr0jIU3xq/nU/Q65GeRwOc/HAOTq14wyp+My+biNLVb+HE4heco0IIIYQ4lwkGgxKJRCKRSCSSBIsQQohzg3rM7cbi+ntexINUxn4rbGpnr4Xugy8Cm3bUVfAOexjfGOts9+pT/9TR4ezagU2e63teNxHDXnwbi3e9i7nw+Ouy5jGMH78N39r8qImxEOJM4FUGx4u75q877fPo0aOsJbC7JnDz0hfTnnsco0Y9ji2mwrrk/nqm+V06HRsmOZXbuVMw89EwRW7E4/Mwtd90DJ3ruG8xYTmnn8bSdRj0nHPtxPsAdzuCP1seX4eJVqMZzX+6b8AjdLPud2PWfREUz1HPm4CnjV+Y/gtzBpXks3D3liWY1pdGz0tC51LmDjWnOJrVeuPvOW6v4zkeJXas8d06A/dNH4q5znlzh27AFsZvNKeocK418jQL/4aeV334fM6GS/i+EEIIIVo6br3AKw0R6RqJRCKRSCSSC10aojHXCCGEOPPUO9/q2G88jGG4B9d7NatU/o6fi4kLHEvcBTwnAVjFbx/0cnZjZtjD+H2NlbAQoiUTCATwy//3eI3yl9M+/9NDD9WsCTzjV79yzmwBjHoc/zrB2e436HRFbqTjWzdhndfdg9eSdfQzR8z1d+MWziXNa73b9uS6/vS95W6MmvkK5kXzn+6YiYmO/9YyeCmVpWHh/uiDqOdxeuvnqGj29cOsu5+zyl+L11J34kxg3aaQYrW++BPXjUyYhCkm5E3uSKF64luHvgMw1J4XUh5PePppTNj6OmYhQho09LyiwGmfXctf1xK41dh7zREpgYUQQohzgWidjt4OSYlEIpFIJBJJYiWcaO5CCCHOHvUvuMm1eSNZ1g6biOsck+Bd787FmtBmE3CmfaalsZ0K+jG4s0pb/++5HmN7XoeJqHX30uv+Wfg9HsTdWgBYiITD6Z690hS4xu+IEcNrlL/cd9cEvvrqq3HV6FjVdi2ULRtqp2QOw2tJW6/lcWMZFbJqdsMIBp8G9aGnhRvlPNJ3wFBny4HK3360BnbOrc+iOV7qiUctE/C0PTYJr1hlsdeKuOkkZbdHxtDraqZ95nTQ3E4ffI051s45SwghhBAtEbcO4aW2XhFy9+57hYMSKZGOSSQSiUQikVzo0lBdKbye5SWSmxBCiLND/QrgSPS8H98a8BjGO1NA/+u2AY2zAObUze400v2fRJ8Fm/Go1TSPxaMLHsamB0PHxj82AL+3B3ri/l/UulMe+Yjnhxj76O8x4LHxUgILkUC8a/96pSncMH48Hpo6xSp+Xbj9Tw9NxejRox2XZsZrberZ3vr6rKgK3JigpevSWXg95rmHo0DL16XT4c62bOM1ZRImWPda/2viG3Z+VOo9bx6m2pmV52Lo9Ptq1+T1WPI2On3mvYKZ9MddS6C+eFiLY0fRa7an2ohQEbwFj49ah024BXcjhnuNgeriIyj4y4/rrPnLbbrxmBBCCCFaJg11NLr74SLFr0QikUgkEknsEosimITvk/B9IYQQZ57TFcC0+p0VtuYv8biPfdSZ/tnIrEcfDbm7x8Ovj+Qf3ZzrQzIL93tPqHPcY4Ecdt2jk71+j8Wjxm1WHY+EECKMvtPwyJTQ9MOjX7/FmfY4NBXxfRuGNtHCdQKe5jq5/TxTGztH4iO0Ju+6iSF/+k0firlP0z62rv+18a17vpXRkdbAjXbePEz1UftLK1w3jKmYx7QaOh39nHPjSp+ltddZr5dMgzsjdMzx7TsAJiLOOe7U1KF1nL3XTm3CCgDVxUedrVoiuQkhhBCiZVBf56Lb+Rgu4Z2X7r5EIpFIJBKJJLpEq0uFi4t3m4TvCyGEOLP45s+fH8zPz3d2hRCi5bJjxw5cccUVzl6IQ4cO2RkBWiTzpsL3yiQErfL2AoJWvPcBz9VR+rYMNo25BB2+/CX4klMcl/oJVlXi8J//ggHvrXVcYocDlTp27OjsCSGEECIRROpkjPXXJXxfCCGEEEKcDgfde3H3Y/0l3m0hhBBnFimAhRDnDOeCAnjeVB8mznR2MAVzI65te57TghXAR//4JI49OxPBinLHpX58qWloe/9UtPvaNx2X2JECWAghhEgsXsVtJCVvtO1wvG6RjgshhBBCXKg0pLz1KnmjbXt/iXdbCCHEmcMqgJ1tIYRo8ZxTFsDigkYKYCGEECKxhCt1vb+uePddwo95f4UQQgghxOlEUuiGK3XDj3n3I/0KIYQ4s/gKCwvV8hVCnLNIASxaKlIACyGEEIkjXKHr/kYS95j7W98xIYQQQghRl0gKXK+4bu5vJHGPuXi3hRBCnBmkABZCnNNIASxaKlIACyGEEIkjkvI2koQfCwQCEY+520IIIYQQoi5eBW74tt/vr9kOPxYu7jHvrxBCiDNHwhXAVMYIIUSiiaZIkwJYtFSkABZCCCESR7jS1lXkUlwlr+vu7vM3FgWw+yuEEEIIcSETSWkbvu1VAHOb4h6Pphz2/gohhDhzNIsCWMoYIUQiqU+RpjJHtFSYb4UQQgiRGKIpbfnrVfjyt7q62v6GH3PPp7jb3l8hhBBCiAuZSErb8G2v0pe/SUlJNcfcbRLtVwghRPPj6lJqFMCJtNylMubRn/3K2RNCiMbzyA++KwWwEEIIIcQFTrji1pVIyl9uL1iwwJ4rhBBCCCESz3XXXWcVvq64imEKlb2uEO+2EEKI5sWrS6mjAE7EVJWuMoYKYCpuhBAtj/3796NLly7OXsvFLUdiUQBr0IkQQgghxPkJFbsu7rb3N7TtKoQp1ThRdBy//tX/2HOEEEIIIUTi+Ofv/gsyW7WBr8YCmIpfV+lbOyW095dICSyEEM1LuC5FCmAhLkDOVwXwI9+/3XEVQgghhBDnC+HK3pCE9r0WwNXVlGpUVVVh0fsrMfmeb9jrhBBCCCFE4pj94h9w5eUXISU5BcnJSUaSa35rLYBDCl9XiBTAQggRhZQeKCoqcnYaxxO/feY0XUpoSI4QQgghhBBCCHGO4CqCvduuIphWwEIIIYQQovmorKxCVXWVHYDn1r/cgXluHU0IIcTZRQpgIYQQQgghhBDnJLXK37qKYCGEEEII0XxwxpWqqmpUB6rrKH5VDxNCiJaDFMBCCCGEEEIIIc4ZIvUrejsdA8GA4yqEEEIIIZoDKn/DFb8UF8+mEEKIs4QUwEKIC44uPa90tprOheAXUZrFx4XgF1GaxUdL9YsozeLjQvCLKM3i40Lwi7TEuLGzccBF45zt0L4QQgghhGg+qqurrYSUwLX1r/z+Y+xvIrgQ6tcXgl9EaRYfF4JfRGnW/PgKCwtt6Xzo0KGahYGbAv3p378/Hv3Zr+yCw+cd86bCN3Gm3ZwyN4inJ9jN5mHrDIy+D3huyTT0dZxEM3GBpfX+/fvRpUsXZ6/l4pYj3oXLw6lT5nz/dsdVCCGEEEKcL7gdivx1OxldixP+Urj+HDshuR5dZVUlli5fh8n3fMNeVx9L3nkVm96eAX/xVrMXCic6PgSy+2LA9dMw+nO3OW5CCCGEEBcWs1/8A/r37Y709DQraampSE1NQUpKCpKTk+D3+634fHB+zYbB/RVCCBFGSg8UFRU5O43jid8+c5ou5cxbAFOBagr7Gpk6zzkQJ1TYjZ4BNtMbRaOun4epE9fh8S2hKS3qKH/pn+e+Rs8wPjc1jrHgDaNR4W3FjNGe5xF+D2eKsPQLyWicyShc0DjpX+eZx5KfGpXnhBBCCCGESByOfrgGV2HcEFT++hbfjwd6LcJXL95rZF8Dsteey2t4rRBCCCHEhYo7GM8l1vqXEEKI+Fm9erWzFR9nVAG8dcZo+CYCc80HgR8Fyly8gkaqgM88WzdhHYZiwGkmovMwtd8s3O0ohoPBuRi6YQvQdxqWnEmL0kaF1xfTljjx3vI4Ro16HFucZ7Nk2hm2hfWEHZIlONNRuKAZNQVDZ90npbsQQgghhGhxuG2EaNS2IWLvfNy4wLR/uhY6ew2QlgdMfAvoPBZXdinEZ2/9yjkghBBCCHFhEkv9K976mRBCiLq4yt/GKIHPoAJ4K16fBTy+5Wl4DWcnPO3s17EAnRpSCjvWhTOm1lqFhgyGt2LGfdOxdOl09HOtFutc71iOxnO9l0hxsUpecw1mYiLdT7N69CqGJ+Bpmgc74W+1v1Mx1bG0nTqv1urWxsc9L3Tx6fsGqzyviZNrGRt2Hz/6Ye11ke7B8ff09IhEKI61x839+/KRP6L2PupcXye8WsvdOvEOu6fYYLieZ2TDCfkfMU3sPTaU1lHuwaXZ7qWlMwj/+shQTP9FhExRJ03cdyLCexQl7YQQQgghhGgOInUoxtrH6C/ZjspgMgKt8oHxLwFj/wSkZDtHPaS3B255F+h0NYJJ6SiqboNAyR7noBBCCCFEy2bmzJk4evSos3c6PMZz4iFyHUyKXiGESCThSt94lcAxKoC346nxOZi2oHY7JycH45/abo/GxNbXMWtpJOtZElKuDp0bGhG05fF1mOhq5ZZOx4ZJzmiiuVMw81Eq3vpi2nO11qpLpm0x12/AIzyHsuVuzLrPUdDFdL03UtHiMgFPey1k61jaTsCkKY5i+DRtosPSdRj0nBOHiVxs1hufhuk7bUnoHux9uEq6sPu4v33o5LjTMxLG70fM8Vec6+a9gpn33IDOq537cK+fSGUgw4uQ/ltn4L7pQ2ssvucO3YAtId8i4ygS6ypZQ+lubtiEQoUjLa1DlsGR04T+NJDW7nF7nXsPLgm6l3OVCU9jLiaGKcWj5ac43kMhhBBCCCFaGGWBVBRU5aHisv9B5fHNpnWcAgz+J+eoQ3oH4JZ3gDb9EHzrdhTtXIaKYJqt70Zix8KZtgM1XOasLnDOEEIIIYQ4s9xxxx145dVXIyqB6cZjPCdeotWHhBBCNB2vsnf48OHOVnxK4BgVwNuwecX9uHm82VzwBB4eMhuFhbMx5OEnYHXCsTJqEPo5m3Xg1MqjHse/OqbBfW+5G6NmOlNDe9zRbxBGOZt1sFMzOwpYCi11lzoKuliu91JfXOphwtOO0mvSK6E4hCuCR92NW6gxZhy82/ZgDHgtKyfOBNZtiq5Ya2p6ukyYhCnOdfNemYkp4wfV3gfhcZPymxZGSf++AzDUuocUrDXW3tEwcbPKdVdcJXvfaXiOSkdfP8y6+7naaaGjpUlDaR3pHnY5+9HyUrz3cg4z4V8fxzrvwIBY34n63kMhhBBCCCFaGH4Eke4vha/8GKpzhiCQbRoJuabN45LREbj1HSC7D4LvfBEnio5Z5W995I+bgilTKOPRB3kYOTm0f9fwXOcMIYQQQogzS7t27TDptttOUwK7yl8e4zlCCCFaHq7y16sEjpW4p4Be8MYzGNm/j9nqg/4jP8OWWI2AqUBbOguvN5c5YLjyMHiWFHQTnjZhz61RnCYEKjq9awzTEtk51LyELJtfmTcPr8ycgkljHedIREz/CXjabk/CK1Yp6LW0jY++A4Y6Ww7NmSbNfC8tHirc756FX7zu7MdDS3kPhRBCCCGEaIA0fzmyk0rgW/5vqNy/FNUHlppm7j3AwAeBDMfyt3Vvq/zF4G8h8/OmgpycAR8CSPFVOr4IIYQQQrR8wpXAUv4KIUTLJ1zpG68SOEYF8HjMmA1MzsnB5Gfux799s3fIEhi34yazGRsT8K+cybdfXcXZvKlm3yqHp8OdwXfr67OwdMqkhhVHrnVh2PUxE8k6sTFxoTLSa/FrLSajWDtHwxMXG6azXYPHavW04+H30dj0jIC1Bp04Eese/9fTr+e00IzXuCjpb9Jlql0ElsrTLXh81DpsatQAgHmYOhGYG5yLodPvq11Xtr40iRX3Hno6+9HyUsLu5dyg77RHzMs6PZSmDeWnpr6HQgghhBBCnAWqg0lG/CirqEbpJ39AxdIfAm9+HijcBNy8EGidX6P8RecxKFn8b/BVnUROciGSfdWOL7GyAwtnzkHtTNDefWd79cLIU0YXrMacmumkF5qzSeiahQvnWDchhBBCiIbwKoGl/BVCiJZNNGVvPErg2C2Ax89AYWGhkRngTNB2f8E3EbP+18A1W+36oe4UsUYmgoqk0Dqv6yaG3PpxrdWnG1BX9p2GR5x1d0fP6Ffneit2/dh6qHO998zGxOUW3L1uYm3YtEx9zrtGcAPUTHEcuv6+DUPrWrMyrkNr18etc9x7H88ccRwbcQ/R4L2NGoW7XU3rUs86vVTK2mma64ZnhenfdwA1/o5b2PTNkfD6bWU0Zmydh6k2IMcKl2v9chBBfWnSEBHvwSVB93LOw7SeUrsdLT/VeY8a8R4KIYQQQghxlqgIpuBYVTuUBTPsfmkgA4Gjq4GrnqiZ9tlV/ha9NRVJme3ROqUMJdWtrfI4sRzHiuO9Q9NHj++D4ytW1Sp6Z29DH2cq6SmmMb6yRjl8HAV544z7OGdfCCGEEEIIIYQI4SssLLSrtR86dAgdO3a0jqezANNy3sDNrvLXsh1PjX8C/RZ43UL+9O/fH4/+7Fd45AffdVzFOcu8qfA9OghbqCSlpfN9wHN1FKbnGOfDPSSA/fv3o0uXLs5ey8UtRzZv3hy1fKpT5nz/dsdVCCGEEEKcL9QuL+IKEAgE7HZ1dbXZDv1SKiurUFFZieUrPsXke77h+BCZP3wrH3cPOWa3y7m2b2oOcib9HSm5/RF85wt1lL9pPa5D+uCvoPjNB1C+fR5e+qw1HnqqvqGOtNBdibzJdyG0/G99+/Ucw2rMmb0Cx+ns0mc8qPOte40QQgghRP14p30mjbUCnv3iH9AnvwvS09OQmZmBtNRUpKamICWFkgy/32/F50OtkYgjQgghIpDSA0VFRc5O43jit8+cpkuJew3gusSxBrA4J5n3ykxMeSSRylJa9Nb98IeE1r7OKUIIIYQQQgjRzHAd3+zkEiuc1jnrkm8AlaWofutOVOZehkp/axTNn4Kk1Cyk5vXFiQ9/bJW/5Mx2X/bBeFr/ujIu33EXQgghhIiN8DV/vdNB85gQQojzjwYUwLTyzUFOzmQ8Y/64BnBOjYzAw0P+DVwOWJy/THg6iJrZo/tOw5ImW85OwNN1Ru+7suTMTKmckHsQQgghhBBCnDf4kpEy8CtILVqL6n+MRcnOD1H40RMofPnzqNzxBlK2/AEFL30epWtn2tPTfaVI95fZ7djJQV7ecRwvdHZ3bMc2Z7NecnOQa86snfZZCCGEECI+wpW/LlICCyHE+U0DCuDe+OYCrvsbRWZ4J38WQgghhBBCCCHOFRw73sH/BCRnIbnDCFR2uw3JI/4daX1uQUpOPtqM+gGqBn8X/g6XofXnfoVWnQajdVJJ7bUxk4vhl/bBtgUzMXOmke20642FfIybPBJYMTt0HWVhaHVgIYQQQohYeOmll6JO9ewqgXmOEEKI84sYp4AOWQJPW+DskgXTkDP+KXNECCGEEEIIIYQ4t6hu7ahgk9IQDFQi0P5yBJJaIbntYCTl9EWrrAxUZ3bHqU+fR7C8CMlJQHKbniiozkVVq4bUt/kYNyVsfd78cZ5pnMd5joefG7afOxx3nTYFdAT/hRBCCCEiwPpDJOWvC4/xHCGEEOcXMSqAt2Hzivtxs9fgd/x38BhexpvSAAshhBBCCCGEOMcYOH46lu7LQXD9b1GW0RflRftQseddVO1dhIxUoLjwOCr3L0XGxQ8izV+O4MkDOHF0N1bsa41BN0x3fBFCCCGEEEIIIVoeMSqA+6D/yGfwhtcCePubeHnFEPTTGsBCnHN06dLF2RJCCCGEEOLCZPTnbkNw7DP43y1X4Lk/PY1nf/0I/r7GjxfnvIT//ePvMfujk/jrnNfw17/+BXOWHMaf/vAU5qxJRutxT9hrhRBCCCGEEEKIlkqMCmCuBTwbmJyDnBxHRryM21fNgFYBFkIIIYQQQghxLkJF7tf/70JMfXILHnpqq5WvP7kLDz65vWZ/qpH7f7PXnjPlZ29J+SuEEEIIIYQQosUTowKYjMeMwkIU1sgCfLOJ1r/BYNDZEkIIIYQQQgghhBBCCCGEEEII0VRiVwBvfwrjrfXveDzFdX8XTEPO+KfQ2CWA161bh8WLFyMQCDguQghxZujS80pnq+lcCH4RpVl8XAh+EaVZfLRUv4jSLD4uBL+I0iw+LgS/SEuN28Ch1ztbQgghhBDibNF7wFhnq+lcCPXrC8EvojSLjwvBL6I0a35iVABvx1NTOeVzIWbf7ziN/w4ew8t4sxEaYFr+Hjt2DAcOHMB7770XvxJ46wyM9vng88jUec6x+uB1o2dgq7ObEJrDTyFEs7J/1zJnq+lcCH4RpVl8XAh+EaVZfLRUv4jSLD4uBL+I0iw+LgS/SEuN28Z1bztbQgghhBDibLF902Jnq+lcCPXrC8EvojSLjwvBL6I0a35iVABvw+YVQ9CviVM+u1BhO2bMGHTu3LnxSuBRj2NLMGiVycEtj2PdxBiVwEIIIYQQQgghhBBCCCGEEEIIcZ4SowJ4PG6+/xm8scDZJQuewMO4HTc1Uins9/ubrgR26TsNS6gEfjRkibt1xmiPdfBozLDmuVsx477pWLp0OvoZ99HGMfJ5Yde71r11rI5j9FOWwUIIIYQQQgghhBBCCCGEEEKIM0jMawCPn7EK/f+/HEx+ZgUeHpGDnMnA7AXfRFOMgqkEvuqqq5CammqVwBs2bHCONIK+AzB06QZs4ea0JSHLYMrcoZj+C5oG98W05x7HKMdyeMm0vpHP2zoD900firmO+9yh9HMepvbbgEfcc7fcjVn3Ubkb5uctr0e4VgghhBBCCCGEEEIIIYQQQgghzgwxK4CB3vjmgkIUFroyA+OdI42FFr8ffvghKioqrCXwoEGDnCNNxGutO3EmsG5TZEvcSOdRkYyZmOibCqqNJzz9NCZs3YR11s05tx+tfiModyNdGzoihBBCCCGEEEIIIYQQQgghhBDNjq+wsDDIjUOHDqFjx47WsZYFmJbzBm4uvBlv5EzGM47radw/G4UzQupg+tO/f388+rNf4ZEffNe6RYLKX077TMtfKn85HTQtgmOCitv7gOeWTENfx6nG7Tngvn6zcPeWJZjGg95zw7ejnWc9nIepvomYiSmYu2UQHg0Pz+W064jn2qCUwEI0Frcc2bx5c4TyKUSdMuf7tzuuQgghhBDifKFm1qYaCbUnuV1dXW22Q7+UysoqVFRWYvmKT3HDTZMdH4QQQgghRKJ4a95s9OndBenpacjMzEBaaipSU1OQkkJJtn38FJ8PIWMqjwghhIhASg8UFRU5O43jid8+c5oupQGN63jMqLH0vR+za6x/vTIb9z/zBrzLAzcEG+qNVv5GhFM0T8fQRxwl7Ki7cYujjd36+iwsDW2G8FruRjpv6wxMtQv8TsDTwS14fNQ6bAKnl54OO5N0JFw/I12rRYCFEEIIIYQQQgghhBBCCCGEEGeIGLWuXkVwOPUdiwxH+7Rt27Zpyt+l09GvZvTQoxi0JYinaWrbdxoeGVp77L4NQzEqdEXo2JTQVM6jX78l8nl9BwDT+zn+9sOsu5/DtL4T8PSWx7FuohuekdFcAzjcz9YRruVJQgghhBBCCCGEEEIIIYQQQgjR/MSheeV00DnIqZHxeGq7c6gRDB06FGPHjm2c8rfvNCypmf6L4kzj7DDh6dpjS55+Gks80zO7x5aYCyKfR+tdj7vrcXiYEf38euRrhRBCCCGEEEIIIYQQQgghhBDiDBCj9nU7nho/GZjtmfp51e14ecS0uKZ+DoeWskIIIYQQQgghhBBCCCGEEEIIIRJDjArgbdi84n7c7J3nufdNuH3kZ9jSBCtgIYQQQgghhBBCCCGEEEIIIYQQiSNGBXAf9B/5DN7wmvtufxMvrxiCfr2dfSGEEEIIIYQQQgghhBBCCCGEEGeVGBXAvfHNBbOByZ41gEdsxr8VzoDXKFgIIYQQQgghhBBCCCGEEEIIIcTZI0YFMBmPGe76v1ak/BVCCCGEEEIIIYQQQgghhBBCiJZEjArgBZiWM838L5rE1hkYPXoGtjq7QgghhBBCCCGEEEIIIYQQQgiRSGJUAI/Hdx77rO4awGcTKlJ9Pvg8MnWec6w+4lXA1heOlLlCCCGEEEIIIYQQQgghhBBCiBZGzBbATzy8As941wC2chatgkc9ji3BIIKULY9j3cQYlcDxEi2cvtOwZMk09A2dJYQQQgghhBBCCCGEEEIIIYQQZ52YLYDrrv/bwtYBpjKWytlHQxa5W2eM9ljtjsYMa6a7FTPum46lS6ejn3EfbRwjn1cP3nA8FsB1/KGbPTYVU0e7fp+unI4aR3NN7bnzMNU5dloYzhlCCCGEEEIIIYQQQgghhBBCCOHSsAJ4+1MY3xIsfhui7wAMXboBW7g5bUnIYpcydyim/8Ka7GLac49jlGPRu2Ra3yjnNYAnHMvWGbhv+lDMdfyZO9Q5tnQdBj3n+j0FMydOhdf3qHF8xJz7inPmvFcwc8ojmIYoYQghGkWXnlc6W03nQvCLKM3i40LwiyjN4qOl+kWUZvFxIfhFlGbxcSH4RVpq3AYOvd7ZEkIIIYQQZ4veA8Y6W03nQqhfXwh+EaVZfFwIfhGlWfPTgAJ4O56a+jCGzHYsfmcDk6e1WBVwLd61eyfOBNZtimwxG+t59UGFMGZioi+k4J3w9NOYQPdRd+MWd37oCZMwBeuwaZezT6KFzXNnvmL9mvfKTEyZZHyLFoYQolHs37XM2Wo6F4JfRGkWHxeCX0RpFh8t1S+iNIuPC8EvojSLjwvBL9JS47Zx3dvOlhBCCCGEOFts37TY2Wo6F0L9+kLwiyjN4uNC8IsozZqfBhTA27B5xf242Z3nefzNuP+ZN1qmFfDWTVg3ahD6UbHabxbu3uJY1255HKOcU+oQ63nhuOE4u8AEPG0tcyfhFavQrWvpG5F6w56ASVNm4pV58/DKzCmg/rdRYQghhBBCCCGEEEIIIYQQQgghLjhiXAO4pTMPU/tNx9BHpsEa3Xqsb7e+PgtLQ5shvNM313deRMLCIVtnYKpdwJdK2i14fFSYpS/hVM4Mq6ezT+oJe8K/Po51Eydi3eP/GrL0jRRG3KbKQgghhBBCCCGEEEIIIYQQQojznRgUwM9gcs0awJPNnnf/LK4JvHQ6+rlTKPsexaAtQTxNbWnfaXhkaO2x+zYMrbWu5bEpnErZh9Gv3xL9PC/RwnHpOwCY3s853g+z7n4O06jo9V43EZi7xKM0ri+OpO8tuHvUKNztaogjhVHjmRBCCCGEEEIIIYQQQgghhBBChPAVFhYGuXHo0CF07NjROjYF+tO/f388+rNf4ZEffNdxvcDgFM/3Ac95lb7xMG8qfI8OwpbGXi/EeYJbjmzevDlq+VSnzPn+7Y6rEEIIIYQ4X7DL5tQRIBAI2O3q6mqzHfqlVFZWoaKyEstXfIr/n73/gY7qPPA87594jfxn3GllOhneZeYNWK5CYEfbabX9DtLOMaGJWCRrWTQTlFlODkcZ3KqzzFkidWw2kIacgYnJ2n5bFfYsOVKbbg1Jsx3oHlhWlhgUmsbbr0QWL90T2Ragigzv7LiHnkxbdKdnMmDQe59bT1XdKlWVqlR/VfX9+Dzhuc+99dxbV7qSop+e59m8ZbvtAQAAAPlyYfS0nq5fqccee1RPPPG4Hq2tVW3tci1fbsojWrZsmVtqamQHNMUKACCJ5Z/R3bt37cbiHP3u0LwspUKmgK4so2cH1eOdZhoAAAAAAAAAAAAAMsAIYABlixHA1emv/uq+3p+atVsAUDyffbZOTz653G4BKBeMAAYAACgfjAAGgDwr0AhgAmAAZYsAuPrcvXtfm9v/lf7Pq//etgBA8fxXLSt0friVEBgoM+UUAF+8eNHWsJBNmzbZGgCjXL9+8KwCYZX6Pb4QzzgBMADkGQEwgGpDAFxdHjyY03+14S396P8k/AVQOv/gv1qh/+NSu90CUA7KLQB+7rnn7BZSeeeddwiVgATl+PWDZxWIqcTv8YV6xgmAASDPWAMYAFDJ7t9/SPgLoOT+5P97x/l65P59JAAAAAAAALAkVfcI4FBQLTulE+O98tkmAOWDEcDV5ec/f6DHP3HCboXt+orf1gAg/8yowYt/9Of6//2bv7EtYf+oc5X+1+9v1PLl/IU6UA4YAbz0MKoQmI8RwEB5YwRw5hgBDAB5xhTQHvOC25CC4Qb1ZpLkRl5/QtpJAAyULQLg6pIYAP9q0y/pnStb7RYAFMZ//s8P9emVJ/XXf33ftoQRAgPlgwB46SFUAuYjAAbKGwFw5giAASDPmALaw9ehLp3ScMhuh4adrS51ZJri+no1TugLAABQ9R59dJn+X3/vb9mtmD88c1v/3ZcvMR00AAAoqb/50z/Vj//BP9DdP/5j2xLzV06b2WeOAVCeeIYBAKWyRNcA9qmjSzoVSYCnp6SujnCga0b3Rv+qqEVBc4hpawkqGDBtAY3a7Uh+7Ip7nXOMbY5vd0ri6wAAALCkOT/iJUUIDKDi3Dquzs7jumU3AZS3v/7TP9XtvXvV3NOjj06c0KwnQJq9dEk/HRhQ83//3+vPX3vNPRZAeeEZBgCU0jIzfaopRqSeSykWX0OjJqam3fro2UE1Npj4d1QB/5QORKYGm+7SqZ02sJ3o09Q20z6gNrMdx7yuT40j4ddN90+qPWAi4Pj2uel+NYdfAAAAgCpACAxgQSZUXbVKq6KlU8fznbCmCm7ntd/S8c4CnB9ASby3e7dWPfec7v3FX8j//HOa/V9/Vz85d043z5zRX/6LQa1pXq97f/7nembri3rvn+62rwJQLniGAQCl5I4ANutn5rMURds29Qye1ahCujHZo20m1Q3d0KQG1R4Zrevv08TElNyYuLlfr8xPfsPM6zz7fR1dajZ9J7QDAACg8rW3/T1bCyMEBrCgpoO6fPu2bptyuUPDG/bpkt1VUKs3yTmbLkYC31sXna0ObVptt6vCmHrr6lTnLb1jdp9j5phaTVvrMc3YpvkW6AMoEd+RI/qzsTH99N/9W/3lzAf6O393tX78+yd0/fT39HdWPa2P/s3/rY/ufqT3xs7L9+oR+6oyE3kG40qrjiU+kAs9q5n2A5SRiniGAQBL1hKdAtpo07aeSd0YHdapxm2xUb3N/ZqOjAB2S7IRvxmantKErQIAAKA6/MtTmwiBASze6nqttVVX3Ajh2OjcW8c7Y6OGI6N4kx57S8f7DunatUPa4LR3xg3vXa1NHdJwJAH+ICR1bHJaE/pPHJWcOHLYu53N9ZacCW63a0jP69Vrs5qdtSXYavfVqa5pv66GD04hXR9AaX3q85/Xmjfe0M3/64r+40//nf4q9IFaPvlpra/7tP7Tn/+F5n7hcd289iPV7XzJPbasPf+qrpln69qrztN2Vfubep2nz8j0WbVS9gOUn4p6hgEAS84SDoDNIOBG9bX3qdEd/uvwNahxok+vRxfwzVDC60LDpzTRs01tZpTxxClFlhoGAABA5Xv00WUpQ+A/PPOB3QKAFC5d0Mkmn54Kb2jfhpD2eEcH9x3XrVvH1XdorYZs+9DakD5IdaxWa1f/QTXZUcZndsUP711dv1bXQuGvTZcunNTa+vD+1bvOhPsxZWitDg1kMiY5m+stvZljr2nI+ff5Vwe0uz7cFtOqoAmJTnfb7ZiZY63u6MHWYzML9AGU3qc//3l95uCrmvnJdd3/m7v6z//uL/Tzj/5Ks3f+nf505H/T33vlN91jlox6v5611bDMntV55vUDlKeKe4YBAEvGkg6A3Wmgnf8i+a8ZFTww3a/JdjsFtCktdg3gtOJf5+9r1MiA6dRpH2lUn9/2ZaaUDr8AwBK2ctV6W8tdNfRlcM+yUw19Gdyz7JRrXwb3bD4TAv/hD35N69b+om0J+9+H/01V3C+jGt4nfWWvXK9tbeMXbK1E7Ohcd3TsUZ8un9nljsLVrRld10l1R/ZtMCN5Q/rAHSVs2sNTRW88ckQbUx1r+kln42btOHnB6eeWZq7v0OaNtt07krf7pHR9ZuFRu9lcb/gVJfWTm+Hxgs/6F5/c5qMPoNAeOuXexx/r/vUp3X/nHd0fH9fyf/MTqWaZHswtsdlJZqb1nvm3+0XlNM4+X/0ARVBRz/AC6hs22FruquHn62roy+CeZaca+jK4Z4W3tANgE9AmTvHs69W4dwro8V75TJv51x7iHpPYHvc6T59tA7G+RnqkxoZYPwCWpA9vX7G13FVDXwb3LDvV0JfBPctOufZlcM+Se+yx/4dO/O4LdivswYO5qrhfRjW8T/rKXrle2/XJH9paiUTWAL58UE2Joa13fWC3mPB0o4649c264Iatds3gpMcuZKM277iumUsXNbx2c/h4E/5uGFbHZduPuS732Axkc71LVP3uMXea5zGG/GIJ+PCP/1jX939Nn/2r/6hP/uw/69FPPK7HfuEx/eJ/+Jk++9f/Sde/8bJ7TNm7ul9Nkameu09nNM160md1Ef0ApVQxz3CGZm5ctrXcVcPP19XQl8E9y0419GVwzwpviQfAhTcasKN/TWmXHRkMAACAamBCYADI2OpdOjOk6EhZdz3ga4c0b/blW8e1z11c1wSrl3Ww6bpmlOLYiDSjgTduXqtD3Ye0Njr819HUoU12tuhbF4d1LVyN8fQX3Z/N9ZbBIsBPr3ne/fe96STTw2YoH30AhfJv//iP9acvvaQXfvZzffqvf64nf/FJ/dYTT+iNX/gFPfmJJ522/6QNzr6bB/bp/y73AMms3euu2+sY2q7exS7cm69+gCKoqGcYALDkEAAvoG0gMio4YWQwAAAAAACJNh7R5YPX1b2qU8dvbdSRywd1vdtOqWxK53HdWl0vHdpg2zZouKNfu1anONb0uXqX9uwIT83c6QaxCcw00M5/0fzXHL82Ni11X2ht/AhgZ3+/e42J+7O5XvcFJVW/e6/MqqFX9weUbInQVLzrii62D6AYJvbtU/v9+1rxV3+jJ+o+odee/AXt/PoB/Xd9e/Vbn/iEnvjFT+jv3P2Zfu3jh7p64IB9VRmr360xu9bv0PbWBZ+5lGsAZ9kPUCoV9wwDAJYUAmAAAAAAABbLjPqNrPlrrd51RrdvnwmHpGa/d0pl91gzkjbWdiaSpiY9NmzjkYRj45j+4qeLjhzvvubIkfA1eq41fI0J+80Ls7nekmtVcPa0unVV+5vq3KDILe6QwDH1mvr2ofChdtrY+aMF0/UBlNaGY8c0/Lf+lv7y7/4X+u4nPqG2r72iz3V26v/d1aUX/oev6rfrflH/4ZN1Gqut1T84etS+qsy1BhXObs0zZ8LbTJ/VBPP6cVuBslKRzzAAYMkgAAYAAAAAAEuUCXBn3XVCo8VdEzRJu1PMrvnriqbqAyitT//Kr2j97/2e/vCRWv2XL+9V0z/6R3aP1PyP/7HW/cbLOl1Xp/8yeNQ9tiyZ0brmmRrbregTF4w8a2PaXZ/hs7pgP7YRKCMV8QwDAJYsAmAAAAAAAACgDJlQqPPtt/XL/+1/a1tiPrdtm774x5cJjoAyxjMMACiV6g6AQ0G1tAQVspsAAAAAAAAAAAAAsJQtzQB4XnAbUrClRcFMk9yCBb/mOmpUQ6gMAAAAAAAAAAAAoARqbty4MbdmzRq7mT+Hv/0dHfj6V+1Wvpmgdad0Yly9PrMZVHizV2YzY4t9XSpuf1Nq1KTWRa4NwKJFvo7cvHlTK1assK3x7ty5I/M1zD32a522FUvRz3/+QI9/4oTdkn616Zf0zpWtdgsACueznzuj996ftVvS3L2v2Jr07nsfqfFXztot6Uvbn9Lv/97n7RaAYpibm0so0sOHD936gwcPnHr4X1Pu3/9Y9+7f14+uvqvNW7bbHvLn4sWLtoaFbNq0ydYAGObrx3PPPWe3ysM777zDswpY5fiM5qpQz/iF0dN6un6lHnvsUT3xxON6tLZWtbXLtXy5KY9o2bJlbqmpkVNq4goAIInln9Hdu3ftxuIc/e7QvCxliQbAJmtt0U6d0LhJWUcDarnxSrhuQlh/nybco5rVPz2uXoWD3q7GPvUN9mhkep0Om+D3hLQzEgDHvc45Zm5AbaYa1+5o7td0isA4ck0Hpvw6vG46fD0AFo0AuLoQABfX6O7fVfubdiPRS7+muWOr7AZ0/rJqts7YjXjNb3RqfE+d3Vpa+ByIIQAGyls5BcAAsFjl+gckBMBAWKX+kRcBMAAsAaULgEcVqDmrbZFA1GVG4L6uhnFvW7xCB8Am9K05u01zA21OtUZnt81poC3hWiMjfE3Q6+9T44g5JqHdDYAb9HpNu2T3myDXP3XA6VtOf7H26OuSBsCeUcnTzrUdXpcyKAaQGQLg6kIAXFyEf1kgAK54BMBAeSMABgAAKB8EwACQZwUKgHNYA3hSN0q50G3bNvUMntWoQrox2aNtbkB7w7mqQbVHvqmYkbsTU5o2xzf36xU3FU7CvM6z39fRpWbTd0K7lwmJI9+4Wsziw6FhnVKXOkzia65t4pSGWQgYAAAUxKyCL/yuamqTlcvOz0cAAAAAAAAAqlWaANiMaDUBZ7sGvaGqW/zqazxQ4jVu27StZ1I3Rod1qnFbbCSymaI57q/DU49SXtD0VGzq5wS+3vHoOcxUz6HhU5qY6JPfvT/mnk3oFAkwAAAAAAAAAAAAgCJKEwD71DvuDVITijsncmm1bWtUX3ufGt3hvw5fgxon+vR6tsNeEl7nhrk929SW8UjekIZPTahnxHN/Rno0cWrY2QMAAAAAAAAAAAAAxZHZFNBmvd24EcCmBEo/vaAJaJ3/IvmvGRU8MN2vyXbPdbYEMwhh41/n72vUiBtwO+0jjerz277MlNLhF8Rzp39OmCqaaaABAGWs7dhX3HVOkxbW/60KfA4AAAAAAAAAlSmDAHhUgfZJ9U97Rre6JYeplfOmTQOJ1+Hr1bj3Osd75TNt5l97iHtMYnvc6zx9tg3E+hrpkRobYv1EJPbvMtc2XuJpsgEAAAAAAAAAAABUk8xGAKtRDVUaZI4G7OhfU9plRwYDAAAAAAAAAAAAQPmpuXHjxtyaNWvsZnKhYItebxhXNtnn4W9/Rwe+/lW7BQDZi3wduXnzplasWGFb4925c0fma5h77Nc6bSuWop///IEe/8QJuyX9atMv6Z0rW+1WZkZ3/67a37Qb6axv0vTbvzx/Roes3Vag9o80aLfmq9fIvQ0FmTEjdPSs/C9/ZLeS6zn3FQ1ssRuJzl9WzdYZuxGv+Y1Oje+ps1th6c4Xf/ysgi+cUd8Vuxnx0q+lnVY4af8ZfJzSXVe695/V67K8V175/pzM5OOelvc8ObyviIWuJ9N+XGmuJ/HzJ9V5szqfx2c/d0bvvT9rt+ROgx3x7nsfqfFXztot6Uvbn9Lv/97n7RaAYojOyBQt0sOHD936gwcPnHr4X1Pu3/9Y9+7f14+uvqvNW7bbHvLn4sWLtoaFbNq0ydYq32uvvWZrqHZ79+61tXjl/rWjGp5XnlMYS/UZzVW+n/ELo6f1dP1KPfbYo3riicf1aG2tamuXa/lyUx7RsmXL3FJTo9jAKlsAAEks/4zu3r1rNxbn6HeH5mUpGQTAowrUtCf55XaPRtJMA00ADCBXBMDVZdEBcOhfq+WZa8nXaM9A2pA0hYxDPa8FAtDMLBQ4p5ZrqJku6Iscv/B9+aT6398WtzxCJoFm3oJcj6xel21QWsDPyUzuV1p5CYAX83mYwR9DZBIApzsmav7n2UIIgIHyVm4B8HPPPWe3kMo777xTdQHwt771LbuFavWNb3wjbbhUrl87quV55TnFUn1Gc1WIZ5wAGADyrEABcAZTQJu1bBP/D7cp5bAGMABkb+Wq9baWu2roy6jk9zm49XdVs/t2Zn2Z8Kl2EeGv8eYfKXDe1rMQuS4T/NUsMvyNyOe9j2cCwUzuy0fqe+asgiFTNyOFfzejMHNwa+Q1xVe4e5Za5HOyHC3+83BG7c7nSMvRWMianfDny8Lhr2E+zy5r1G5F5PNjWQ19Gdyz7FRDX0a5Xtvaxi/YGgAAAEqlvmGDreWuGn6+roa+DO5ZdqqhL4N7VniZrQEcCqrF/SudlvAvYEcDqmkJqkS/iwWAnHx4O3Fu2sWrhr6Min+fb/6RVn9tgXQ2o5GH+WfeY86jPq18f15ETLx8LYtA8CP1/dZlBWqTTBOdkvOaf/KvS/JzR6Hu2YKcz8nFh6WFkY/Pw4mXzyzufb15LYvPF2NG7Qkhell+7XGUa18G9yw71dCXUa7Xdn3yh7YGAACAUpm5cdnWclcNP19XQ18G9yw71dCXwT0rvAwC4JCCO0+pa3pOIz22qe0V9euUhkmAAQAVYuLlfz1vxGCUmdK3BOGvyzn3zjyEv2XlzZnsR5Be+aDqfu5I+zlZbHn8PJx4+Y+LM6L7zVvlc/8AAAAAAACAIsogAJ7W1ESjGrJYR63gzIjkuBHIIQVbWhS8mNjuiBwbHcUcK4HIbwXn9QcAWIrMuqVm7c7k5dcU+Tum5GZ0Nukg4FkF/8lC67ma9U2zPV9mQiMfpD63Wc913nnDZeQle0zF+EhTS/Abdb4/J317ttnXdqo/5SwyyT4fbYms/5uVhZ4Bs+ZuwnnO1dt9yRRrRHeqZxoAAAAAAACobBmtAbytZ1BnvUMoRl9Xn7rUUapQ2NfhnN0zAjk07Gw517PKbqfS3K/pyBrG0/2abPeEwACApcn3yxq3odP4njrbmMwqDTjHpAtGJ28mmZo2dFun0szWEQ74NiRZFz98vrn3m9RsWxZj+nqqUZefVP/vpA7z2o7ZIC7H82fspV+LhX+mpA0ArcQAe4HXJP34lKNCf04WW9pnwIS/29Sb+Im4ZUP6z71FjeieH2xX3h86AKgqt46rs/O4btnNkiiHawAAYKnh+ycAYAnIaA3gtoFprTtco/bBCfX5a1TTLo2M9y5iBEm++NTRJZ2K/OZwekrq6sjueny9Gjch8GFG/gJANWnbmkEw6bHQCNwTaQM+hxsG5mc0cLyP1PfM5YWnuLVh5MAWu10Abgh+LOGvsLZsSBvOua9JHI26wGsqVbafk8WW9hl46Vfmh78RzufegZQfz490aiSLcNv9A4P5f2jRdizdSOgl9EcDAJaeZL/4LcQvg7Ptc97xt3S8s1PHK/Q31K11darrHbNbYWO9TlvrMZVo8Q6PUQWSzjSW2O5sx81W1lKcpRJQnswzvGqVVsWVfbpkdy9FS+k5DQVbPM+iLWbkSMKsgi0pH1Ke50pz63hn3PPYWanfUAEAFSmjANgErr3jduSsWwaSjHQqLl9Doyampt366NlBNUbmqJ7ok9/7w5a/L/UvLX0NapyYUrgXAEClGd39u6qpTShZreU7q+E/SL3uac/+TKfTDY/0XEwI61/7SVtLZkbtce8vg0C4iNJfe3LlHobmKvfPyeJLPQrdeQa2pp9+Jd3Hc+L6XVvLRZ06vpj95xkAVKzVm9ShYV2M/H761kVnq0ObVtvtSvN8t7rfe03HIt9KZ47ptfee1/N2s1TCIVK7Bu12RKp25zuqRqK/bxlP/cdVqA5NB3X59m3djpYj2mh3ZeLHP/6xrc2Xbl/BLKHn1Nc77vnd55xGeqTmdX534EnjSKR9RI19O9MEuzzPlcKEvxuGOzzP45DWHtpQ8hC47J5xAEDZyiAANn+9Fkj4hbJZczexrcjatqln8KxzDSHdmOzRtkgi7Z3m2ZTp/uJMfQkAKLFZBV+ID9ba37S7Fu2uptJMfbuuCP9n3tf+VBbfxxIC4d23bXtp+NZUezBXiM/JYpvVjXdtdZ4MngFfXerP33dnk4yKAoAK4I7C3ad9nbERQ/siw/e8o/s2HNK1aLN3hFFkxO4tHe9zjrl2SBucdvcXznGjA5ON7F2tTR3ScCQB/sD5StuxyWlNdQ4rceSwdzvFOeP6y/fI54yt0Yud0pnz4WRp7Oh+PdvpNFgzx1pVZ0YfuqXVBlBj6nW2WyNp1MwxtUb3JUi3Lw03REryu4hU7ahC9hk7vi/ybHm+TuTgZz/7mb73ve/pwoULtiXGtJl95pjiWlrPaVQoqMODPTpgEty2AQ1ER8L4tY6HuApc0sAh6WD/Lvd7aNhGHbl80HyTjX7Pu5j4DLvPduxngH2XzEwclf6MAwDKVYYjgJOZ1I2S/tbOrE3sXMPosE41blvciOTQDU02r3N+dAMALGXhUZVn1Jdmrd78+6Qik08UlO+XdeKNRQapb/6RGzoGztttFE1pPicLIf0fQSz4DPjq1Gir81yZzcssLPyhAYCydO26fP12xNDQDp3sNlO4XtK+DYe0dsi2Xz6oJnv46l1n7Ogic/xaHRowvyVerV39zjF2NOCZXR84rw9pT+S4yx0a7psfvK6uX6troQ/c+qULJ7W2Pvyr6+TnWIi55iTnvHVcfYfWasi2D60NKXzG4nt69149u/+oxtxRha9qj2fGlfrdY5qdnQ2X089q/1EzDW2rgtdelbOhMc3oWOCMOq+NaXdJJyEZVLudxSz11LKoONcOKbQ58kw6XyeO2ufZ/tFHJFTKZgroJ598Ut/85jc1NjYWFxCZumkz+8wxxbYUn9PR1/uk/lfm/74xNKxT6lJHyp+DeZ4rwq0ZXW9KMoPG6nqtvWa/56V8hu3PAO73f/N5lLA/B+X6jAMAylOaANiM8jU/sJjpUGI/vISLX32NB0o+jUnbtkb1tfepMTr8NxujCvid1x4o5VrGAIBcmaBt6Y2qzI5vzzZNLzYEdgxurc4QuFTrv1bD5yQAYAHeXxpv3Kwduq6ZPzG/TD6oQLK5XL2jbLtPStdn5v+S2PwyWifVHTnOjCCO/BLay5zv5AVdcnqYub5DmyPny+QciVKd0/wC3G0PB1Mbj2Q3RW1+terF7iFtb9qvZ/fuVlw+5I4MtCMLtw9J702H1xyt362BV9/T9romnekcSB0qOceNzRY6dGrTQHQWs4WmlkVF8X49eMoX/YOQXKeATgyIyiMYWmLPqXf0bxzzu8RT6jqR6neJPM9VJeUzbH8GMG3eurszd+X5jAMAylGaADhx3d+EEpv7pHTMNNDOfxnnv3HrAx/Wuum52BQucftKPL01ACAz5y8vGLT1nPuK5u55yrmC/gavYEwIPHevU/3rbUOWBl/910y3WwwV9zn5i1qX8nPuo4VngwnNatJW51lfxywsAGCYYHbDsDou27DHMzJ4noyCoY3avOO6Zi5d1PDazeH92ZwjUdJzbtQRt75ZF9xwOPMRioXQuudVPa9uvdhqGwwTKjWZUYN2ZOE1c0xMvf9ZWysnTC2L/PAGROUSDC2l5zT56F+zRJ75XWKm6/ryPC9p7khfz5r6Ee7IYJ+espulUo7POACg/GQ2BfRowAaj3lIOIan5y7qB2A9kvl6Njyf8FV6kzfwbF2J7fmCbt8/TJwCgbI2eS73QUyRkG/BML5a9dOHXjM4WfVRtnXrfjgWHWY0KvvKBhkmAC67wn5OZyCCYzVidGj5rq/N8pKkMAuAJW53ns3XMwgJg6Uryi+FbF4d1bW29Z61A69IFnTQjgP5B/Gvc48PV2GghR1y7ERnl657zkDKZuXnj5rU61H1Ia6PDfx3pzmF4RhNH96c6563j2ucuBmyC4Ms62HRdMwsOJy4gdwRgUN5cyfV8p7bYv7OaOX9GV8NVx5h6t0unZ0/r2f2B2Nqh7kjEXmev5W5nv7ZoVkYDCkR+uWKmlp1oLM4yI6h4kYCobIKhpfKcJhv967S1JAt/3XbP70d5nivIRgUOSofilloIL+UQWVu/1MruGQcAlJ0MAuBRBdon1T/tDUgJSQEApXZbZ1ONtFzfpFfyErKlC7+kwXO3bW0htxVY5Fq8ZjrhlqPJpzIOjwqOBcLpR5JmENZVmIk/uF3kUc/F+JwsPv/a1H9osNAzELr5ka3N17z2F20NAJaijTpi1sPdYKdGdsqG4Q5dPmIDV+8ant3S0JldWm1eY9beta/pC60Nj8JdvUt71saOj7YbZt+O8BTMncefcs55UNe7bb+mdKZYT9Cddtoz/XO6cxjO/v6D16NTPcf2m/eZ5JyrnZ85Dm2wbRs03NGvXeXw23Cv+t3a++x+NdmpZQM3n7UjC8fUW2dSJRNEtSpo1hxt8oRJeRAKtqjG36cJO9NYJBBK2u5fp8l2+4f2ZpmqEX7XgvwxoVBZB0Nl95yGFNw5f/RvaPiUJpz/+vyxgTFJ1/flea4oZu38yx3DnjW5zTd0syZ/+XzDK/tnHABQUpmNABZ/sQYAWEKuzGraVnPVtjVNqPrmH6UMZ2NM+PtHGrRbizHx8hnV1F5eeOaNLRtyWit4KfKtSfN+r1yTf3diQBkO4/0vpw4mCyKPn5MLy2/Y72t/Silnr3vzT1Ovaxb619qZ8j5/Ul3tdbYOAEvU6l06450a2Q15rbhpkz3TNG88Ej3+zJEjOmNfs/FI5Nj4diOyz/2Fc7pzxjEjc+Onh056DtOf7cP8onvefvPCpOc0/cfaSvXL8LGxhLVEDTPK0La3Bu20sk4ZCwZte6uCznYwMgyxNejst6MSE0coutvZry3q6x2P+wP6yNJTSdsTZiQrh9W2UASeZ88V2U5srwBL6zkNL4c3njDHc+KxprjHuM9vwsyEnmN4npc+7/dGUyJ/55XRM5yqDgBAkWQQALfplf5JnV3wt84AAJSLGbXPC/7Co2lrtmY5N9iWX0677m66cNY9X47hb4zznmpNf6lHBC8UuK2rxD/m8tWlDieNN//IvWexkq+PR7by+DnpWmB0+taz84JZ91wvLGItaN8qdaVZB7jvmSSj289fVs0z11JP/7z+KXXwx4UAAAAAAABAQWQ0BfTrfRMajExhEi3lsAYwAKB6rdK2l2w1mXnB3++qPdX0vGnVqfd3mtKHjJ5wNvfzLSwcOs8/X9rA7aVfiV+vqlL46tRoq6VXrM/JsHRTM0eC2fyca+FnYHBr/LnSh9qfVP/v/DLr/wKoXIzyAQAAAACUWEYjgAc805fECutYAABKK+30zPnk+2WdWNJTK9dr5NgqW680C4SuRVa0z0lH2qmZ8y2Pz0DzG5+vzD9GAAAAAAAAAMpEzY0bN+bWrFljN1MZVaCm3TNlYrP6p8fT/vLu8Le/owNf/6rdAoDsRb6O3Lx5UytWrLCt8e7cuSPzNcw99mudthVL0c9//kCPf+KE3ZJ+temX9M6VrXYrNTOtbb5G2ja/0anxPWnWJTXT2i5qut6wnnNf0cAWu5Gh3N/fJ9X//rb537PTvJdk9yF09GzKdXNT3rcsz+FazGuyXWd5fZNGvviB2lO8n3kfpyyvqZifk1mfy3nv02/b0beLuNfpPg8ykfb9pLkevfRrmkv1RwyL+pyJ99nPndF778emVp+79xVbk9597yM1/spZuyV9aftT+v3f+7zdAlAM8/8YWXr48KFbf/DggVMP/2vK/fsf6979+/rR1Xe1ect220P+XLx4Uc8995zdQirvvPOONm3aZLcq32uvvWZrqHZ79+61tXjma0c5q4bnlecUxlJ9RnOV72f8wuhpPV2/Uo899qieeOJxPVpbq9ra5Vq+3JRHtGzZMrfU1ChhRlGnAQAw3/LP6O7du3ZjcY5+d2helpJBABxSsMWvqQNzGogM+Q0F1eKf0oE0o4CLEQCHgi3y98Umu2zun9Z4ulTaXPdO6cR4L9MOAksAAXB1WWwAbGQcgpkQaeutHMOiWQVfOKO+K3YzU97gLStZhpteeQzNyjsANjK7T5E+0r2fXANgo5ifk1mFwDkGwGGL+Zys18i9Delnj0lzPQTAQHUrtwAYmammABgAgGpCAAwAeVagADiDKaCnNTXRo23e39j5OtTVPKkbIbtdAm74e6pL09FfAoyosc+vlmAJLwrAkrBy1Xpby1019GWU+/tsO/YVzd37NfW4W8mZUC9lgJSVOvW+bc638DnDo2/tsYsKf817/JIG3HOZ0qn+BW+fCdrs8QnvN9+fF/mU+7WtCt+nc8mnYDZBoLknmYSBXou9rkJ/TnqvK3yur2hkwamw87X2rr3XTpleaFpoE9y6xy4Q/hZBPj//q6Evg3uWnWroyyjXa1vb+AVbKywTalIyKwAAoPrUN2ywtdxVw8/X1dCXwT3LTjX0ZXDPCm+JjgA2U1If1rrEaajjRvjGT1vdMzKtdYf9igwYNqOFT2inZwSxndZaie/N9HNW28y2+777FH7FwtNgA8gNI4CrSy4jgAEgF4wABspb/OhfU0o3AhgAAKDaMQIYAPKsdCOAfeodH5HaPV+sFwh/Cy50Q5PNXepIDF99DWqcmNK0G1q3SyOxXxIMtDnv40S/mpv73VHDZqpoX+94dP/cSKP6Xh91+ujVgZ5BnXWqrtGzGuzZ5rzXUQXc922Pn+7SqZ1B50wAAAAAAAAAAAAAUB4yCICNNg1Egk+3lDD8zURoWKfUr1cWukgzojcSarcPSpM33EC3bVuPBm0CPHp2Uv2mIxM6a1Dt0RC8TxNu2AwAAAAAAAAAAAAA5SFtAGzW2a1pmT/KdTRQo5pAZIhsCbgjfU9pOPHC3JHB6+S3m2m50zmfUtd0ZERvv5rtLrW9ov7Jsxp1/js76RlpbEcPL5kgHAAAAAAAAAAAAEBVSRMAhzR8Suo/YdbTjdc2MKKeQROQlkqbXumX+uKmYDZTNPdJXR3y+TrUpT6ZGZ3n8Y7a9UwjHXLebGQ1YDPtdUfXpM4GzmrS9Oc2mdA5RZ8AAAAAAABV5MMPP4wrSK2urq6sCyoXz2lmkj0XlVQAANUpTQA8ramJRjUkpr8uv9Y1T+pGCRfANev3Tnedkj8yJXNNeM1fs7avCXDNer+TnnWL3QHLdn1fM41zy3CHDjT2RV+/c6oxNgLY4evo0uSgdMDtz2jTwHR8n8lGRwMAAAAAAFSDT37qU27BwmZnZ8uyoPLxnGYm2fNRCQUAUL3SBMDpQt504XDxmBA4Nh3znAa88zH7ejWeZF/bQHjbBMWRurs9MKDxcc9oZ/f1CVM8J/Q55z0eAAAAAAAAAAAAAEqs5saNG3Nr1qyxmwlGAwoPrPUGoaMKOI2T/dN2tG1yh7/9HR34+lftFgBkL/J15ObNm1qxYoVtjXfnzh2Zr2HusV/rtK1Yin7+8wd6/BMn7Jb0q02/pHeubLVbAFA4n/3cGb33fuyv4+fufcXWpHff+0iNv3LWbklf2v6Ufv/3Pm+3ABRD9A9wo0V6+PChW3/w4IFTD/9ryv37H+ve/fv60dV3tXnLdttD/ly8eNHWsJBNmzbZGiqVmU42Mqrwo5/+VCtXrnTrmM9MwVquI/HK+dqQO57TzFTyc1CI93Zh9LSerl+pxx57VE888bgera1Vbe1yLV9uyiNatmyZW2pqFJtJ0xYAQBLLP6O7d+/ajcU5+t2heVlK+gDYCAXV4u/zrI8r9YwkjLZNggAYQK4IgKsLATCAUiEABspbuQXAzz33nN1CKu+88w4BcBUgWMocATBKhec0MwTA2SEABoA8K1AAnGYKaCtx2mOnLBT+AgAAAAAAYGl469z355VCKNZ5gEpUrOenWOcBAACFtXAADAAAAAAAgIr14tYvzyuFUKzzAJWoWM9Psc4DAAAKiwAYAAAAAAAAAAAAACpESQJgM410Mqnac2LWMG4JKmQ3AQAAAAAAAAAAAKBSFT0AHhoa0r59+/Txxx/bljCzbdr/xb/4F7ZlASbY9Swg3xIsg4jXGzYTPAMAAAAA8uHWcXV2HtctuwkAAAAAQDpFDYAfPHig69ev60c/+pF+8zd/MxoCm3/Ntmmfmppyj0tvVAH/KXVNz7mjhufmRtQ4NW33lQlfr8bHe+WzmwCA7PzVX9+3NQAAgCpyaZ9WrVoVK/su2R0AAAAAAGSm5saNG3Nr1qyxm/lz+Nvf0YGvf9Vuxdy/f18HDhxww96///f/vr75zW/qn/2zfxbd/uf//J/rkUcesUenMqpAzVltmxtQm22JMfvaNWi3et7s1+RxqauxT322sWdkTgPmhWaUrr9PE25rs/qnx9Urp23nlBqdHgadHT0j01p32K8+tx5+XSjYIr9p8L7OF1KwJXyc2/qN/dIffVon3BA44Zqcfl654emjuV/ThMXAPJGvIzdv3tSKFStsa7w7d+7IfA1zj/1ap23FUvTznz/Q4584YbfCXjvynDZ+/r+wWwBQGM83/++2FjZ37yu2Jr373kdq/JWzdkv60van9Pu/93m7BaAYwn/06y3Sw4cP3br54+GHD8P/mnL//se65/x/zh9dfVebt2y3PeTPxYsX9dxzz9mt/Lt1vFMbDq3V0O0j2mjbLu3bJwV8Oton9Z/ZpdW2vZy988472rRpk91Cpfrwww/1yU99yq1/9NOfauXKlW4d89XV1Wl2dtZulZdyvjbkjuc0M5X8HBTivV0YPa2n61fqscce1RNPPK5Ha2tVW7tcy5eb8oiWLVvmlpoaRWfvjBQAQBLLP6O7d+/ajcU5+t2heVlK0QNgwzvi98knn9TPfvazLMLfsNFAjdpNotozojk3zTXCIezUARvwuk3hkLcxEvqOBlRzeJ2mxxv0ujdENsftlE6ckHa6o4vH1TvtHNs+GQ54Td19XUJQa/o7uy18DZE+zDHReoeGk17TlA7Yc48GAtJAsjAbqG4EwNUlWQAMAKVAAAyUl+oJgG/peKeb8mpXYsprpoCOBMCmvuGQrrk7dkTD4nB4HG5V00Fdnndskw5eTtJ3ARAAVweCpcwRAKNUeE4zQwCcHQJgAMizAgXARV8D2DAhrwl7Tei7mPDXaBuw/+d/29nwN5DAqBQa1in165XEJLXZ0+Zfp2bzb+iGJjWo9sg3IDMSeGJK7kTSzV3qMCmvOdZbN/sME+BGXmdS6Mkbqdf6TXZNvgZ3hHF7TUDOVTvvhfAXAJYtq3H+D0NJvi0BQJw9fVdsDQCK6NZFDV9bq/q0Ae0l7dtwSGuHbuv27du6fPC6us0U0beOq88dORxuH1ob0gfusSHtsW23L3douI91hAEAAACgGpTsN+2REPgrX/mKDh8+nFX4G6dtQGYN4J7Bs26YmhUz9XL0r8hNySCIdUfvetYfnu6PBcMZa9OAe75tOusGyeEgGEBxrFy13tZyVw19GcW4NhP+/m9/uIkQGEDJ/c//y1TaEJiv/dmjr+yUa19GuV7b2sYv2NoS1+TTU7aa1K0ZXW86qICdH3r1pg41nbygS6vrtVYn1b1qn8yKwRuPHNFGc6zbZtcSNiOBr5lgGAAAoDDqGzbYWu6q4efraujL4J5lpxr6MrhnhVeSKaBzZkLY1xs0HplTeaHpliPTMsdtmymg26XI1NAR3uOT1c0U0Z7+3PWAT3WFp4Y2x0Smdo6+Nvk1BYY7NNDr9qBg+EC5mwCimAK6Ol0Y+7f6n49Nuf/eu/fQtoanDdrwwgqt+syTtgUA8uP+/Tn98OK/1V/8+5/blrD/4Z+uU89LDUwBDZRY7A92I6VSp4C+pH2rjsqXbJrmyBTQ/VKfdy1gd4pnM8o3smaw6aNbJ83U0JdLt24wU0BXB6aWzRxTQKNUeE4zwxTQ2WEKaADIs0paAzh34bV++ybspprD6/SGE1l3zd/Irp43+zV5PBbYzgt4Pce6I4K9AW/isbY+HVl/2Lykp0eaXBftP7I2cfM39kt/9Omk5+kZGZHa22W7cE47rXHSX2AeAuDqdu1P/4O+sOW8Pvronm0xs0cs0w9Ofl7/cNsq2wIA+fHXf/2xtnT8K41P/IVtCdvxj+t18vdn7BYBMFAK1RMAmzzXrONrpnKOBLrSpX37pEAkzK3XwKpuOQfoiHOAe3xoj24HZrTv4iYdcZPjyFrCexTaEDu2mAiAqwPBUuYIgFEqPKeZIQDODgEwAORZJa0BnDufese9vwDwjJ719Wo82j6ngV3Otg1nXWZ/ZDvh2DnTnrg/ST26/rBTxgcG4vqP7Bv/599KeZ6BtsgU0PZYwl8AmKfpV35JPzy/RZ/8ZK1tkT7++KG+tOOP9S/P3rYtAJAfv/ALj+j88H+tlua/Y1vCvOEvABTa6l1nwuv6RqZtdkq3NkfDYDm1I5cP6np3eJ8bFpt0d3W9dGiDfc0GDXf0a9fq+GPd0skawAAAAABQDdwA2CTC+SwAAOSDCYEv/qs2QmAARZEqBAaAYjIh8O3bt2PFDXh36UxkKmdTj+6PjBTeqCOe15yJzCEdd6xTSjAdNAAAAACg+GpmZ2fnTMVMo5pqitVsxE3HWrApoAFUA6aARsSf/tlfatN/PRo3HbTx1Oon9Q87mQ4aQH6Z9cf/8Mxtffjhf7QtMUwBDRRfZOakWKncKaArBVNAVwemls0cU0CjVHhOM8MU0NlhCmgAyLNCrQFMAAygXBEAw8uEwGZN4L/8y/9sWwCg+AiAgeIjAF56CICrA8FS5giAUSo8p5khAM4OATAA5BlrAAMAqtmvfO5vu2sC/+2//ahtAYDiM1PTAwAAAAAAAOWMABgAsGSYEPjiv9qi1auetC0AUDz/4yuNeuVrjXYLAAAAAAAAKE9MAV1MoaBadkonxnvls00oU4X6WPE5kBWmgEYqDx7MaXziL/Q3f3PftgBAYT322CPa8ML/053GDEBxldsU0MgMU0BXPqaWzRxTQKNUeE4zwxTQ2WEKaADIM9YArgCEiksHH6uyQAAMAACAcgqAgUr21rnv21rYi1u/bGvJLSZYyvYclYIAGPnCc1oYBMDZIQAGgDxjDWCk5OvVOIEiAAAAAABYJBPyeEshFOMcQCUrxjNUjHMAAIDCIwCOGlXA89dIgVEzWLPF8xdKLQqGnMPMCM6WgAIt8ccml9Dn5XDrcGD+a1OfK6ige3zA6c22RY9zirM/ZI+L/Bs+Plyi15bsdXaXV9x1ePsO73T6sNfhtASd+zD/muy1p2p3+8vw/iXtN3xPWyIncY8J78vk4xUYNdcdqc/fH233Snod8827d25r5p8DAAAAAAAAAAAAQK4IgF0mFGyXRmLTig20mYG149HtuZFG9b1uk7qJSa07EWnv0WB7JBT1StLnBqd5ok9T2zyvPRwOClOfK3L8gNpMmOjvU2Okz+l+NYePiknafwavM0JB7exrdC45fNxI45SmfQ1qnHD+NbuHT6mxRzrrXtq0prROfrfvKR2wr5mb7tKpnZFzJmt3ZHT/Ur2+TQPO9Ts3yDnCucc7T6lrely9vgw+Xu65zPzLtm7vffrrSfM+vJLdO3N9WXwOAAAAAAAAAAAAALkiADZCwzqlfr3SZrcjvCM/2welyRvhoK65Sx2R+ZbbtqlHk7rh7PCOAG35zd9N3mezp82/LhbEpjyX5/jQDU16t5NJ1n+a18Vd8/AvqFGDarejfNsGTOjcpm094fc3PdWoba+s06RJgE2fjQ3ymX/d19hr9/dpwgTGqdrNSTO6f3+S+vW+Xp3on3T2+XWq64Qb/roW+niZ++Gtm31Gsuu5bbfTvQ8vE5Qn3rtUn1epPgcAAAAAAAAAAACAHBEAp2LCRL8ZXWpHaqYaNevhHYE63v1p25qBTM81PaUJW81KmtfFXXPvLg249W066wae4TDTv06amh7V2cl18vs61DV5VqNOn43bbIrZ3K9p20e4mOA4TXsK8+5fmtf7GhptzVrExytjGb2PtqT3DgAAAAAAAAAAACimDAPgGR1rrVPvWKxeV1en1mMz7t4lz4Sa6lNkxuAoz8hQM/1x0hB19KwGvSNII1L1mUom5zKjUydOadgd1pqFTF8XCirgLnBrwsxp9TeHR+b6Orqkw4c12dUhn/Of2Tx7Vlrndw51p4hO8j5TtSdKef/SvX5UAXdm5RE19u2MrcmbyT1cSOR6VtntdNfhjji2QW+ye6csPwcAAAAAAAAAAACAHGUYAP9EN69268VWpzp2VPufPa3Z2dN6dv9RuZnwkudT74l+TbbbaX6dEpju1YHGPvnt9s6pxtiI0olYe40JIsd7nR4SJenzst2VyJfmXHHaNGDWtvXbPs10xHZPehm+ztcg5yB7vZ7plU2784Ium66azcHJdTZsdfqejn+fNS2xtXrntzsyun+pXj+qgPsiMwo38r4CGs34HiaR9nrSvA+vpPcui88BAAAAAAAAAAAAIA9qZmdn50zlzp07WrFihds435h6697Si7NBORW9tuaaxnZLx1oD0sCYdtfbwxymnzVr1ujwt7+jA1//qm2tIGbU507pRNLQsshGA6o5u01zA+kmVk5isa/Lh3K6f0a5XQ/iRL6O3Lx5M+XXp7ivOV/rtK0AAACoFLGlWCJFevjwoVt/8OCBUw//a8r9+x/r3v37+tHVd7V5y3bbA4BC+PDDD/XJT33KrX/0059q5cqVbh3zmVn0Zmdn7VZ5KedrQ+54TjNTyc9BId7bhdHTerp+pR577FE98cTjerS2VrW1y7V8uSmPaNmyZW6pqVF0UEykAACSWP4Z3b17124sztHvDs3LUjIcAdyq4Glpu/MNY/tQt/aaxNeMBFantnjCXxTeaMDzTdMdCJtZiLvY1wGVaOWq9baWu2roy+CeZaca+jK4Z9kp174M7ll2qqEvg3uWnWroyyjXa1vb+AVbAwAAQKnUN2ywtdxVw8/X1dCXwT3LTjX0ZXDPCi/DEcCZq/gRwACKhhHAAAAAYAQwUJ4YWZg5RgCjVHhOM8MI4OwwAhgA8qy0I4DNFNC9Cev9zuhYa2IbAAClFzraqZraVdHScvSW3ZOLSwp4+owv+zRqj8pMrK/8XBsAAAAAAAAAAGEZBsCpvKfpGVsFAKAs3NLwH1yz9bCJP7iokK1nLXRcLW5Y261B2zTfSbVnE+iev5CmLwAAAAAAAAAAFm+BANiM8q1TXd12DTn/mTWAzbQR4dKk/c/ulVkOGACAshG6qFNXbD3iyrCGF5EAuyOJnzmkCbudiYmXN6QPgc/vU83Wk3YDAAAAAAAAAID8WiAArtfusVl3nYCkJdhqj6swoaBaWoKLHy1WrQp13/h4AMhCaGQ4Gtg2r2+ytWs6NZLdVMsm/PW/HD+SuPmNy5q7d3teGXnJHpBC3JTUhL8AAAAAAAAAgALKfArosV7P6N9IYQ1gAEA58U7/vEMHfqdDzXYrq2mgQ8e10xv+rj+o6Xu3Nb5ntW2I13YssyAYAAAAAAAAAIBCyzAAHlPv9vf06rXEUcBBVegYYADAUuSd/vmlzWrzbVLXerudxTTQo7/lmfbZhL9v75LPbqbjBsHndtgtAAAAAAAAAACKL/MRwHpW/kpe79dMM1xToxpT/H2e9R5HFYi0OyUwaps9QsGW6P4aM1Wxd8pit9+A04u7oWCLrXvPV9OiYCSUSNbu9hdQoCXSnvw6XEn7Db+HlshJ3GPC++KuPcX5AqPmuiP1+fuj7V5Jr2O+effObU2455fdRg0HPG2p3j+Aquad/rln60bnf1er44tZTgMdOq7Db9q6mtT/O5mFv1FbjswbKezbcyZuyujpNyLXBAAAAAAAAABAfmUYALdqz6vv6a2Kne95VAF/nxpH5jQ355TpfjtlqAk+26VIu1MG2twdMaGgdvY1OoeE9480Tmna16DGCedfs3v4lBp7pLNuYDmtKa2T3z3flA7Y18xNd+nUThN+pmp3TExq3QnbPtKjwfZIqOyV6vVtGnDek/ped45w3tPOU+qaHlevT/L1joePdfttdA6xvUbO555rpxSpH87ketK8D69k985cX+I93+AcO9GnqW22zXsdABAVP/3zti3hmq89u2mgvSGyXtrjfq0EAAAAAAAAAGCpyHgK6KP7r2poe4WuARy6ocnmfr0yL9wd1inNb/eOWm0Z/gU1alDtdpRv28CA2pz/tvVM6kZImp5q1LZX1mnSJMDmPI0N8pl/3dfYEa1mxLEJjFO1m5M2d6kjEkK0bVOPc6TpP+5afvNPUr/e16sT/ZPOPr9OdZ2IBRrekbrtg9LkjXA4Ejmff52avXWzz0h2Pbftdrr34WWC8sR7l+Key/vx8V4HAEQkTv9sq8pyGujp67G1f8OjiAEAAIDK99a578eVQijGOYBKVoxnqBjnAAAAhZfxCOBg3Nq/1b0GsHfU7HjvLg249W066wae4TDTv06amh7V2cl18vs61DV5VqPTU2rcZiOJ5n5N2z7CxQTHadpTiLuW7k+nfb2vodHWLBP++s1oYHtsdORzHmT0PtqS3jsAWIz50z9HZDMN9C3deNdW1aR1kT90AQAAACrci1u/HFcKoRjnACpZMZ6hYpwDAAAUXuZrAM8cU6s76rdVx2ac7bFe1bUek6kuee6Uzaeio8LMtM1uiGCCW/UpMityUqGgAu4CtybMnFZ/c3hkrq+jSzp8WJNdHfI5/5nNs2eldX7nUPd8SfpN1Z5o9KwGvSNwI9K+flQBd2blETX27YytyevpJ/q+sxW5nlV2O911uCOObdCb7N4pg3sOAPN4p3+eH9xmPg30B5qKjCIGAAAAAAAAAGAJyjAAntGxwBl1XpvV6W7b1LpHr+qMzldEAtymAbP+rT88ZfHOqUYbFPjUe6Jfk+12KmOnBBKDSV+DnBfa/Z7plU37hNRl01WzOTi5zoat4TV5vf3WtMTW6p3f7pjokz/SZoLc8V7n6hKlev2oAu6LzCjcyHsNaNTXqwONsX5j7zsDaa8nzfvwSnrvktzzy/Z4AEjFO/3z+o4kfyCT3TTQYWvVMP8LLQAAAAAAAAAAZS3DAPgnunn1Wfnr7WYlahuITlc8PjCg8Uig6evVeHQa4zkNzJvHuM1OY2xfG11c17SPx9baNf17Q9KEfqP7UrXHTamcZlropK8PX2P02t33Gu6jbSB2bPR9mz6815Osnux6Eo+N7ndKXHvk+lPcu4TXDuzy9Gt4zwMADu/0z81f3JTk60M200ADAAAAAAAAALB0ZbwG8IvdQ3przG4aY0e1X53aUsmhMABgCYif/rmrfbWtx8tsGuintC4yUljX3Sn9AQAAAAAAAABYSjJeA7g1eE1rXqvT9qGr2t9Up7rt0umx3SL/LYJyG/HKCFwA5cQ7/bOuqe+ZVaqpTVKeORRb5zzlNNCr1fBZW3X6miIABgAAAAAAAAAsMRkHwFK9do/NanY2UoJqtXsAACgV7/TPmUs9DbR/bWSqaGnw3CVbAwAAAAAAAABgacg8AB7rVV1dXULplXdWaAAAiss7/XN2Uk0D7Z0qWm8eVZBRwAAAAAAAAACAJSTDAHhMvdvf06vXvCOAGQUMYGlauSq6yGvOqqEvo2zf59/9bzzTP+/QyL3bmktbhtRjj06cBjp6Xb5N6ope4jX1/ZPjKdYLTuH8Pj36qefsRu74vMgefWWPe5adaujL4J5lpxr6Msr12tY2fsHWAAAAUCr1DRtsLXfV8PN1NfRlcM+yUw19GdyzwstiCuhn5WfB3/wLBdXSEswuXEBlKNTHns+pBX14O5oY5qwa+jLK9dre/h99semfX9qsNltNbaO2vWSrCdNAx65rtXr377B1x5VD8r+QWQg8unuVarae1K8e/APbkjs+L7JHX9njnmWnGvoyuGfZqYa+jHK9tuuTP7Q1AFia5s+6l3sBUDzJnsFcy1I0c+OyreWuGn6+roa+DO5ZdqqhL4N7VngZBsCt2vPqe3qL+Z7Tq/TgjWARQFmJn/65Z+tGW0uvbWss3E01DbS2HNH0G7G1gN0QuHaVWo4mXzfYDX6d/e1v2gYAAAAAyFL8rHu5FQDFl+xZXGwBACBXGU8BfXT/VQ1tT/xLJNYABgCUSOhibPrn9Qf1yhZbX8iWzSmngfby7Tmjkeho4bCJlze4QW9iWSj4DR3tjDve/3IsuE7sM1XIDAAAAAAAAABAJjIeARxM8pdIFbMGsB3ZGgzUqKYmXAKjnn22raamRUEbFISCLdFja9xRsSEFd/ZpYqJPfqetxRyY4rVx7X7nNbY5jntNAQVaIq+PXVPcuSP9xr2HgMyhqY+L9RsYda47Wje922MSX5fp+0tyHYnm3Tv7mvBpTJ+R15lrs/Wk15Si3e0v+b2bJ2m/owo42+57NNxjwvsWdU8zuZ6k1zHf/M87I3y90b7tTCvDyT6fgQoSGhmOfv1s/uIm+Wx9YamngU7Uduy25s55poPOQM+52xrfs9puAQAAAAAAAABQXFmsATym3rjRv606NmN3VYKJPk1tm9PcnFNGejR42IRrowr4p3TAtJky3aVTO8OB5c6+Ro3Y9pHGKU3Lp94T/Wpu7te00zbeO538tW6ffWocibQ7r7GXMM/EpNadsMeZa2oPh6G+3vFwm9veqL7XbboXfQ8D7jqYqY+z/bp97pQi9XTvOeP3Z/qPv444ye6dr0GNE+YeOruHT6mxRzrrXuq0prRO/pTXlKrdkeLexUv1+jYNOB8X54Y5R5jg+5S6psfV61vsPfXsT3o9ad6HV9LPOxM2t8tpjF7XwAbn2KSfz0Al8U7/3KSu9uwC14ymgY7YckRz925r7v2Dqb9erz+oaXOMUwYyHYkMAAAAAAAAAEABZBgAz+hY63bptGf077VOnWmqoCmgm/v1SiSt9K8L/5I/dEOTGlR7ZHSlGa1rgkoTWLrt4RCvbSBZ0Jnitabdey4P7+jOlqF/71xTlzoiQ9ratqnH6fGGSSm8o0XbB6XJG+HwIrHflMfZfs379NbNvlTXbfZ5pTsu4Tri3tfwLyS5d23a1hN+b9NTjdr2yjpNmgTYnKOxQb509zLlNSS/d3HX8pt/kvr1vl6d6J909vl1quuEG/66FnNPjWTXc9tuZ3rPk33ehYZ1Skk+n5J9PgMVZbV63w4HrnP3zsSe0UxFQl1T3t6V2ehh3y6NR16TWBbow0wnnfR1SQqjhwEAAAAAAAAAucgwAP6Jbl7t1ove+Z7rt6jz+fc0XUmjgJNpDo94jYyuDI9qbdOAW9+ms25ol2x0qSPpa1Pzji4d7/60bU1wO6gWvxmRavtMNYLYBJWZHJdMpted4XFx76t3V9J7518nTU2P6uzkOvl9HeqaPKvR6Sk1brM9pjpXrvc4zet9DY22ZuVyTxeS0fvI8PMOAAAAAABUJDMrH4Cli2cYAFAsGQbAT2vN80N6yzvcd+a8zlx9Vv56u12J3KmJ+xSZ5TcqFFTAXaTVBHLT6m+2I3ON6AjSFK91209p2B5vpjxOugZwotGzGjSjSFc5dc9o0rSvz/Q4r1TXHbHQ+1tIinvn6+iSDh/WZFeHfM5/ZvPsWWmd3zk07b3M4Boi9y5xeF7a148q4M6sPKLGvp2xNXkXc08TeT+WRrrrMKFzJOhNdu/UoS4t4uMAAAAAAACWlEhwRIAELE08wwCAYsowAK7X7rHT0nbPGsBNN7V3NijvoODK0yazFuxku52a15SWoEK+BqnPb9s8UwT7enWgJzyVb0vQn/y1pk+zdqw/3LZzqjH1KNKJPvkjrzVh5HivfOYcjbH2lK/P9Lh5Urxnsyuj97eAlPfOaZ+Qumy6ajYHJ9fZsDXVNaW51mT3zrTHSfX6UQXcF5lRuJGPV0Cji76njrTXk+Z9eCW9d+G1mb2vDVy2xwMAAAAAgIqQGBgRIAFLC88wAKDYamZnZ+dM5c6dO1qxYoXbmAvTz5o1a3T429/Rga9/1bYia2bk507pRNLgEmmV273jY7loka8jN2/eTPn1Ke5rztc6bSsAAAAqRWyZlEiRHj586NYfPHjg1MP/mnL//se6d/++fnT1XW3est32ACATb537vq2Fvbj1y7aW3IcffqhPfupTbv2jn/5UK1eudOvpZHuOSmGCntnZWbuVXLpj0gVF6V6z0DmNTI9DeeA5LYx8PAeleoYXUohn/MLoaT1dv1KPPfaonnjicT1aW6va2uVavtyUR7Rs2TK31NQoOmAlUgAASSz/jO7evWs3Fufod4fmZSkZjgB2zBxTq/MNw3zTCJdeeWeEBgAAAAAAwNJkQh5vKYRinKPSpAuOjIX2o7IU4xkqxjmqCc8wAKBUMgyAZ3QssF/Pnp51/2LILWZG6NZjzh4UhK9X44wYXZxyu3d8LAEAAAAAQJYyDYYIkIDyxDMMACilDAPgn+jm1W696F3wt3WPXtUZnScBBgAAAAAAAPIm20CIAAkoLzzDAIBSyzAAbtWL3e9pOi7sNaHws/LX200AAAAAAAAAOVlsEESABJQHnmEAQDnIMAAe01tDV7W/ybsG8HYNOf9td+usBwwAAAAAAADkItcAiAAJKC2eYQBAuch4BHAwsvZv0hJ0jgDKWCiolpagQnYzbwrVLwCU1C0FX1ilmlpT9mnUtgIAAAAorOS/d8uuACidZM9ktgUAgHzIMACWZo61un+BFF8Y+VswBIsAkMYlBdxwMtfSqSBfaBfBe/+5hwAAAAAAAABQTjKeAvro/md1et5fJDHyFwAAAAAAAAAAAADKRcZTQL/Y/Z6mZ+xmpXFH2wYUaKlRTU24BOx8l6FgS7StpqYlPMrJjs4NBkxbwJ0aM/VxsX4DoyEFo3XTuz0m8XVyjtvZp4mJPvmd9hbTmOy4JNeRKO66zIhi+5rwaUyfkdeZa7P1pNeUot3tL/m9mydpv6MKONvuezTcY8L7FnVPM7mepNcx37x757aGrzfa92W3UcPux8C2pXr/KBsrV623tdxVQ19GOV9bvlTDx7Jc773B/c9Ovj+W3LPsVENfBvcsO9XQl1Gu17a28Qu2BgAAgFKpb9hga7mrhp+vq6Evg3uWnWroy+CeFV7GU0A/vUba31TBU0BPTGrdiTnNzTllpEeD7eEw1Nc7Hm5z2xvV97pN9yb6NLXNtA+oLe1xtl+3z51SpH7YBIqjCvindCDyuukundpp2n3qPdGv5uZ+TTvt473TKY4z/cdfR5xQUDv7GjViXzfSOKVpX4MaJ5x/ze7hU2rskc66lzqtKa2TP+U1pWp3pLh38VK9vk0D0/1ybphzhAm+T6lrely9vsXeU8/+pNeT5n14Jbt35vpa2uU0Rq9rwPxME/0YOMV7HShbH96+Ymu5q4a+jPK7to0auHdbcynK9BtN9jip+Y3LSY8JlzPu1xujGj6W+evLe/9j9zAX3P/s5LMvg3uWnWroy+CeZaca+jLK9dquT/7Q1gAAAFAqMzfsaJk8qIafr6uhL4N7lp1q6MvgnhUeU0BHNHepI/IL7LZt6tGkbpgUzztatH1QmrwRDvea+/WKN3FNeZzt179Ozd662Re64ZxlUO2R1/nNqN9wOBsn3XEJ1+Edtdoy/AtqdF8XDkDbBkxI3KZtPeH3Nj3VqG2vrNOkSYDNORob5Et1rrTXkPzexV3Lb/5J6tf7enWif9LZ59eprhOxIGEx99RIdj237Xam99wE5Yn3LjSsU0r4uBvej4H3OgAAAAAAADIUP+gitwKg+JI9i4stAADkiimg07kdVIvfjEi1ozun+5OHeyaozOS4ZOwo38iI0qQjeY0Mj/OOmh3v3aUBt75NZ93AMxxm+tdJU9OjOju5Tn5fh7omz2p0ekqN22yPqc6V6bVacdfS/em0r/c1NNqalcs9XUhG76Mt6b0DAAAAAADIt/gBF/kpAIon2TOYawEAIBcZjwB+a+hqZU8B7TV6VoNmFOkqp+4ZTWqmTJ4IV+fL9DgvdzrmPkVmNp4nOkJ2geNSCQUVcBe4NWHmtPqbwyNzfR1d0uHDmuzqkM/5z2yePSut8zuHpjpXptcQuXeREbgRaV8/qoA7s/KIGvt2xtbkXcw9TeT9WBrprsMdcWyD3mT3Th3q0iI+DgDKzujuVaqpDZfAeduYSui4WuyxNS8c90zxfkmBSHvtvugfiYSOdkb7jpSWo7fs3gWc3zfvtVm9vmhuKfhC5Ppi7z3Mc1+89yvJe1vw3gMAAAAAAAAAspbxCOBgkr9CqqgpoCf65I9MC2zCyPFe+Xy9OtAYa9851Zh8FGqmx80TXv92st2e15QWu36s6bMnPFVxS9Cf+rh0fA1Sn9++xjO9smmfkLpsumo2ByfX2bA11TWludZk9860x0n1+lEF3BeZUbjOMWatX39Ao4u+p46015PmfXglvXfhtZm9rw3kb1kLAEXUtnWHrTlf/85dsrXkQiPD0T9A6dm/K8nXN8sGnP6Xr9mGmImXNySExwkiIfPWk7Yhnvv6eUHrUmHD4iTvbXCr0747/f0HAAAAAAAAAGSnZnZ2ds5U7ty5oxUrVriNyY2pt267huyW9LxevTam3fV20zL9rFmzRoe//R0d+PpXbWuZMyM/d0onkgaXSKvc7h0fy4oS+Tpy8+bNlF+f4r7mfK3TtqLamVG4kSC2+Y3LGt+z2q3HmFGq3Rp0603qf/9MbP3xOCa83KA+d73+HRq5d0SxKeO9fWTopSHNHdtoNywT/j5zKLNZDtYf1PTbaULovEn3vo0M78v6JjVfubbge+s5d1sDW+wGAAAJYku3RIr08OFDt/7gwQOnHv7XlPv3P9a9+/f1o6vvavOW7bYHAIXw4Ycf6pOf+pRb/+inP9XKlSvdOuYzs+iZgRTlqJyvDbnjOc1MJT8HhXhvF0ZP6+n6lXrssUf1xBOP69HaWtXWLtfy5aY8omXLlrmlpkbRQTSRAgBIYvlndPfuXbuxOEe/OzQvS8lwBPCMjrU6/+f5tGf077VOnWmq0CmgAQAVbqNeeaPJ1q/p1EiKKZbPD9iQ0/HS5oQQNBkTht7WnKeMvGR3GW92J0x7fEvBf+IJf01AnPD6uXtD6rG7deWQdsZNB+2dhnqRpZAjcKPhrwnZve/psvrXuztcg6+mGR0NAAAAAAAAAMhKhgHwT3Tzarde9M73XL9Fnc+/p+kZu72U+Xo1zojRxSm3e8fHEkCGfO0d0anlJ/7gYtIAcvRcZNriJvX/RsLI3TiRgDNxpKzUdiw+BI6bctoTMJtRsPNGB7s2asATAqe61nJlRmDP3UscYb1avb9zMDa1/5VQeM17AAAAAAAAAEDOMgyAn9aa54f0lne478x5nbn6rPwJU0ADALAk+DapKzIK9cqwhuelqpd09k1bXd9h10lPZa0a0uxv+w1P2PnuTDTAjQbM6w/qlbRTIG/UtkiIvJTCUud9nZg3/bblvf+6rhsMAQYAAAAAAACAvMgwAK7X7rHT0vY6d90AtzTd1N7ZoLyDggEAWDpWq+OLaaaBPn8hur5v8xc35TazgK9ejbYaC3A9AfOVQ/Inm57ZU9ojx8aFpWZ0sHdq5UWUpKOOi2G1Gj5rqwAAACi5t859P64UQjHOAVSyYjxDxTgHAAAovAwDYKNVwcj6v24h/AUALG2+PXtSTq0cm/55hw6kGsWasae0LnG0a2hGk+EGAAAAoORe3PrluFIIxTgHUMmK8QwV4xwAAKDwFgyAZ461qq71mBKX+h3rrVNdr3dO6AoSCqqlJZjdGoujAdXU1LglMOpsL6aPclao91Np9wnAEuOdWtk7DbRndO5Lm+et6wsAAAAAAAAAQLlaIACe0fkz0qsDu5W41G9r8LS6h95ShUbAWRpVoH1S/dNzmpvu1+ThhECTkBMAylbb1h22dk19v3UpXPVM/9yzNd9TJCdZL3j9QU0nm545aTmj3ujrLymQZLrorMpu+54BAAAAAAAAABVhgQD4J7p59Vn5E9Nf19Na8/x7mk4cGlyNQjc0qcbwL/R9vRof781trUgAQPFs2RydBlpvXtCobin4qp3+ef1BvbIlXM3NB5q6YqsR3nWBAQAAAAAAAADIkwUC4HQhb7pweImxI3SDATOFc0BmBueYUQXs1M7R6Z3jOPv9fZrQoNrNMU2daoob7RtScKezf6JPfmd/S9DZY84X7bNFpin9NVjJXmevz+3XcI8J7wsFW+yxiecJKNASbg+MOtcXrc/fH233Snod88WdP3pPEu7nZbdRw+77tm1J3zwAFIpnGmid1NmjF3XKhrXNX9yUnz/o8Ywojk0p7VkX+MohvX7e1gEAAAAAAAAAyMECAXC9du99VvubehOmeh5Tb912vffqHrXaliVvok9T2+Y0NzfgWevRhKPt0ohpD5eBeQtBtmlgul/Nzf2aNsec2qDH7J4wn3pPxPaP904r4J/SAdvf3HSXTu204WjSa4gwQXOy14XPr77XnSNM2HxKXdPj7vSgvt7x6HXPjTQ6h9hkdWJS606Yth4Ntu+UIvXI1NWR/e7rzDHeQDrVdSQIBbWzr9G5deHjRhqnNG2uL/F+bnCOjb5vp3ivAwCKpO03DqrZ1gdfPqQJt9akrvbVbi03lxTYakcUO2JTSq9WxxebbN0579Z9nq+1qTh9vXDc8zVyowaSThOdRTmW7ymuAQAAAAAAAACltEAA7GgNavbaGr1WV6e6aNkunZ7V2O5KGP5rNffrlcTUNTSsU5rf7h3ZGh15myl3umg7WtgUM3p4woSjjoRriDvPb/5J6tf5enWif9LZ59eprhOxtSG9I3XbB6XJG+HQoLlLHeYY/zo1e+tmnxFpM9q2qcc5843bdjvd9Xv5GtToHhcOj9sGBtSW4n7GvW/vdQBAsfg2qSsyGjdifUfsa+GCTqo92Vq6oeNqqe2Ojf5NmFLat2dPbPpp00ftKrUcvWW3vSJr/Xr6AgAAAAAAAAAgiYUDYKN+t8ZmZ/F7kL0AAOZ2SURBVDXrKcGKGfqbPe/I2vFo2pqFyGjhaEk24jfhPN2fTvs6X0PCSpIm/PWb0cD2WDNK2e7KWUbX36YBd982nXXD4hTTWgNAWYgfjWv07N+V3fTPb3arxg1pPeWZyGhio0n9v5PY50YNvB8bfWxMvLxhfj8EvwAAAAAAAACADGUWAFcrX4e61KfIzMk5iY7WbVDjxCL6TPu6UQXcmZVH1Ni3M7Ymr2ckb2j4lCeEyMLoWQ2aflbZ7XTX4Y44tkGvUw+4F2KC4Gn1N0/qhvJ4P4EcrFyVONRz8aqhL6Ma3ucL/1PIE8Tu0DbPSN3cNan//TOxGRq8fLs0nhACp/XZ+kWvS5zvz4t8+uaGyv8cK9e+DO5ZdqqhL4N7lp1q6Mso12tb2/gFWwMAAECp1DeY9f7yoxp+vq6GvgzuWXaqoS+De1Z4BMBphdfvnWy30x07JbCY8NLXqwM94WmTW4J+mTV7vX3WtGSy5m14rd/5rxtVoMakv2YUrnOMWevXH9CoOWdjn/z22J1TjZmHCxOx17ldj/d6woZU15HA1yDnQuwxkampk9zPy/Z4oIg+vH3F1nJXDX0ZVXHPLvfamuOlzc5Xu2zs0Mi9y+pP9j39pSHN3UsR/kaYENisx5smCO45l/uavfn+vMinf3a5Cj7HyrQvg3uWnWroy+CeZaca+jLK9dquT/7Q1gAAAFAqMzfy98veavj5uhr6Mrhn2amGvgzuWeHVzM7OzpnKnTt3tGLFCrcxF6afNWvW6PC3v6MDX/+qbcWSYUbx7pROxIW+QGlEvo7cvHkz5denuK85X+u0rUD2RnevUvubppZmtG4csy5vZGpmEwAfyTI0BgAAmYgtPRMp0sOHD936gwcPnHr4X1Pu3/9Y9+7f14+uvqvNW7bbHgAUwocffqhPfupTbv2jn/5UK1eudOuYr66uzl1OrRyV87Uhdzynmank56AQ7+3C6Gk9Xb9Sjz32qJ544nE9Wlur2trlWr7clEe0bNkyt9TUKDoIKFIAAEks/4zu3r1rNxbn6HeH5mUpjAAGAECXdNYNfx3rO6LT5wMAAAAAAAAAsNQQACOer1fjjP4FUGVCR4/akbxS8xc38TUQAAAAAAAAALBkVfUU0GYoNFCtzHNa7pgCGsVxS8EXNqjPXZIhm6mcmQIaAIBiYApooHTqXrtja7mZ3Zv775uWMqaARiHxnOaOKaCzwxTQAJBnTAENAEABnB+w4a/jpc2EuAAAAAAAAACAJY0AGABQ1UbPnbQ1qWfrRlsDAAAAAAAAAGBpIgCuRLeH9KUvDem23Sx7hbrepXYfAJRE27HbmrsXLgNbbGNGNmrAvm6O6Z8BAAAAAAAAAGWCADgil7CQoBEAAAAAAAAAAABAGYgLgO/cuZNzqUqruvWDH3Rrld0EAAAAAABYSt469/24UgjFOAdQyYrxDBXjHAAAoPDiAuAVK1bkXJam2xrae0R/9mdHtLmhQV/q748f0RsZ4Wv/HTrYoAbnOFMOvp3BfsPss21u8fYf4b7+oA5+KfJa57qidc8x0X4OKtIc177ZeS+2Of74L2ko1TDlpMe9rYPO9pciL3KPCe+7PfQle6zneLM/3fUn7I+2e2V4vXHnj97L8PVG+77qNupSso8HAAAAAACIenHrl+NKIRTjHEAlK8YzVIxzAACAwmMKaNcqdb+2T5/73D5duHFDP/iHn7TtSfzZEc184YZuOMfd+O0v6Qf/S0KQm3T/2zq4+Ygaftu2X3DOZQ+f589uqP41+9pf3ytF6kn6ubDvhn7dTTRT9W/aZ/RPTZvb3qbRvUmC55THvaBDTl86ctw5woTko2q78AN1rzKDnn8QPtaU325wDrHJatrr9+x3X2eO8YTYmV7v7SHtPdKg37bH/XbDjHOMCZt/XU5j9LoOPe8cu9DHCwAAAAAAAAAAAKggBMDZ+tw+7XrB1lfVzw9yk+2/PaMb3nYP70jWL/3Lj5zXt2mjmUvavNZbdw+O72fVxjZ97gc/1Nup+jft+oF+3fbvjgz+MxOWJpy3//9KeZyZ3vo1EzQ3bNZo22tu+OvyjtT99R9IN+zx6a7fiLQZL3xBX3LOPPNv7Xaa643j9NfgHhcOj184dEgv3L6kUSW5Bwt9vAAAAAAAAAAAAIAKQgBcDLdnYlMyJ/COpE078nixPhce1Rw5x40bh2Ty0HnnTXGcsaq+wdYsE/5uNqOB7bHpRjRnK811xLygQ+6+L+iHbljsHUUMoKqd36ea2lXJywvHFbKHYbEuKWDvZ8vRW7Ytd6O7Yx+nwHnbuBDvx3r3JdsIAAAAAAAAACAA9vKONvXUb18aTRngZsSMdP2zUV2aN5Q1S2bk658dUWS2Zfe6vvQFveC2x/qPXm/C8SmlPe5tHXRnVv5tNRzZG1uT1zOSd9H35+0f6gemn79rt9Ndhzvi2Aa9Tv2geyEmCL6gfZ+7oRltVJsyeK8AKlPouFpMELj1pG1I4soh+ZOGjLcUfMEGibX7NGpbS6scr8lx/oIGbRUAAACVb3bvipTl/S8/0J/3ftItpp7smEgBUDjJnrlI4TkFAKB6EQBHrOrWP/1SePrhL13aaKc9Dk9FvHemIccRri/okFknd7NnamO7JzvhNXlv/Hq4n81mHdxDZnxsfP+x640/3i1fSrYGbqrj3tbBBpP+mlG4kXMc1NvmXjUc0WZ7bFb3589ir3O7/kG3IjNCZ3y9q+rlXIg9JjI1dXgdZ+9rD161xwOobGYk6DOHNGE3USDmPqcL2AEAAAAAAAAAZaFmdnZ2zlTu3LmjFSty/2sv08+aNWt0+Nvf0YGvf9W2lqebN2/aWpG9fVANP/yCbrjhbRUxo3j3Sq/Fhb4oFfOclrvI1xHzrKb6+hT3NedrnbYV1cNMSdztGZXapP73z6jXZzejzIjaDeq7Et7qOXdbA1vC9fh9OzRy74ja3PZSKo9rCh3tlP/la3YrXvMblzW+Z7Xdyo2ZArr9zXA9/mOThjeQfmlIc8c2husAgIozNzeXUKSHDx+69QcPHjj18L+m3L//se7dv68fXX1Xm7dstz0AKIQPP/xQn/zUp9z6Rz/9qVauXOnWMV9dXZ1mZ2ftVnkp52tD7nhOM1PJz0Eh3tuF0dN6un6lHnvsUT3xxON6tLZWtbXLtXy5KY9o2bJlbqmpkVNq4goAIInln9Hdu3ftxuIc/e7QvCyFEcBF8vbB2MjU8KDaKgt/AaAAQkePxsLf9Qc1fS9Z+GusVu/btzV377ZGXrJNAAAAAAAAAABUIALgInnh0A3duBEpZkrlKrSqWz9g9C+APJq+Hhud2rN/l5JmvwnajmU4whQAAAAAAAAAgCWoqqeABlDeCjUF9MpV6/XhbTsXcI6qoS+jXK/tl+pW6S//Y7ie8dTBUfHTQqeWMAVz2rVww8fumvcePVNVm5HKb9uw2tuX275Jw4u5pgzleu+9U0KbKaBv/X/+cV4+lvmdAvqWfvHJDfqre3YzA+nOWa6f+/nsy6iG90lf2eOeZaca+jJKcW2ZTAHtf2aj3vuzf8UU0EARMbVs5pgCGqXCc5oZpoDOTropoBs+u0m3pv+PvEwBXQ0/X1dDXwb3LDvV0JfBPfNgCmgAyI98fqOqhr6Mcr227++wFcfkzVu2VigmxF2VJvw1TqrdOebPXzxit1Mx4fNCfeVfOX9e5NM/a7KVPCjXz/1y/ljSV3bKtS+De5adaujLKNdruz75Q1sDAABAqczcuGxruauGn6+roS+De5adaujL4J4VHgEwAGDJatsaS4AnXu5TMGQ3Su3NbrUcTRVID2tnbSajfAEAAAAAAAAAyB4BsBEKqqUlqIxzg2yPBwAUxpbN6rFV6Zr6nlmlmtrODIPg1ep9+7bm7l1W/3rb5E6tbNq8JXGq5WTH2HLOE0j/wcXk3yeuXNOEW0nox50WOttrsqOScym7L7k9lYvBrUmuMVlJOXo6cg9TFe+9DU9lzZrQAAAAAAAAACpJhgHwjI611ql3LFY36we0Hptx95aECWE96we0lM2wLwBA8WzUwPsH1Wy3wiJBcKRkGggvxDmXGyCmWXt3yxGNvGTrV0KattVEJnRM2w8KZnS3Z/T1+oM6sWe13QAAAAAAAACAypBhAPwT3bzarRdbnerYUe1/9rRmZ0/r2f1H5WbCRTeqgP+UuqbnNDdnyogap1L9mh0AUNF8uzSeMKoznicQzvNo19DRTk/QHC7tb9qduq4byYJnQsfSOb/P8/HZoRF31DUAAAAAAAAAVJasp4Aee2tIz6952qk9rTXPv6fpkg0CblRD9Le2bRoYMOOoQgq21CgwGm51g+KaFgUvmimbAwo4+8xo4cBo+Lhw3R6qKb1u22rMayK/tI8baRxweowXCrbYfU5hWmgAKBHvtL9pwuA3u1VTu2/e1/JseENf/8vXbGupREYl51CObbR9lYeec0muMVnxTLedkdBxtUSnjW5S//uMwAYAAAAAAABQmTIMgFsVPC1tr6vT9qFu7d1dHx4JrE5tcarF16ZtPYNqN6FrLMF1+NR7oEeDZ23b6FkN9hxQ7yqnPjGpdSfmNDfi7G/fKUXqh21oG9k/N6fpfqlvp2k3I4371DgSaZ9Uu/d8oaB29jVqxB2FPKeRxqmU030CAIolcQ3YIc86wcZJtS9qJPAtBV8oh9AX2bukwDOH7NrLZgrufvUy9BcAAAAAAABAhcp8BHBrULOzs04JyswE7W6P7VZJ8l9H20A4dJ3bdjY8+jYSzLZtU8/gWXd01+jZQfVss+N7mrvUYX7Z61+nZm/d3emItDl8HV1qnpjSdOiGJpv79Yrtwm23fbt8DWqUCaLDI4PbBgYYTQQAZceOkvWOGH3zQtajgENH+2Jrx0asP6jpaNAcLtE1gFE2Rnd3O9+trZeGNM4U3AAAAPO8de77caUQinEOoJIV4xkqxjkAAEDhZR4AzxxTa12d6upadcxM+zzWq7rWYyrZDNARbQPuGsCR0DcyOvjs6KjODvYokv8WRpsG3NG/23Q2xRTRAIAysSXgmRo6xfq8Kd3S8B94Rv6+NBQOfEu+huwlBTzrDy+q5Hld5HJjpuyOrvtrAvsym/IaAACgXLy49ctxpRCKcQ6gkhXjGSrGOQAAQOFlGADP6FjgjDqvzep0t21q3aNXdUbnS5EAm3V546ZiNiN118lvN9te6ddke7sm+19Z1Ijc0PApTfRsU5sZ4TvRp9ftqaLt4U33OgLuYsEmCJ5Wf/NkloECAKB4Vqvhs7aqa5rK6uv1B5qKjv7doRFCxKXh/D7PlN1N6v+dUgf2AAAAAAAAAFB4GQbAP9HNq8/KX6r5nhP5OtQ12R6e+tkU/yl1neiN/VLX7G9uVldkTudMTPTJb/vzn+rS9ICJeds0MG3CZNtu1vt12y1fg9Tnt9fh16muE6wpCABFc0vB3cfD67hn5JZuvGuratK6bL5eh2Y0aata74v+wRHK2SUFtp60dann3Bm+RwMAAAAAAACoChkGwK16sXtIb43ZTWPsqParU1tKEgr71Dtu1wB2y3j8L3VHX1efYmv6yter8XEbECerm3+jfTklst+I22fX+I32EZkCOlzG+c0yABTXu4fkr12lwHm7nUbcGr7rO2LfI+KkmBraV69GW9WVkKZtdb5LOhuZbjhv0k1Xbdc3zqVU5GjmWwq+EFv3t/mNyxrYYjcAAAAAAAAAoMJlvAZwa/Ca1rxWp+1DV7W/qU5126XTY7tVLoOCvUbPDqrngCfEBQBUtMGt4fVsW47esi1eJgxc5ZkKWOrZ750KOH5q6L7f8q6Ja167T6N6Suui6wefVPsLiSOPw+eoqY2FjrnJ5JqQyujuDZ6w/6BO7FltNwAAAAAAAACg8mUcAEv12j02q9nZSAmq1e4pN20Dc/LO1AwAqA4TL29wg+D44gkDjZeG5o0G9a9tsjXHm91JXrtavft3uLtdV8Ijj+cf16TmaFCcm4WvqfBCRzs9540P0RPvdfLwvQTO71O7dxT2vI/V/FI21w4AAICqVVdXl/cCoHiSPYO5FgAAcrFAADym3rpe53/Nv8m+EZl9AACUwmr1vj2kHruVkZeGkk557NvTr/6FgtstRzTykq0ntUMj987oQHTkbm4yuiYAAAAAFSM26CL3AqD4kj2Liy0AAORqgQC4VUF3pK/5N9k3o/IdBQwAqAaxNXCn3/CMmE1kgt+0692aMDl5H81vBMLrvzvajjl9vH9QzXY7wqwxO3fvSPS4/MjsmgAAAAAAAAAA8MpwCujISGAAAMqTb8+ZcMibrKQMfuMl62M8cf1Y3y6NpznGDYnd9jPqjS40HAuq5972rj+8sIyuqUDS3tOEkss1xe7Z7XnTc6e05Ujs/N6Pr7c9w1Ks+wkAAAAAAAAAxZBhANyqPa++p7dIgAEAAAAAAAAAAACgbGU8Avjo/qsa2l5GawCHgmqpqVGNLS3B0Ly2mpqARucda9uM0YDnWKcEnD3z+jClRaZ7AJVh5ar8LaxaDX0Z3LPsVENfBvcsO+Xal8E9y0419GVwz7JTDX0Z5Xptaxu/YGsAAAAolfqGDbaWu2r4+boa+jK4Z9mphr4M7lnh1czOzs6Zyp07d7RixQq3MRemnzVr1ujwt7+jA1//qm3Nt1EFag5r3fS4nV7T2Q5IA6/cUMtO6cR4b3h6TRPwHl6nabNtgl3PvlCwRf6+Ro3MDUTXURw1nbyyToe9fQAomcjXkZs3b6b8+hT3NedrnbYVAAAAlWJubi6hSA8fPnTrDx48cOrhf025f/9j3bt/Xz+6+q42b9luewBQCB9++KE++alPufWPfvpTrVy50q1jPjOIYnZ21m4lFznG/JurSD8LndPI9DgsTTynmcnHc1CqZ3ghhXjGL4ye1tP1K/XYY4/qiSce16O1taqtXa7ly015RMuWLXNLTY0SBlk5DQCA+ZZ/Rnfv3rUbi3P0u0PzspQMRwBLM8da3W8Y8aWU6wI3qiGa0LZpYCAS43q0bVPPxJSm7WZMSMOnpP7pWPhrtA3EbwMAAAAAAADFkmtQk++gB0B2eIYBAOUiiymgn9Xp2Wt69flu599ZzV57Vc93v6hWe0RxtWlbz6DazV8OmWmbUwgFD2uweZ38djsqNKxTE94AOcFEn/zev05qCYoZoAEAAAAAAFBoiw2ACI6A8sAzDAAoBxmPAA6rl//ZSHWLOt97Tcdm7HaRtQ3Y6b+2nQ2HtJEg2BPe+k91had/Du+JlywYjmju13R0ejGnMB00AAAAAAAAiiTbIIjgCCgvPMMAgFLLMAB+Wmuef0/TM05tzXt6y533+Se6efVZ+evdA0qnbUBzcyPqGTwrNwL2hrepgltfgxonTmmYYb0AAAAAAAAoQ5kGQgRHQHniGQYAlFKGAXC9do+NaXe9U9s9phffMuv/vqY114KlmQI6FFSLd+rn0A1NphvRO0+bXumX+vyBcGhsjQbitwEAAAAAAIBSWSgYIjgCyhvPMACgVLKcAjqsNTjrfHMKB8Il4etQ12R7bI1e/yl1nUgzTbMJjP19mnCnhw6HvL7ecU33T4bXEbalXdvUZo5PXAO4pkVBRgsDAAAAAACgyFIFRARHwNLAMwwAKIUMA+Ax9db1Ov9bLnzqHfes0Ts3rl6T/vp6NZ5s2mfTHj12IBzyus3jnj6cMuDsiTs2Umz/AACgjFxSoHaVakx54bj4Wy0AAIDFe+vc9+NKIRTjHJUqMSgiOKpOxXiGinGOasQzDAAotgwD4FbteTWy9i8AAGXq/L5wGJisEBBmJ829DJy3x2QiRT9Z9VFAo7sXcU3e97T7km0EAABY2l7c+uW4UgjFOEcliwRGBEfVqxjPUDHOUa14hgEAxZTxCOCj+69qaLtZ+9dbymlUMACgaoWOq8WEcVtP2oYkrhySP2nQd0vBF2yYV7uvyteC99yLNPdycKs5pnOB5RFsXyn6cfsglAcAAACyQnAELG08wwCAYsl4BHDQ+eZkvkHFl6CzBwCAEjKjMZ85pAm7iWK5pr5nUgXmJvzdoL4rdjMVE8oTAgMAAAAAAABAXmUYADtmjqmV0b8AgLJySYG4EaZN6n//tubuJZbL6l9vD0GGkt/LkZfsbtdJHT56y9Y9zg/Ehb/Nb1yO62P6jSa7x3HlkF4vk+mgAQAAAAAAAKASZBgAz+hYYL+ePe0Z/Xta2t56zNkDAEBphI4e1aCta/1BTd87o16f3Y6zWr1vJwswMd8OjbhBbfJ72XYsPsCd+IOLCSN4byn4aiyUN+Hv+J7VdivMt+dMXB+DrzIKGAAAAAAAAADyJcMA+Ce6ebVbL3rne27do1d1RueXQgIcCqqlJcgvlwGgwkxfv2ZrUs/+XUqa/SYwAebAFruBBCYoP6I2u5WKr71DzbY+T+iiTkVH/+7QgYTwN8K3Z496bF1XhjXMN2kAAAAAAAAAyIuM1wB+sXtIb8XN+WxC4Wflr7ebJRAKtqimpiZaWoKe3x4T+gIA0jLr1K5STa13rdqTaq81bd6SfJ3b0NHOhOPCpSXZlMhRlxSIHhvrN1lf6fspsVAotubyZ+vjg3fvvpc2pwmTN2pbdDT2NU0V7Bu29547paBrDkc+pzIvAaa/BgAAgBVbdi33AqD4kj2Liy0AAOQqTQA8pl7PN53tQ9LQdu83ou1ymkrGhL/+U12anpvTnFtG1Njnjw+BAQBVY/JmkQLT0HG11K6S/+XY6GOviZc3qKa2Uxl9Ozq/zw0Bk/Xl9lPQsHKxvFM8N6n/Nzbaeljo5nVbk5rXPmVryfnXxqaBLszHzwSy3bFpwl8a0tzbmY0UBwAAAIopuuRaHguA4kn2DOZaAADIRZoAuFXBJN944kvQOaoURvV6n9R/otfzS9w2DUz3S6eGFXL+C+7s08REn/xmZPDQv3ePGA7ERgsHosOugmqxbTU1LeFf2NvRw0H3+IA7QitutDEjiwGgLLRt3WFrJjDtyyx0zYUJbJ85FBvhmtI19T2z0OjOk2rfGlsrN6krh+TffclulAE3/I6NmG5+o3/eOsHeabkb1ySf/jnCt2atrTkfv+sf2Fq+mPDXM7rbhL/H4sNqAAAAAAAAAKhEC0wBbUYB9zr/Gz8aOFbMvhII3dBkc5c6Eofw+BrUODGlafnUe6Jfzc397gjh8e5PSxN9mtpmRwuP9GjwsAlxRxXwT+lAZBTxdJdO7bThbvT4AbWFgtrZ16gRe9xIozkHAKDktmyOrSNrQ9eMR9+6693e1ty9y+pfb5u0QyP3TJu3RNbEvaRAXGDbpP73E459/2Dc2riDW5NPHx1v/jlHolMjO97sThIkJ0xrvJiSUbCcMKWxJ/zuOXdb4ynW9y0Ho7uzD38Ht3rea7qSMriPfE6lKt7PNROgX2Y9agAAAAAAAAB5t0AAbEYBm1G+qUYDl2oE8CI09+uVyEKE/nXhX9CbIFmDao+M7PWbUcM23PUeb4Jl97jwaOC2gYE0axoCKHcrV3kSmBxVQ19G+b7PfRpICF1jQXCkZBoIpxc6ejQ2lfD6g5q+d2be6Ff5dmn83pCesJtmlO/hlGv5RgLkSMAc03YsPgQePFdGo4BtYG2Cy7x+np38DVvJ3S/VrVL7m3ajjEb+/lKdJ5R2PodO5BCgV88zTl/ZyGdfBvcsO9XQl1Gu17a28Qu2BgAAgFKpb9hga7mrhp+vq6Evg3uWnWroy+CeFd4CAXA6kdHBJeCO9D2l4cRf6Lsjg9fJbzczYkcJh9cRtiN+7a6YNg24+7bprBsWh4NgAEvTh7cjCUzuqqEvo6zfpxu6xo+sjOcJhBc9nfItDf9BbGrjnv3p1pHdqL8555maOuXUxmvVkLoTtf2GJ9h+d6aMlh44qXYbrv83A3n8PNvxW7aSm9DRTv3lf7Qb5TTt8/l9sesyIXqOaxFX1TOeJ/SVPe5ZdqqhL6Ncr+365A9tDQAAAKUyc+OyreWuGn6+roa+DO5ZdqqhL4N7Vng5BMCl1KZX+qW+yHTNLjOdc5/U1RH7hWpkNG8qbpDcp9cXSnNDQQXc4WMmCJ5Wf/OkbpTPb+IBAHFT76YJg9/sVk1tJtMyJ/pAU9Hv1zu0baFpe71TU795YXF/NOSrV6Ot6koo4fvZRg3ETS28iJJRMDp/SuPpN5rsvvCUyenXOS6u6aOd8r9sg/pFhL9mWmvve01ZPAF/RszaydFpo83I7/mjvgEAAAAAAAAgX5ZoACz5esc13XVK/sj0zTXt0sicxiPzcfp6daAnPL1zy9C/D7fN06aB6X5Ntkf6cEqLN1S2fA1Sn98e49eprhPzp/0EAJSJxNByyLNOsHFS7dmOBA7NaNJWtd6XwUwTT2ldzjN8ePu4XjZ/eOTbcyYuAB189Xh5jE6+ckjtkfDX0bz2KVsrtUsKeNZObn6jn58hAAAAAAAAABTUAgGwmea5TnVJy3YN2aNKxYTAsamb5zSQMJymbSDcPv7Pv6Xx8d7YyGBfb2zb1D19zJl2735XZApo2x+/uQWAJcSOlvWO2lzsqNxFKZ/wNm+2BGKjrK8Mz1+SoQxMvNyXl7WfczW6uzu2dvRLQxrPYd1fAAAAAAAAAMjEAgFwq4Kzs5pNWYLOEQAALAHe0LKooWz6tX4zk9jHJQXsOryLLoteDzk9/9rYFNGTN2/ZWnKhm9dtLT8jds0UzrEpqs3az4uZ7jt/zHrE7W/ajfUHNV0u6xEDAAAAAAAAqGhLdgpoAACys1oNn7VVXdNUNgFw2vV4k/GuGbxY+eij+Hxr1tqaNHH9A1tLbvp6bMrmxjU5joxdf1CvbHHOv+eMRl6ybWa67xdKNEX1+X2x9YjNur+/s8szswgAAAAAAAAAFA4BMABgibql4O5swr1buvGurapJ67JK47zr8Z7U2fO2msr5C7FpfzNaMzgJbx8vbVbCKgclliac3rI5tuZy2qm2L+lsZHRs1h+P9NqOedZ9vnJI/gKNdk7tkgJbT9q6GZl8hnV/AQAAAAAAABQNATAAYOl695D8tasUWCiQdYSO9qkvElqu71BH0kAu1dTQq9XxxdjUxoNb000tHB/+NX9x0yJGfiYEiFsTpw626xrnUpJMR2ymLG45mn7aZiNuXdt59zI+LD+cor/Q0aNp+siVc3/eP6hmu6U3uzN6X/lxS8EXYven+Y3LGthiNwAAAMrYW+e+H1cKoRjnACpZMZ6hYpwDAAAUHgEwAGDJG9waXtc2echnArlVnul4pZ793ul446eG7vst72hR89pw2Ovbsyc2qtRMLVzbqWBiWBw6rpZaTziqHTqwJ9XUxk4fyUamJvZhpzYulomXN6RZIzi89nB0XVtH/L00Vqt3/w5bD/eX+HExQXPqj0ee+HZp/Jz3Ovrmf7wKYHT3Bs8fGhzUiZQffwAAgPLy4tYvx5VCKMY5gEpWjGeoGOcAAACFRwAMAKgY0fAyrngCOeOloXkjMv1rY6N7zWjR5K/dqAFPoOiGxc94z+OUZw5pwu41es4dST91c9y5kvVRwrVjk11bXLjtSHIvXVsC6o+OAp7/cfGGvwUNuLcc8awHbD5e6UZu58H5fXHhuDv9tOd9JyvFG5kMAAAAAAAAoFoQAAMAlqjV6n3bs9ZrJl4aSjr1sW9Pf1xgmdKWI5rzTi2cUpP637+d49S/po8yXjs2xb0MMx+bywvf0/UHNf12YQPutmPe6zip9heyWTcaAAAAAAAAAJYeAmAAwBIWWwt3+g3PKN5EJqxMse5tmAksk/fR/EYgfhSvmVo4zfnMmq9z9zIJbndo5F6KkNS93uKHv749Z8L3KdV1GSa0TXsvI8L3dC5u1HRMzzlnX4HD3zDnOn7HE9qbUbmEwAAAAAAAAAAqGAEwAKAixMLLJGXBsDIsWR/jKdZwTXW+VMcnZ0PSxH4yvN7CSXFdpmQb2ppR00n6yW10dETsDwDSXpcN7aPn9xzbdizWnvE1ed+T92OV4r2mK9l9vgAAAAAAAADAwuIC4Dt37uRcAAAAAAAAAAAAAAClEQ2AV6xYkZcCAAAAAAAAAAAAACgNpoAGAAAAAAAAAAAAgApBAAwAAAAAAAAAAAAAFYIAGAAAAAAAAAAAAAAqBAEwgKqzctV6W8tdNfRlcM+yk7qvjRq4d1tzbjmiNtuaTrm+R2Pp3f/sVUNfBvcsO9XQl8E9y0419GWU67WtbfyCrQEAAKBU6hs22FruquHn62roy+CeZaca+jK4Z4VXMzs7O2freXHnzh2tWbNGh7/9HR34+ldtKwBkL/J15ObNm1qxYoVtjRf3NedrnbYVAAAAlWJubi6hSA8fPnTrDx48cOrhf025f/9j3bt/Xz+6+q42b9luewBQCB9++KE++alPufWPfvpTrVy50q1jvrq6Os3Oztqt8lLO14bc8ZxmppKfg0K8twujp/V0/Uo99tijeuKJx/Voba1qa5dr+XJTHtGyZcvcUlMjp9TEFQBAEss/o7t379qNxTn63aF5WQojgAEAAAAAAAAAAACgQhAAAwAAAAAAAAAAAECFIAAGAAAAAAAAAAAAgApBAAwAAAAAAAAAAAAAFYIAGACwpI3uXqWa2oXKPo3a4wvjkgLRc3UqGLLNmCd0tNPzcfGU3ZfsEdmI3feWo7dsGwAAAAAAAABUNwJgAEAVOKl2NygsdBBcSLcUfCESmC7B9xE6rhbn2v0vX7MNCd7sdt9b4LzdzsT5Cxq0VQAAAAAAAABAGAEwAKCKmCB4KYfAS5QJf585pAm7mc7g1gxD4PP7VLP1pN0AAABArt469/24UgjFOAdQyYrxDBXjHAAAoPAIgAEAFaPn3G3N3ZtfRl6yB7hOqn1R0w2ns1ED0fOdUa/PNsNxS8F/4g1/m9T/fvzHZ+79g2q2e43BV48r2SzacdNHE/4CAADk1YtbvxxXCqEY5wAqWTGeoWKcAwAAFB4BMACg4rUdu625czvsluPNo6zTWyyhizp1xda1QyPJAnLfLo17Q+Arwxrm4wMAAAAAAAAAi0IADACoDluOeEYCX9MUAWNxhEKx0b8vbVabrc7j26UDfHwAAAAAAAAAIGcEwACAquFf22Rr0uTNW7YWL26aYU9pOZr8+LBbCr4QOTbZGsOXFIj09YJnemOzjm2k3Zb5699G+t6gvuhIWrOWcfzrkp031XtJfo1F8O5M0qmd52vSuiTTaPv2nImbOnr6jdjHEwAAAAAAAAAQRgAMAIAROq6W2lXyv3zNNsSbeHmDamo78zR1tA11k6xjO7jVac91jWIbLKd6L9EA2RtGF8qWzeqxVV05pNfnBdwRt3TjXVvVWjWwjjIAAAAAAAAALAoBMACgStzS8B/EAtHGNattzWEC02cOxaYqTuma+p5JNko3G8PaGTeaN4k3uxd/DhNkJwmWS2ejXvGM1DUBd9LR1OcHovek+Y1A6qmiAQAAAAAAAABpEQADAKpC6GifJ3TdoW1bbNVMzxwXmDap//3YNMNuef+gmu1eY3BrDlMoX7lmg+bE81xW/3p3h2vw1cjo3NXqfTtx/w6NeK/PLUfc0HT0tzxB9vqDmp53nCnx5wrzTFO92JJi5LKZujm2/nJkNLXneG9o/dKQxvd4wnkAAAAAAAAAQFYIgAEAFS4cbHqnQ/aOMA0dPapBWw8HpmfUmzj9sG+Xxu8NxaYy1kkdTrsmcHrNb1zW3LzzrFbv73iC5ishTdtq5rzTKO/QyNu7lHwmZRsqp9yff23HnPOd22G3rDe7w0GwHX3dc8455tjG8D4AAAAAAAAAwKIQAAMAKoa7fm5kNGq0dMcCXiNuhGn8tNA9+9MFohs14AkwJ65/YGtZWn9QJ1KNcPVtUld0ZO513chpgd5cX59nZprtBaamzmlkNQAAAAAAAADARQAMAKga7sjbuBGmH2gq6bTQKWzZHBsF/OaFAoSVq9XwWVtdFO/rs12veKMGkk4XnUVJNXrXE/6GRz/HXjPtWR/YjKxur811jWUAAAAAAAAAqG4EwACqzspV8xY/XbRq6MtY6u8zEjrOW1s2NKNJW1XtsPy2mtpTWpfBKb9cwvvV9huJ6xV7R0P7FczjqOCMrm2B9X3N+sDmY/O3n7ANjsGtnTld51L/fM1EPvsyuGfZqYa+DO5ZdqqhL6Ncr21t4xdsDQAAAKVS37DB1nJXDT9fV0NfBvcsO9XQl8E9KzwCYABV58Pb0SGfOauGvoyl8j7dNWQ9o0sjZV7wm0xTr61kKvUUy98v5f2at16x1z13VLAbBr9wXLlmwZlcW2hk2F3f1+jZmnp93/8w6x0NfE19v3XJ1rO3VD5fc5HPvgzuWXaqoS+De5adaujLKNdruz75Q1sDAABAqczcuGxruauGn6+roS+De5adaujL4J4VHgEwAACLslYNqRcMLrHYdM7xUyx7XDkkf1wIfEmB6EjhRZbdiaGtd43lJq1b4H752jtio5ffnck5oAYAAAAAAACAakQADACoXr56NdqqroQ0baupedcMXhoiUyxHyshLdodxZVjDpKwAAAAAAAAAUFEIgAEAVcy7pu9JnT1vq6mcv6BBW9V6XwZrBpeftmPeEPiapooWAF/TqZFbtp5CKBSdLhoAAAAAAAAAsDgEwACAKrZaHV+MTZE8uHWfRm19vksKbD1p61LzFzepdDNAp1p/2EzjnO49hPnXJpsWOjZt9KLLscQ1fuPv78TLfQqmDJxvKfhqudxfAAAAAAAAAFi6CIABAFXNt2ePemzdjAJur+2cH1KGjqultjs2+lc7dGDPalsvltVq+Kyt6pr6fsu73u4tBV+IBL/mPZg1eZO8D+P8Pvlfznxd3lzFretrrvuZVQrMG2ltgusN6otOr12K+wsAAAAAAAAAlYEAGABQ5TZq4NwOWzfCIWWNG6La8syhuKmJe84dUZutF1PcyN03uz3X6A1PI5K8D1M8o5j10h71FnqYrW+XTrwRP+J4cGvidXnD9dT3N3S0M+51sSDbjC7eELev5egC000DAAAAAAAAQIUiAAYAYMsRzb1/0DNSNZUm9b9/WwNb7GaR+fb0qz+6ZnEy3jWNF/DSUJIpmwvDt+eMphNC4FR6zpXu/gIAAFSrt859f14phGKdB6hExXp+inUeAABQWATAAAAYvl0av3c7ZVDZ/MZlzd07U/gRs2mtVu/bya+x+Y2A2ux+sx5v6sB1h0aSrtdbWCYENtc18pJtSBC+v4S/AAAApfDi1i/PK4VQrPMAlahYz0+xzgMAAAqLABgAsKS1HQsHnvkKDyNBZWIZT7smbSx4nbuXbPrijRqI9PX2LqXLkGPvJ3XYnOwaE68v1ftIfn3F4/14eUv6+xuW+j3NL5n0BwAAAAAAAACViAAYAAAAAAAAAAAAACoEATAAAAAAAAAAAAAAVAgCYAAAAAAAAGTto5/+1C1YWF1dXVkWVD6e08wkez4qoQAAqlfN7OzsnK3nxZ07d7RmzRod/vZ3dODrX7WtAJC9yNeRmzdvasWKFbY1XtzXnK912lYAAABUirm5uYQiPXz40K0/ePDAqYf/NeX+/Y917/59/ejqu9q8ZbvtAQAAAPlyYfS0nq5fqccee1RPPPG4Hq2tVW3tci1fbsojWrZsmVtqauSUmrgCAEhi+Wd09+5du7E4R787NC9LYQQwAAAAAAAAAAAAAFQIAmAAAAAAAAAAAAAAqBAEwAAAAAAAAAAAAABQIQiAAQAAAAAAAAAAAKBCEAADqDorV623tdxVQ18G9yw71dCXwT3LTrn2ZXDPslMNfRncs+xUQ19GuV7b2sYv2BoAAABKpb5hg63lrhp+vq6GvgzuWXaqoS+De1Z4NbOzs3O2nhd37tzRmjVrdPjb39GBr3/VtgJA9iJfR27evKkVK1bY1nhxX3O+1mlbAQAAUCnm5uYSivTw4UO3/uDBA6ce/teU+/c/1r379/Wjq+9q85bttgcAKK2LFy/aWnnatGmTrQHVqdyf0Vzl+xm/MHpaT9ev1GOPPaonnnhcj9bWqrZ2uZYvN+URLVu2zC01NXJKTVwBACSx/DO6e/eu3Vico98dmpelEAADKFsEwAAAACAARrl77bXXbA3Vbu/evbYWz4RLzz33nN0qL++8805VBMA8pzCW4jOaq0I84wTAAJBnBMAAqg0BMAAAAAiAUe5MsPStb33LbqFafeMb3yAALmM8p1iqz2iuCIABYAkoUADMGsAAAAAAAAAAAAAAUCEIgAEAAAAAAAAAAACgQhAAAwAAAAAAAAAAAECFIAAGAAAAAAAAAAAAgApBAAwAAAAAAAAAQCZuHVdn53HdspsAAJQjAmAAAAAAALDktNbVqa53zG6FjfU6ba3HNDNzTK3mX9teNKGgWmpqVOOWFgVDtl2jCkTbE/cBlgmVVq3SqriyT5fs7qWoLJ/TKOe5bAkq+ijGPb81arEPaSjY4nl2bQmMuvvi8ZxXmlvHO+Oex87jRL4AgKWDABgAAAAAACw9z3er+73XdCySHs0c02vvPa/nTb1+t8bGdqve3VEsIQV3nlLX9Jzm5pwy0qi+nZ5wST0aMe1uGVevzzYDXk0Hdfn2bd2OliPaaHdl4sc//rGtzZduX8GU3XMaFg512zVot13TU2ociTyjI2rs2+kGuL7ecdsWLiM9UvM6v31RIp7zSmHC3w3DHZ7ncUhrD20oeQhcds84AKBsEQADAAAAAIAlaI1e7JTOnA8nS2NH9+vZTqfBiIwstP8eMyMOzUhEpyQMRowxx9a1xoKqXPnXqdlWgTh2+tjj+2IjC/flYZjvz372M33ve9/ThQsXbEuMaTP7zDHFVZ7PqRvqTvfHP6NtAxpos3X5tS7ZAxwK6vBgjw6Q7Fa4Sxo4JB3s36XVtkXaqCOXD0rDF6NTP19MfIbdZ3uf9nVG2m7peLQefk0uyvMZBwCUKwJgAAAAAACwJD29e6+e3X9UYzNmVOGr2rPF7vC6ul83X5zV7KxTTndr6LVCTTnrU+/4AU357fSv/lPqOtHrtEYMqt1ODRuZWhZV7NohhTbbkYVDO3TyqF1P1GnfYAOlcMl8Cugnn3xS3/zmNzU2NhYXEJm6aTP7zDHFVl7PaYZCw3KeYHUk5Lyjr/dJ/a8omhPPw3NeEW7N6HpThzbF0t+w1fVaey2kD0w95TN8Xb5+29ZtPl8S9uegXJ9xAEB5IgAGAAAAAABLVKte7B7S9qb9enZviqlkn39Ve1pt/ek14alnkzHT0c6OaXcO89GOBtoldwrZafU3T6jv9cg6oW0aiE4LG5taFlWs6aACkbmdn/KpyVZznQI6MSAqj2CovJ7ThY0qMO8POBwLjv7lOa8qKZ9hGxybNm/d3Zm78nzGAQDliAAYAAAAAAAsWa17XtXz6taLkfCoVEw4NNmvV9yhgWY08LT6Jw8nCYBSTC0L5Ik3ICqXYKhsntMFjSpQc1jrpuev37vw6F8vnvMlzR3pO6yLiUN23ZHBPj1lN0ulHJ9xAED5IQAGAAAAAABLlzsiMKiscyV3LdFeRZcazXVtUV+DGif6FB30a6aQnWhUgwmRRgMKJGsHCiQSEJVNMFQuz2k6oaBaUoS/SUf/uscHFHm0ec4ryUYFDkqH+rzTNl/Svg2HpI5NnnWBS6fsnnEAQNkhAAYAAAAAAMhZmwam+zXZ7lkDeHogPFrQv87T3qfGEdsOFJAJhQiGkgsFW9xncWKiT37nuTTBbWj4lCac//oi63hH1/ENKbgzg9G/POcVZfWuM7rcMexZk7tbGrqtM7vKIf4N4xkHAKRTMzs7O2freXHnzh2tWbNGh7/9HR34+ldtKwBkL/J15ObNm1qxYoVtjRf3NedrnbYVAAAAlSK8lqK3SA8fPnTrDx48cOrhf025f/9j3bt/Xz+6+q42b9luewAK67XXXtO3vvUtu4Vq9Y1vfEN79+61W/EuXryo5557zm6Vl3feeUebNm2yW5WL5xRL9RnNVSGe8Qujp/V0/Uo99tijeuKJx/Voba1qa5dr+XJTHtGyZcvcUlOj6B9TRAoAIInln9Hdu3ftxuIc/e7QvCyFEcAAAAAAAAAAAAAAUCEIgAEAAAAAAAAAAACgQhAAA6g6K1ett7XcVUNfBvcsO9XQl8E9y0659mVwz7JTDX0Z3LPsVENfRrle29rGL9gaAAAASqW+YYOt5a4afr6uhr4M7ll2qqEvg3tWeKwBDKBssQYwAAAAWAMY5c6sLQoYrAFcvnhOYbAGcH6wBjAA5FmB1gAmAAZQtgiAAQAAQAAMYKkz4VI5q4YAGEin3J/RXBEAA0CZIwAGUG0IgAEAAEAADAAAUD4IgAEgzwoUALMGMAAAAAAAAAAAAABUCAJgAAAAAAAAAAAAAKgQBMAAAAAAAAAAAAAAUCEIgAEAAAAAAAAAAACgQhAAAwAAAAAAAAAAAECFqJmdnZ2z9by4c+eO1qxZo8Pf/o4OfP2rthUAshf5OnLz5k2tWLHCtsaL+5rztU7bCgAAgEoxNzeXUKSHDx+69QcPHjj18L+m3L//se7dv68fXX1Xm7dstz0AhfXaa6/ZGqrd3r17bS3exYsXba08bdq0ydYqF88pjKX6jOYq38/4hdHTerp+pR577FE98cTjerS2VrW1y7V8uSmPaNmyZW6pqZFTauIKACCJ5Z/R3bt37cbiHP3u0LwshQAYQNkiAAYAAAABMMqdCZa+9a1v2S1Uq2984xtpw6XnnnvObpWXd955p2oCYJ7T6rZUn9FcFeIZJwAGgDwrUADMFNAAAAAAAAAAAAAAUCEIgAEAAAAAAAAAAACgQhAAAwAAAAAAAAAAAECFIAAGAAAAAAAAAAAAgApBAAwAAAAAACrbzDG1th7TjN0EUIZ4TrFU3Dquzs7jumU3AQAoRwTAAAAAAABgyYkPimZ0rLVVx8omORpVoCWokN1yt2tqVOOWgLMVkaodVcmESqtWaVVc2adLdvdStHSfU1NaFHR38pxWq1vHO+Oex87jRL4AgKWDABgAAAAAACw5nTqj85Egaea8s9WpLfV2u4RCwRbV1LRr0G4bo4F2aWROc3Nzmu6fVHsgHCGlakcVazqoy7dv63a0HNFGuysTP/7xj21tvnT7CmUpPadhPc4jGX4m5+bG1evjOa1WJvzdMNzheR6HtPbQhpKHwOX2jAMAyhcBMAAAAAAAWHK2dEpnIsnST25KnVtkcqWZY62qq6uzJYPRhmba2UyOy5Cvd1xz0/1qtttm9ODZwR5tawtv+Tq61Dx5Q6GU7ah4dvrY4/tiIwv35WGY789+9jN973vf04ULF2xLjGkz+8wxxbR0ntNUeE6r0yUNHJIO9u/SatsibdSRywel4YvRqZ8vJj7D7rO9T/s6I223dDxaD78mF+X4jAMAyhcBMICqs3LVelvLXTX0ZXDPslMNfRncs+yUa18G9yw71dCXwT3LTjX0ZZTrta1t/IKtoZrU+5/V1Zs/cetjbw3pWX94WGH97jHNzs6Gy+lntf/omNteNnwNapyY0rTdjErVjsp07ZBCm+3IwqEdOnnUrifqtG+wgVK4ZD4F9JNPPqlvfvObGhsbiwuITN20mX3mmGJaes/poNrtdM8t4fmf4/GcVodbM7re1KFNsfQ3bHW91l4L6QNTT/kMX5ev37Z190mRemR/DsrxGU9U37DB1nJXDT9fV0NfBvcsO9XQl8E9KzwCYABV58PbV2wtd9XQl8E9y0419GVwz7JTrn0Z3LPsVENfBvcsO9XQl1Gu13Z98oe2hqrS+qK6h97SmGY0/V63Xmy17e5IQTuycPuQ9N60Zw3SJOp3a2x2TLvLYFpaVJGmgwpE5nZ+yqcmW811CujEgKjkwdCSek7bNBCd/nlEjX077RrAQBIpn2EbHJs2b93dmbuye8YTzNy4bGu5q4afr6uhL4N7lp1q6MvgnhUeATAAAAAAAFiCWvVi93uaHjuvM8++6Gw5TKjUdEad1+zIwmuv6nn32DISuqHJ5nXy282oVO1AlrwBUemDoSX6nDpP4rpk80PznFYHd6TvsC4mDtl1Rwb79JTdLJXyesYBAOWKABgAAAAAACxJrS8+q/3b9+vZ6LBCx/Od2mJHCc6cP6Or4WqMO/KwV9EJZ93t/K0tOl+btvUM6uxoeCs0fEoTjQ3ypWwHchcJiMohGFoaz6ljNKCAfR6dB1KnJhrV4OM5rU4bFTgoHerzTtt8Sfs2HJI6NnnWBS6dcnrGAQDliQAYAAAAAAAsTWZ6Wee/aK5Uv1t7n92vJju1bODms0UfWRgKtqjG36eJiT75a2rcQKltYERqD68r6u9r1MhAm3tsqnYgH0woVBbB0BJ5TuVfp0n7PJp9jSMDMk8kz2l1Wr3rjC53DHvW5O6Whm7rzK5yiH/DyuYZBwCUpZrZ2dk5W8+LO3fuaM2aNTr87e/owNe/alsBIHuRryM3b97UihUrbGu8uK85X+u0rQAAAKgU4bUYvUV6+PChW3/w4IFTD/9ryv37H+ve/fv60dV3tXnLdtsDUFivvfaavvWtb9ktVKtvfOMb2rt3r92Kd/HiRT333HN2q7y888472rRpk92qXDynWKrPaK4K8YxfGD2tp+tX6rHHHtUTTzyuR2trVVu7XMuXm/KIli1b5paaGoX/oMJTAABJLP+M7t69azcW5+h3h+ZlKYwABgAAAAAAAAAAAIAKQQAMAAAAAAAAAAAAABWCABgAAAAAAAAAAAAAKgRrAAMoW6wBDAAAANYARrkza4sCRrr1RctZtawBDCzVZzRXrAEMAGWuQGsAEwADKFsEwAAAACAABgAAKB8EwACQZwUKgJkCGgAAAAAAAAAAAAAqBAEwAAAAAAAAAAAAAFQIAmAAAAAAAAAAAAAAqBAEwAAAAAAAAAAAAABQIQiAAQAAAAAAAAAAAKBC1MzOzs7Zel7cuXNHa9as0eFvf0cHvv5V2woA2Yt8Hbl586ZWrFhhW+PFfc35WqdtBQAAQKWYm5tLKNLDhw/d+oMHD5x6+F9T7t//WPfu39ePrr6rzVu22x6AwnrttddsDdVu7969thbv4sWLtlaeNm3aZGuVi+cUxlJ9RnOV72f8wuhpPV2/Uo899qieeOJxPVpbq9ra5Vq+3JRHtGzZMrfU1MgpNXEFAJDE8s/o7t27dmNxjn53aF6WQgAMoGwRAAMAAIAAGOXOBEvf+ta37Baq1Te+8Y204dJzzz1nt8rLO++8UzUBMM9pdVuqz2iuCvGMEwADQJ4VKABmCmgAAAAAAAAAAAAAqBAEwACqzspV620td9XQl8E9y0419GVwz7JTrn0Z3LPsVENfBvcsO9XQl1Gu17a28Qu2BgAAgFKpb9hga7mrhp+vq6Evg3uWnWroy+CeFR4BMICq8+HtK7aWu2roy+CeZaca+jK4Z9kp174M7ll2qqEvg3uWnWroyyjXa7s++UNbAwAAQKnM3Lhsa7mrhp+vq6Evg3uWnWroy+CeFR4BMAAAJTC6e5VqahcugfP2BVm7pIDto+XoLdsGAAAAAAAAAKh0BMAAAJSxwa0mxO1UMGQbMnX+ggZtFQAAAAAA5Mmt4+rsPC7+1BoAUM4IgAEAKHvX1PfMPo3arQWd36earSftBgAAQIWaOabWujrV2dJ6bCbW3npMdqtERhVoCSr13/A5+2tqVBMtLdn/wR8qjwmVVq3SqriyT5fs7iWpHJ/TUFAtnuevJdXDl/I4nt9qcet4Z9zz2HmcyBcAsHQQAAMAUGI9525r7t78Mv1Gkz3COKn23al/9RM62hmbOprwFwAAVIHepjPqvDar2VlTTuvZmz+xe0orFGxRTU17BrOx9Ghkbk5zbhlXr882o7o1HdTl27d1O1qOaKPdlYkf//jHtjZfun2FUpbP6fSUGkciz96IGvt2Jg9w0x7H81vpTPi7YbjD8zwOae2hDSUPgcvtGQcAlC8CYAAAypRvzxnNndthtxxvXsh8FDAAAEDFe1b+eltVq4LBVuffGR0L7NfVq/vVFBltGDcCsVXuAER39GGveltjIxN7x9yOcubrHdfcdL+a7TYwj50+9vi+2MjCfXkY5vuzn/1M3/ve93ThwgXbEmPazD5zTHGV4XPaNqCBNluXX+tSPayZHocKdEkDh6SD/bu02rZIG3Xk8kFp+GJ06ueLic+w+2zv077OSNstHY/Ww6/JRXk+4wCAckUADABAOdsSUP96W9d13WBqMQAAANeL3UPabkKhuESoXrsHXtXzz7+qa7OzGtv9E/U23dRed/ShU6516kzATjt79T2tGbDtp7s1tL1XecqAMzSo9nlTy6JqXDuk0GY7snBoh04eteuJOu0bbKAULplPAf3kk0/qm9/8psbGxuICIlM3bWafOaaYyv45DQ3rlLrUsdAI3nnH8fxWtFszut7UoU2x9Ddsdb3WXgvpA1NP+Qxfl6/ftnX3SZF6ZH8OyvEZBwCULwJgAAAqgDtaOOX00QAAAJWnNWhDoRffCo8OTDY0cGZa78kGUKY0mVGHN+VOQvt8p7ZERia2vqhu58hpN3EqhjYNRKePTTMFLSpX00EFInM7P+VT9Kf3HKeATgyISh0MlfdzOqqA/5S6TvQqff6beBzPLxwpn2EbHJs2b93dmbtye8YBAOWLABgAAAAAACxdrUGZtUW7h95KPjLQjjJ0Qyi3BGUmoS0fTC2L/PIGRGUTDJXdczqqQM1hrZteaP3ehY7j+a1I7kjfYV1MHLLrjgz26Sm7WSpl+YwDAMoOATAAAGXtA01dsVWtVUP6P00HAACoGq3ekYRmBOHza/S03VRk9GC9X89e3a+jSRMnj7G3NOQdaZhvoaBaagIatZsaDSgQ2TBTy0408nMe8ioSEJU6GCrL59R9HpOEuonPaarjeH6rwEYFDkqH+rzTNl/Svg2HpI5NnnWBS6dcnnEAQPkiAAYAoIyN7u7WoK3rpc1qs1UAAIBq1/ne9vB0se6UsWfUObBbbi5Uv1t77bqjrceeVvDaq3pvuz3OlNbI2qL71RRp2y6dHrOvz1Eo2KIaf58mJvrkr6mJBUVe/nWabA+vH2qObRwZ4Oc85J0JhUodDJXjcxoaPvX/Z+9O4KKu8z+Ov1EBRTzyQsw8CvGqLNtKrTQryywtyyu3rbZM00rrn5VWWulWtrlpVpqutXbZna2Z2mnqppRXpXkgHigeeMXghaDw5zfzRWa4hxlgjtdzH9/l+/3M8OXHb5gJec/3+9Py7P893MI8Bwu5jm+h9+P5GxSa3TNHi2+c53RN7rukWYmac48vxL8OvvAcBwD4LgJgAAB80nZN7txUPWaaoQZq/lR3rv4FAAAQ2IZ967xd7Lca5pQK5Vx39FurePYwfXv6ftktJ0By2XLWe9vNxjy0zFwb1NGmW8lQzENaluUUEtnHee6D4NHsHs2Zc0/uKsKccd56APDF52ne56jVlllLfPM8T4u+X26N52/gskLg3OtxJ+qFnH+Sl+Q5XFgfAIByQgAMAEAFm9GrqULC8rYuevj01s/tNWn9C7yrHAAAAAAAAABQLAJgAAB82kDNT5/jes0pAAAAeMZabeilLZ8BlBGepwAAAKVGAAwAgK/qMFab01n5CwAAAAAAAAAouZCUlJQs0/eK5ORkxcbGavyEVzRm1AhTBQD35byOxMfHKyoqylRdubzmPNLbVAHft2BY7vV9B89N1PTujr60SEPC7tIMM9KgWcoqxbV/E6b0VouRq+39jhMXa9lwrjYEAPBPztdedDQpMzPT3j916lR23/HRahkZJ5WekaGfV6zTtd37mhmAsvXPf/7T9BDsHnvsMdNz9f3335ueb7r66qtNL3DxPIXFX5+jnvL2c/ybBZ/onLMbqWrVcEVEVFN4WJjCwkIVGmq1KqpUqZK9hYQou4W4NABAAUKbyGazmUHpTJk2K1+WQgAMwGcRACOQFR4AZ0t4U53ajNNyMyxNgEsADAAIFATAAAAAvoMAGAC8rIwCYLaABgDA18Tco3cmtjcDafnILhqy0AwAAAAAAAAAACgCATCAoNOoaQfT81wwzGXhnLnHG3PFDJ+j+YPMINuMXr01OcEMSsmb36OFx9I9vjqXhXPmnmCYy8I5c08wzGXx1WNrdd41pgcAAICKcnbLLqbnuWD4/ToY5rJwztwTDHNZOGdljwAYQNDZnRhnep4LhrksnDP3eGuu66cu1qTTvyes1sN3vylPMmBvfo8WHkv3+OpcFs6Ze4JhLgvnzD3BMJfFV49t49rvTA8AAAAVZeumxabnuWD4/ToY5rJwztwTDHNZOGdljwAYAACf1UwPLZmlwWakuHFqMWyRGQAAAAAAAAAAkB8BMAAAPq2rps8daPrZZt6lTlO2m0GuhCm9FRLW9HRrMXK1ucVxDWHn2wr6fAAAAAAAAABAYCAABgDA13V/QZsntjcDR6A7ZKEZAAAAAAAAAADghAAYAAA/EDN8juYPMoNsM3o1JQQGAAAAAAAAAORDAAwAQAW4fmqistIdbXp3UyyG8+fk/TwrIHa+rai2bHgz81kAAAAAAAAAgEBDAAwAAAAAAAAAAAAAAYIAGAAAAAAAAAAAAAACBAEwAAAAAAAAAAAAAAQIAmAAAAAAAAAAAAAACBAEwAAAAAAAAAAAAAAQIAiAAQAAgDJ0aEuqkn//04wAAAAAAACAskUADAAAAJShzfOTtObteDMCAAAAAAAAyhYBMAAAAAAAAAAAAAAECAJgAAAAAAAAAAAAAAgQBMAAAAAAAAAAAAAAECAIgAEAqAALhjVVSFjxbchC8wk+ZZGGmOPrNGW7qRUh4U11cvqeStKK/L4Xjnb/cwAAAAAAAAAgSBAAAwDgw2b0ssLN3pqcYAq+YOE3mmG65Wu7JnfOPh+9ZpuxK/u56vymfOlUAQAAAAAAAEB5IwAGEHQaNe1gep4LhrksnDP3ePv8S6v1cJvRWmBGpeWV47JW3xYSwJYtK/ztoofjzLAwcePUIvI8r4XAwfIzFgzfJ3O5j3PmnmCYy+Krx9bqvGtMDwAAABXl7JZdTM9zwfD7dTDMZeGcuScY5rJwzsoeATCAoLM7sbgEqeSCYS4L58w97s41eG6istLzt80T25t7WGarx7BFpl86pf0eE6b0zt1q2dPwt8NYbS7ge83bpnc398+xcLpL+Ntx4mKX+7ucq/RUveSl7aCD4efVEgzfJ3O5j3PmnmCYy+Krx7Zx7XemBwAAgIqyddNi0/NcMPx+HQxzWThn7gmGuSycs7JHAAwAgI+KGT5HWXMHmlG2md94vArYP23X5Odzg2cr/F02vJkZOVjnyjkEnvE8W0EDAFCR1qxZY28AAAAAgPJHAAwAgC/rPkSTTu8WslGbgjHVTPheH59+w9xAjckT/uaIGT5cg01fcfM0jwQYAAAAAAAAQBAiAAYAAEWyr0QubLvl8pCQoOWmq0HX6nrTza+rbh5kulqtDQTAAABUmAsvvNDeAAAAAADljwAYAAD4tIT4jaYndWzV3PQK1qJVbji9Nn676QEAgPLmvAU020EDAAAAQPkiAAYAwKdt04bT2x+3UssY0w0imzeuNj3pvNiCt3/OERPbyvSk5Ru3mR4AAAAAAAAABA8CYAAAfNiCYXdphukXvv3xIg0Ja6oQT9qwRWauMhY3Ti0K+PqdprBaFwCAQOK8BTTbQQMAAABA+SIABgDAJ23X5M5N1WOmGWqg5k/tavqBZ/nILgoJ663JXLcXAICAUNgW0M59AAAAAEDZIAAGAKCCzeiVf0VsSFgXPXx66+f2mrT+hUJW/waS1Xq4DSEwUHEcbzxxvAaN1gJTBQAAAAAAgH8hAAYAwKcN1Pz0OXqoyGv/dtX09ERledLKYXXx4LkFfN3sNn+QuYPdaj1895siAwYAwL8VtgW0cx8AAAAAUDYIgAEA8FUdxmpzegCs/I25R8vSEzW9uxnncf3URGXNHWhG2eLmaR4JMAAAAAAAAACUCgEwAAAVzHVl7CwNNnXFjVOLYYvMIMB1H6JJHUxfq7WBABgAAAAAAAAASoUAGAAAn9JV09ePVUcz0sy71GnKdjMozCINyXcNYTdbhQfNzdTyXNPNo0Wr9qYnrY0v+lwkxG80Paljq+amBwAAAAAAvCkkJMT0AAC+iAAYAABfE3OP3pmYG3ouH9lFQxaaQRCKiW1letnnYuM20yvY5o2rTU86L7aZ6QH+I2FK7wLfpFHsG0ES3lSnnPt3Luo62ts1uXPOvL012X7HnFoXPRxnv1O22eqRM9/pNloLzK2AryjoD4/8LRIAAKBsFfw7GL+EAYAvIQAGAMAHxQyfo/mDzCDbjF45QU2gWqQvZpqu2qt1jOlaul+buy32zG+KCKCKmAPwdSbAbTEy900Mzqw3guQGtkDwsf6gWNQfFXNu5w+PAAAA5aMkv3/x+xkAVBwCYAAAfNT1Uxe7XBf34bsLW9XXVdNPX0O4lG1qVzNXxUiYMkUzTF8dbtSNLuFtc7U+fR5ma3whKyGLngPwYQtHK6TNOC03w8Jlvw60aRrUOwIABcn7N0X+yAgAAFC28v6+xe9fAOB7CIABAPBZzfTQklm5q1/jxqlFhV+r100529IWuiWtY+tZ51WPg5+4R67ZbfZ5eGKg6TtWQubdDtfaNrfoOQBftUhDes02fUt7TVqf5w0aztcFzzajl7e3YrZea6yv5fymk4Ga73wM9vaCrje3AhUl54+L1seclnecUwMAAEDZKOh3L+uD65jfyQCgIhEAAwDg07pq+tzc8FMz7yr+WqBelveapM5Bq2Nb2tzbCj02K7x2ul9uc77maLZBszS9u+k76z7EKZjK/3Vdts3tMFaPFjQH4INcV66P1eb0OXoo77sXYu7RsnSnN4MUsRIeCEbOf1zM+cMjAAAAyo7jdy4zyMbvXwDgewiAAQSdRk2dUiQPBcNcFs6Ze7w+V/cXtHlie1NxhJ+l2QLWm8dVJgbNKmIramuFovPqxEJ0GKv6if/22urfYPgZswTD9+mbc23XRU+UdOW665tBlm/cZnq5VpmP3nI7j6VbgmEuiy8cW0F/X2x57tX2PzzaW/b/AAAAUHZO/95lD4Jzf/dqHtvZ/tGpVGrB8Pt1MMxl4Zy5JxjmsnDOyh4BMICgszvRebmhZ4JhLgvnzD1lMVfM8DmaP8jetZvRy/3rgHrzuErMvnIxMd8Wti7sqx6z71PsdYjNNrXOK6KdDJ6bfduSe7QviH4uvCUYvk/fnGubBqSbrgbq5uJWrne/NncV8Mxv8m0DfZH56C3v8Vi6JRjmsvjaseX88XHz+h9O953/CAkAAICykfu7V25/++al5lbPBcPv18Ewl4Vz5p5gmMvCOSt7BMAAAFSA66da19N0tAK3PC6A8+e483messJn569bVFs2vJn5rDxyguCC2hI3r9fb/YUC5ymv8wF4TcJWrTVddYhRC9MtXHO1rtg3jwI+I+ePjM595wYAAICyU9DvX1bLuQ0AUPEIgAEAAAC/s1GbEkwXCGLOf2h0bgAAACg7lSpVcvm9K+9HAEDFC0lJSckyfa9ITk5WbGysxk94RWNGjTBVAHBfzutIfHy8oqKiTNWVy2vOI71NFQAA3/Hzq+v15/bD6v6vS03FSHhTndqM03Krb22FXuxq+O2a3LmLHrbvIDRQ89Nf0PX2erYSz+U8R3tNWj9HD52+YxHzAxUsKyvL3pz71jAzM9Petz5a7dSpTGVkZGjRkpX2+wIAAMD72p0Xo/DwcIWHhSksLFShoaGqUqWyKleurEqVXN+U59wHABQgtIlsNpsZlM6UabPyZSkEwAB8FgEwACAQFBoAa5GGhN2lGfZ+SQLXIu5PAIwA5xz+5nzMGwKfOnVKJ0+esgfAVhCcnpGuEyfSs8cns+sn7TXrPtb9c+YAAACAq7zBbU6zVv1WrlxJVapUsYe9YWFhpwNgqxYaWsUlAM6Zw/kjAKAABMAAgg0BMAAgEBQeADsHrtLgucVcy3rhaIX0mu3o5wt5ncJhAmAEIOfgN+ejo+VfBZwT+FphcHpGxul+Tvibfy77BwAAgKCWk9E6h7VW37lZAbAV8lorfkNN6Juz+tcKga2QmAAYANxEAAwg2BAAAwACQeEBsJQwpbdajFxtRkWFrs6rf6WOExdr2fBmZmRxvj1vsOvEeaVwkQFwEXMAFSB/aJsbAOf2HSFwTthrNSsAdvQdq39z7pczBwAAAFwVFN7mtJxVwJUrWYGvIwi2AuGitn92/ggAKAABMIBgQwAMAAgERQXAeYPdAoNXl9DWUnBQvGBYU/WYaQb5VgG7rjZ2yP+1XOYYNEtZU7uagfX509VyCauCUTGcw1rnANfRcvs5q4CtwNcRBp/M/ujYHjozy7H612qOz7d/AAAAgJOcrNY5vLW37P/lrPB1BMGO0DdnVXBhq38tzn0AQB4EwACCDQEwACAQFB0AZ3Pe2rkECt0q2s15CgqAXVck58W20KhYucFt/o9W1/ExNwS2gt/cPuEvAABASeXktXlDXCvkzfnoHAQ76o775HxO3o8AgEIQAAMINgTAAIBAUGwAbMm3yrcgxW/L7LKCNx/r8ydJdxe1zXNBK4VzEACjYuWEt5bcIDf3Y87NOWFv7kdHP0fO51ic+wAAAMHOOawtqG99tLqOADg3DLZqjtty75fDuQ8AKAABMIBgQwAMAAgEJQqAjcJW4Oa/5m8RCgqTT2/nXLLr/BZ0HG4dA1BGCgpv83/M7ecEv4UFwAAAAChYQSFuzsec8Nca5r0t56PFuQ8AKAQBMIBgQwAMAAgE7gTAAIqWN7x1HucGwDkfC74dAAAAJZc3xM0Neh39ogLfvGMAQAHKKACuZP9/AAAAAAB8XFF/VLT6rs1anWJtS5jTHFsV0mg0Go1Go9Hcac6/Tzk3xyrgHM59S94xAKB8EQADAAAAAPxGQX9czPvHx4Jazh8rs7s0Go1Go9FotGJa7u9OBbcceceWvGMAQPkjAAYAAAAA+JXC/tDoXHceO7ec1SwF3Uaj0Wg0Go0W7K2435Xy/p7lrKAaAKBiEAADAAAAAPxSYX9kzKnTaDQajUaj0bzf8iqsDgCoOATAAAAAAAC/5vwHyZL+AbKgz6HRaDQajUYL9lac0nwOAKD8EQADAAAAAAJOQX+cpNFoNBqNRqN51gAA/oEAGEDQadS0g+l5LhjmsnDO3BMMc1k4Z+7x1bksnDP3BMNcFs6Ze4JhLgvnzD3BMJeFc+aeYJjLwjlzj6/OZeGcuScY5rJwztwTDHNZOGfuCYa5LJwz9wTDXBbOWdkLSUlJyTJ9r0hOTlZsbKzGT3hFY0aNMFUAcF/O60h8fLyioqJM1ZXLa84jvU0VAADfkJmRpU/6L9Khranq9Mi5pho4WvZsoqq1w8wIAAAAAAAAbgltIpvNZgalM2XarHxZCgEwAJ9FAAwA8EdW6PvHZ9u0/tPtil+wQw1an6GQKiFq0PYMc4/AcfX4i1SjUYQZAQAAAAAAwC0EwACCDQEwAMBf5A19297aXG36NFOrXk3NPQAAAAAAAIA8yigA5hrAAAAEiWfH/6rQarMUVv1tTX1jg6l6x1NPr1KV7LnDI9/WzDfjTdU7Hh218vTc776XYKpAxbNC37UfbtVHfX7Qc7Xf1ub5O9XujnM05uhduuWdLoS/AAAAAAAAqBAEwAAABIH09EyNf/5XnTyVpYyMTD3y2AplZnpnE5Djx0/phRd/16nsua2vM+L/4pTlpf1Fjh49qX9NWnt67vuHe29uoDQIfQEAAAAAAODrCIABAAgCn3y23R6i5khLO6Xvvt9tRp6Z/eFWZWaaQbZjx09p0Y97zMgz783e4hL4Hj6SoeVx+8wIKB+EvgAAAAAAAPAnBMAAAASBKa+tN71cU17PX3OXFc4WOHcBNXdZc79awDF6Y26gOIS+AAAAAAAA8FcEwAAABLiff9mvX1bsN6Nc8xckKWFLqhmVztL/7dXvaw+ZUa4vv9qpbduPmFHpWKuI/1ifYka5Pv18u3btPmZGgPcQ+gIAAAAAACAQEAADABDgClpFa7FW2L4+baMZlU5hq3Gt6wtPfWODGZVOYXNbW1m/McOz4wZyEPoCAAAAAAAg0BAAAwAQwPbuPa6PP91mRtn/4a8UYnoOb82K15EjGWbknh07j+qLuTvMSKpc2fXXiplvxevo0ZNm5B5r9bC1ijhHaKjrcU//9yb7dYyB0iD0BQAAAAAAQCAjAAYAIIBZQWlGRpYZSbfc3FRdOjc0Iyk1NUPvvJdgRu6ZNn2jfTVujn59mqnDpfXNSEpJSdf7H2wxI/dYq4etVcQ5/npbjNpfWNeMpP370/TRJ7nBNlAcQl8AAAAAAAAECwJgAAACVHp6pt74t+tWycMfaGNvzl59fYN9O2h3HD9+SjNmbjIjh4LmtrZxdndua9WwtXrY2YP3t8439yuv/uH23AguhL4AAAAAAAAIRgTAAAAEqE8/327fAjpHu/PP0OWXRanXjWfprMbVTVXauMmm777fbUYl88FHW3Xo0Akzkv5yUT1dekl93dq7mRo2rGaq0h/rU/Tj4r1mVDLWqmFr9XCOyzo1sK/+7d+3uerXr2qq0ppfD2nZ8n1mBDgQ+gIAAAAAACDYEQADABCgrNW3zoY/0FYhIVKVKpV0/9DWpuow5XXX+xbFWnU75bU/zMjBWp1rzR0WVklDB7cyVYe8x1EUx9x5j9ux8rdq1coaPKilvZ/jVTeOG4GL0BcAAAAAAADIFZKSkuLVzROTk5MVGxur8RNe0ZhRI0wVANyX8zoSHx+vqKgoU3Xl8przSG9TBcqPtRVyUQGntXK12zWNzKj8/LJivy69bJ4ZSXXrhmvn1v6qVq2yfXzw4Ak1bv6R0tJO2cdWeLt5Qx+dc3YN+7goS5buVZerF5iR1KBBVe3Y0l/h4Y73lSUnp+mssz88fe3hSpVCtGVTHzVrGmkfF+WHRXt09XULzUg6s1GEtm3up9DQ7APMtmv3MTU95+PT1x6uXDlE2xP6qvGZuSuaS8s67lnvbDaj/K7s0tC+yhm+wQp9//hsm9Z/ul3xC3ao7a3N1aZPM8JeAAAAAAAA+I/QJrLZbGZQOlOmzcqXpbACGAAADxw9mqFRT64stM2dt8Pcs3xZ1/V1du89LU+HvxYrEL594Dlm5Fh5+/o0188pTN657xvc6nT4a4mKqqoB/c42IykzM0tT3yjd3EOHtDod/lqsQLjPLc3MSPYg+I0ZrtciLq1du48W+BjmtCVLk809UVFY6QsAAAAAAAAUjxXAAHwWK4BRkMlT1uu92VvMSGrVslb2z0fuNWfLm7UCeNr0wsPNC9rV1VVdo82o9P7884T9erp16jiC27/elhuw5mVd97fJOR+dXoFrrZLdGt9XTc5yXSX7+9pDanfRf81IqlkzVLu291dkZKip5Ldj51GdHfvJ6RW41nbSO7b0U3S062OwYuUBXdLpSzOSatcOU9K2/qpevYqp5Ldt+xHFtPrUHhhbrFDZWrXsfN1fy0/L9unyK78yI6latSq6955Y+7F4Yt++4y4/W3l1vqKh/VrHKFtbtx7WzqSjZiQ9O+YCNTmcwUpfAAAAAAAABJ4yWgFMAAzAZxEAoyA9b/5O8+bvNKPgdMnF9fTzTz3NKL9nx/+qZ8avMSPZV8x+8mFXM3J15TULtHjJXjOSXp/SQcPuc70+sLPRT63ShH/+bkbSwAFn6/13upiRq06d52l53H4zkqZP7ZTvGr7OHh21QhNfXmdG0l13tNB/Zl5uRrms1cotz/1cmzd79osRfNt52a1tdmtVObvf92xCXwAIcKmpR7R23UY1bMjlFkrqZEamQiqF2N/sh5JJO3FSVcMLf0MiXJ06mWn/3btKKBsIllR69vMytEol+yV2UDzrzb8nT2UqLDR3tyoUbf+BQzq7eRM1qF/XVAAAfo8AGECwIQBGQQiApRqRVZRy4Hb7tXXzSk/PVNOYj+2rgHMs+aGHrri84OfQ518k6tZ+P5iRY0X1+t9vKfAPFtZq57PO/sh+/eAccf+7sdDr4n748VbddvtiM5LObXuGfl99c4FzHz160n5N4pSUdFORVv3cy34N5YKMenKVXnwpN4hGYKmT3ay3LPyR3f76zIV66okLrDIAIIB9/Ok83fH3h9X4TM93TgkWGSdPqVL2L1aVKxPOldTxtAxVq1r4bjdwZQVzWVlZCq1COFdSJ9JP2sPMEBLgErEHwCczFRbGz1hJJSfv14gH79Y/xj1qKgAAv0cADCDYlFUA3KhpB+1OjDMjzwTDXBZfOjYCYId5X3TTDT0am1Gu2R9u1V/vyA1d251/htascISuBZ176x/bZ8d+6rLl7jfzr1O3axqZUa63Zm3WPYP/Z0bZv5uE7lP60cfNKD9rC+qmMR9pz57cMPqHb65X1ysbmlGu2vX/nv2LTmczki7r1ED/+/EGM8rvm29367obvjYjBLLxXgqAffU11lfnsnDO3BMMc1k4Z+4Jhrks3phv1eq1GjJstHbvOcD5L6H4LQf07Ph/6f1ZL5iKZ3zx5yKHN+aygsylcYkaMGCAzz2WFl+ca9eeVHto3vnKGzhnJbRiTZKGDhuulcs/NxXP+Or5snhjvhTbcSUm2XR9j5t98vv0xbn6Dhiq7xct16HkX03FM774c5GDudzjq3NZOGfuCYa5LJwzJwTAAIJNWQXA8G9Pjlml51/MXfn56P+dq2uuzh9Wlhdbarr63fajGeXXq2cT3X9fKzMqvTn/TdQbMzaZkXRttzP19VfXmlGuDpfP08+/5G67/OaMy3X3XS3MqGAvvrRWo55caUbSjTecpS/nXGNGDtbWbxde/IV++/1PU5HendXZfj3ioox/7jeNfXa1GUk392qqOZ9eZUYO1tznXTjHfo3jHB/NvlL9+jQ3o/wOHTqhZXH7tHGjTWc1rq4zzggzt5RewpZU3T+88F/KBt0dq763NjMjlJV/vxmvTz/fbkbF/ywAAAJDTgC8Mm6eqaA4VgBcIzJc0VE1TAVFyQmAO3fk97mSygmAY5qz1WxJWQFw21ZRiqjGSvOSyAmA27XN/yZhFMwKgPv366k+t/QwFQCA3yMABhBsCIBREOsasda1YnO8/dYVuuP2GDMqfwcOpKl+ow/MKL8HhrXWq5M7mFHp2WwZOrPZh/atknNYWzW3blXLjKRfVuzXpZfl/tG0bt1w7dzaX9WqFb2dlrWls7X9clraKfvYWi28eUMfnXN27h8Tl/4vWZ2vmm9Gyn5OVlViQn+Fhxe95WBycpqanPORfWtqi7Vt9ZZNfdSsaaR9bFn0415dde0CM5LObBShbZv7KTS0fLdNW73moC66dK4Z5ffPFy7Wo4+ca0YoK3mvBb3gy27qfl3+1e4AgMBCAOw+AmD3EAC7jwDYfQTA7iEAdh8BMAAEoDIKgLlQDAAAHjjjjHCtWXFToe3xR88z9/RMrVqhuusO16D7takbTM/h1dddx/fe07LY8NdiBcXOK3mtFbmvT3Oda8pr603P4b7BrYoNfy1WUDyg39lm5LjG09Q3ip576JBW5R7+Wlq3ql3gY5jT7vxbxb3RAAAAAAAAAABKigAYAAAPVK4cogva1Sm0NT6zurmn5x4Y1sb0HN5+d7N9ZbBl797j+uiTrfa+xTouK0gtqQfvb216Dm/+J15Hjjjmtq4PbG1BncMKZ4cMKvncwx9wPe6Zb8Xr2DHHSubtiUc0d94Oe99ihcqDB7U0o/JlheUFPYY5rUGDquaeAAAAAAAAAOC7CIABAPATrVrWsl/7N4e1HfR/3o6392fM3KSMjNyrOvS+qamanFXy8Pn88+qoS+fcbbdSUzP07vtb7P1p0zfq1Kncua3rsUZHVzOj4l3Uvq46dWxgRtKff6br/Q8cYbW1GthaFZzjtv7nqH59glYAAAAAAAAAKC0CYAAA/Mjw+11X01rbPh8/fkrTZmw0FYe8q25LIu/nWFszHzt2yh4uO/PW3EeOnNS/33QE2DnyrkQGAAAAAAAAALiHABgAAD9yffczdc7ZNcxI2rrtsMY+s9q+BXSOduefocsvc1zs3x29bjxLZzXOXTW8cZPNPvfBgydMRbr0kvq65OL6ZlRyt9zcTI2iI8xIWvfHn3p63BqlpKSbinRZpwZqf2FdMwIAAAAAAAAAlAYBMAAAfqRSpRA9mGcV8L/fcl1FO/yBtgoJMQM3VKlSSfcPdV2Bm3fuvF+7pKzrBue9JvHMtzxfWQwAAAAAAAAAcEUADACAn7nrjhaqXr2KGUk2W+4q2rp1w3Vb/7PNyH2D7o5V1aqVzci6FnDu3A0bVlPfW5uZkfsGD2qpsLDcXz2s6wznOLNRhHrfVPq5AQAAAAAAAAAOBMAAAPiZWrVCddcdMWbk6t57WqpatdwA111WgHz7wHPMyNV997ZyCXDd1aBB1ULDaWt1sLVKGAAAAAAAAADgGQJgAAD80APD8m+XXLly/m2WS+PB+123gbZY4eyQe1uaUekVtIV0eHgl++pgAAAAAAAAAIDnCIABAPBDrVrWUps2tc3I4S8X1VOTs6qbUemdf14dxcTUNCOHjh2i7FtAe+qi9nXVrFmkGTlcfllD1a9f1YwAAAAAAAAAAJ4gAAYAwE/99TbXrZrv+Xus6Xlu4IDmpudgbS3tLX1vdZ37vsGs/gUAwL8t0pCwpgrJbp2mbDc1AAAAAEBFIQAGAMBPPfH4+br7rhb2Vb/Wts333uO9APjpp9rrb3+Nsc/98IhzdfvAgq/dWxoTnvuLbhtwdvbckXr80fPV55Zm5hYAAOCXFn6jGaYLAAAAAKh4BMAAAPixN2dcrsQt/TRlUgdT8Y5K2b8hvPOfK+xzv/zSxabqHdbcs9/pkj13X0147iJTBQAAfmnhaIX0mm0GAAAAAABfQAAMAAAAAABKLGFKb/t2z/ZG+AsAAAAAPocAGAAAAAAAAAAAAAACBAEwAAAAAAAAAAAAAAQIAmAAQadRU+9dKzUY5rL48rF5SzA8lt4+95wz9/jqXBZfPjZvCYbH0tvnnnPmnmCYy8I5c0+gzhUzfI6y0hNPt/o1w8wtnuP8u2fk48+bnue8eVwWHkv3+OpcFs6Zezpf1d/0POer36MlGB5LX51r8NAnTM9z3jwuC4+le4JhLgvnzD3BMJeFc1b2QlJSUrJM3yuSk5MVGxur8RNe0ZhRI0wVANyX8zoSHx+vqKgoU3Xl8przSG9TRSCb+PI6PTpqhRlJb791he64PcaMAPg76/ltPc9zLPiym7pf19iMAAC+yLomcIuRq+39jhMXa9nwZva+O1atXqshw0ZrZdw8U0Fx4rccUI3IcEVH1TAVFCUrK0tL4xLVuaP7P5/BateeVB1Py1BM87qmguKsWJOktq2iFFEt1FRQlBTbcSUm2dSubUNTQXH6Dhiq/v16qs8tPUwFAOD3QpvIZrOZQelMmTYrX5bCCmAAAAAAAAAAAAAACBAEwAAAAAAAAAAAAAAQINgCGoDPYgtoFIQtoIHAxhbQAOB/itsC+tff1stmSzWjgm3ctCX79f/fmvzyOFMpXIsWZ6tBfbakTdqdqmrVqqjuGRGmgqJYW0Cv3bBP57cp+N+WyO/AoWM6ceKkzoyuaSoozsaEA2p+Vm2Fh1cxFRTlyNF0Je8/onOa1TEVFOeuu0fotv691L/fjaYCAPB7ZbQFNAEwAJ9FAIyCEAADgY0AGAD8T3EB8IMPjdXadZvMqGAHDkRqU/wA1a0brkqV0rLbMVWufDz74/Hsj6kKC9ur8PA99v7dd9+hyzp1NJ8ZvI4fz1ClyiEKDyNoKinreqO1a1UzIxTnRPopZZ46pWrVwkwFxTl8+IQiqoeqciU2XSyJkydPKe3EKUVW52espB59dLT+OvAm3Xn7zaYCAPB7BMAAgg0BMApCAAwENgJgAPA/xQXAJbFo8Ubddc/PGvHAAzp6tJKOHA3J/mi1Sko7EaJNm6poe2IVnTolNWt6She1T1ejRqd08V9O6C8XpevM7H6wid9yQDUiwxUdVcNUUBRrBfDSuER17uj+z2ew2rUnVcfTMhTTnBX3JbViTZLatopSRLVQU0FRrDdlJCbZ1K5tQ1NBcfoOGKr+/Xqqzy09TAUA4PfKKADm7WgAAAAAAKBC1ayRofr1PtH/PXRYY5606cXnU/TaK3/qPzMP6oN3D2j1L3t1KDlJO7fu1ruzDqjvrUdVrWqm/jMrUpd2aqjoJmeqV+/6mvJaDf2ygpVkAAAAAIIbATAAAAAAAPALNWtm6vzzMnR99zQ9OTpVX3y2X0nbd2nNL3t176Ajysy0tpyuo7oNG+v2O+vq/Q+q69Ah/vQBAAAAILjwryAAAAAAAODXGjY8pZ43HNdDww/r55/2avP63faQeMHCqmrRppH+ekddvTEj0r6tNAAAAAAEOgJgAAAAAAAQUOrUydRfbzuq994+qIN7k/TQg4f12+9himrcWLf0rafPv4gw9wQAAACAwEMADAAAAAAAAtrFF6dr2muHdOTPnfrb7cf0/uwIVa99lh55rLa2ba9i7gUAAAAAgYEAGAAAAAAABI3eNx3TZx8f0P7dSWrW9JSuvraBevWur+++r2ruAQAAAAD+jQAYAAAAAAAEnYiILD14/2Ftjd+tewcd0YsTa6ptu2jNeqe6uQcAAAAA+CcCYAAAAAAAUGIJU3orJKzp6dZi5Gpzi7R8ZBeX2zpN2W5u8W09bziubxfs0ycfHtCmTaGq36ixXp9Ww9wKAAAAAP6FABgAAAAAACBbm9YZeuG5FG34fbc2bKxCEAwAAADALxEAAwAAAAAAOKlXL1OvvfKnSxD89ruR5lYAAAAA8G0EwAAAAAAAoMRihs9RVnpiidqy4c3MZ/kn5yB4x87KatG6keYvqGZuBQAAAADfRAAMAAAAAABQBCsIHvOETQvm7dPrb0TquhsaaOOmUHMrAAAAAPgWAmAAQadR0w6m57lgmMviy8fmLcHwWHr73HPO3OOrc1l8+di8JRgeS2+fe86Ze4JhLgvnzD3BMJclmM5ZzDkn9dV/9+uRh1LVu089DX2gjjIz7TeVmDePa+Tjz5ue57x5XBZffyy9IRjmsnDO3NP5qv6m5zlf/R4twfBY+upcg4c+YXqe8+ZxWXgs3RMMc1k4Z+4JhrksnLOyF5KSkpJl+l6RnJys2NhYjZ/wisaMGmGqAOC+nNeR+Ph4RUVFmaorl9ecR3qbKgLZxJfX6dFRK8xIevutK3TH7TFmBMDfWc9v63meY8GX3dT9usZmBAAIVKtWr9WQYaO1Mm6eqfiHN2ZE6s3/RGrIvUc06O4jplo+4rccUI3IcEVH1TAVFCUrK0tL4xLVuaN/b0tennbtSdXxtAzFNK9rKijOijVJatsqShHV2CGgJFJsx5WYZFO7tg1NBcXpO2Co+vfrqT639DAVAIDfC20im81mBqUzZdqsfFkKK4ABAAAAAABK4b7BR7Ri+V79/EuYLusSpU3xhD4AAAAAKh4BMAAAAAAAgAf+/cYhvTQhRTfdUk+jnqxtqgAAAABQMQiAAQAAAAAAPNSp4wltXLdHZ9TOVFTjM/X9oqrmFgAAAAAoXwTAAAAAAAAAXvL4o6lau3qv/jmxpoY+UMdUAQAAAKD8EAADAAAAAAB4UYMGp/T1V/vU7vx01W/UWEuWhptbAAAAAKDsEQADAAAAAACUgfsGH9GG33drzDO1NfzhM0wVAAAAAMoWATAAAAAAAEAZqVcvU4u/T1aLmJO68uoo/fpbmLkFAAAAAMoGATAAAAAAAEAZe/D+w/rw/QP6+6A6evGlmqYKAAAAAN5HAAwAAAAAAFAOGjY8pTUr9urPlEq66toGysgIMbcAAAAAgPcQAAMAAAAAAJSjCc+laMwTqapeu7HmfVXNVAEAAADAOwiAAQAAAAAAylnXK9OUfnSnps+M1Lh/1DJVAAAAAPAcATAAAAAAAEAF+XLOfjVpclLtLopWaip/pgEAAADgOf5lAQAAAAAAUIHuuuOo3p11QGed3UhfzWdLaAAAAACeIQAGAAAAAACoYOeflyHbgSRNmxGpUU/WNlUAAAAAcB8BMAAAAAAAgI+Y98V+nVE7U506R5kKAAAAALiHABgAAAAAAMCHPP5oqv71zxRdeHFDrVwVZqoAAAAAUDIEwAAAAAAAAD6mY4cTWrNir4Y+UEdvzIg0VQAAAAAoHgEwgKDTqGkH0/NcMMxl8eVj85ZgeCy9fe45Z+7x1bksvnxs3hIMj6W3zz3nzD3BMJeFc+aeYJjLwjlzj7tzrVi+V7/9HqZ776tjKrlGPv686XnOm9+jhcfSPb46l4Vz5p7OV/U3Pc/56vdoCYbH0lfnGjz0CdPznDePy8Jj6Z5gmMvCOXNPMMxl4ZyVvZCUlJQs0/eK5ORkxcbGavyEVzRm1AhTBQD35byOxMfHKyqq4OtfubzmPNLbVBHIJr68To+OWmFG0ttvXaE7bo8xIwD+znp+W8/zHAu+7Kbu1zU2IwBAoFq1eq2GDButlXHzTAV5zXwrUq9Pi9Sqn/eqUiUpfssB1YgMV3RUDXMPFCUrK0tL4xLVuWMzU0Fxdu1J1fG0DMU0r2sqKM6KNUlq2ypKEdVCTQVFSbEdV2KSTe3aNjQVFKfvgKHq36+n+tzSw1QAAH4vtIlsNpsZlM6UabPyZSmsAAYAAAAAAPBxg+4+ov/MPKSIWmdp1WquCwwAAACgcATAAAAAAAAAfuCCdulKO7xTQ4bV0edzWJUJAAAAoGAEwAAAAAAAAH5kZdxerVgRqWfHsW0qAAAAgPwIgAEAAAAAAPzMC88nqmF0hq7t0cBUAAAAAMCBABgAAAAAAMAPDbn3oB79v1Q1POtM7d9f2VQBAAAABDsCYAAAAAAAAD/V7Zo0/bZyr/rdVldL/xduqgAAAACCGQEwAAAAAACAH4uKOqVF3+3Tk2Nr683/RJoqAAAAgGBFAAwAAAAAABAAlvyQrOVxYXr8idqmAgAAACAYEQADAAAAAAAEiJnTD6lunUzdfGt9UwEAAAAQbAiAAQAAAAAAAshjI1P197uOqM350aYCAAAAIJgQAAMAAAAAAASYm3oe12cfH9DV1zbQzqTKpgoAAAAgGBAAAwAAAAAABKDWrTL07cJ9uqxzQy1ZGm6qAAAAAAIdATAAAAAAAECAqlRJ2rF1l8Y8U1vvvFfdVAEAAAAEMgJgAAAAAACAALf4+2R9/0NVPTu+lqkAAAAACFQEwAAAAAAAAEHg7bcOKiv741331HUUAAAAAAQkAmAAAAAAAIAg8cwYm7pemabbbq9nKgAAAAACDQEwAAAAAABAELnzb0d1/9DDOqdlI1MBAAAAEEgIgAEEnUZNO5ie54JhLosvH5u3BMNj6e1zzzlzj6/OZfHlY/OWYHgsvX3uOWfuCYa5LJwz9wTDXBbOmXu8OdfIx583PfddftkJfbtwn8Kqn6Xk5MpePS4Lj6V7fHUuC+fMPZ2v6m96nvPV79ESDI+lr841eOgTpuc5bx6XhcfSPcEwl4Vz5p5gmMvCOSt7ISkpKdblX7wmOTlZsbGxGj/hFY0ZNcJUAcB9Oa8j8fHxioqKMlVXLq85j/Q2VQSyiS+v06OjVpiRdR2zK3TH7TFmBMDfWc9v63meY8GX3dT9usZmBAAIVKtWr9WQYaO1Mm6eqaA48VsOqEZkuKKjaphK6WRkhOissxvpyzn7dfFf0k018GRlZWlpXKI6d2xmKijOrj2pOp6WoZjmXDO6pFasSVLbVlGKqBZqKihKiu24EpNsate2oamgOH0HDFX/fj3V55YepgIA8HuhTWSz2cygdKZMm5UvS2EFMAAAAAAAQJAKDc3S3p27dP/wOvpibjVTBQAAAODPCIABAAAAAACC3C/L9uqDD6vr1dc9W1EMAAAAoOIRAAMAAAAAAEAfzT6gzQlVNPqp2qYCAAAAwB8RAAMAAAAAAMBuyqQ/Vatmpu68m+u+AgAAAP6KABgAAAAAAACnjXosVVdflaZu1zcwFQAAAAD+hAAYAAAAAAAALu64/ageH5mqcy+INhUAAAAA/oIAGAAAAAAAAPlcc3Wa/brAXa+J0okTIaYKAAAAwNcRAAMAAAAAAKBAbdtkaM6n+1WrXmNt217FVAEAAAD4MgJgAAAAAAAAFKp27UylHd6pq69toGXLw00VAAAAgK8iAAYAAAAAAECxtsbv1qOjauuzORGmAgAAAMAXEQADAAAAAACgRH5anKwPPozQa1NrmAoAAAAAX0MADAAAAAAAgBL79KMD2hRfRf+aRAgMAAAA+CICYAAAAAAAALjl1cl/qmrVLN0zuI6pAAAAAPAVBMAAAAAAAABw2/1Dj+iyTum64ab6pgIAAADAFxAAAwAAAAAAoFTuvuuI7r/viNpf0tBUAAAAAFQ0AmAAAAAAAACUWo/rj+vNGYfUqOmZpgIAAACgIhEAAwAAAAAAwCMXXpCuVXF7VSm8ifbt589NAAAAQEXiN3IAQadR0w6m57lgmMviy8fmLcHwWHr73HPO3OOrc1l8+di8JRgeS2+fe86Ze4JhLgvnzD3BMJeFc+Yeb8418vHnTc9z3jiu6OhTOpW2Q7371Ff9Rn83Vc/xc+Eeb85l4Zy5p/NV/U3Pc776PVqC4bH01bkGD33C9DznzeOy8Fi6JxjmsnDO3BMMc1k4Z2UvJCUlJcv0vSI5OVmxsbEaP+EVjRk1wlQBwH05ryPx8fGKiooyVVcurzmP9DZVBLKJL6/To6NWmJH09ltX6I7bY8wIgL+znt/W8zzHgi+7qft1jc0IABCoVq1eqyHDRmtl3DxTQXHitxxQjchwRUfVMBXf0u6iaL004U9d2y3NVCpWVlaWlsYlqnPHZqaC4uzak6rjaRmKaV7XVFCcFWuS1LZVlCKqhZoKipJiO67EJJvateUa4iXVd8BQ9e/XU31u6WEqAAC/F9pENpvNDEpnyrRZ+bIUVgADAAAAAADAq35btUf/mlxT77xX3VQAAAAAlBcCYAAAAAAAAHjd11/t0/c/VNVL/6ppKgAAAADKAwEwAAAAAAAAysTbbx3U/gOVNOrJ2qYCAAAAoKwRAAMAAAAAAKDM/POFFDWKPqmBf6tnKgAAAADKEgEwAAAAAAAAytTwB46o543H1LVbA1MBAAAAUFYIgAEAAAAAAFDmbut/TE8/lapW50abCgAAAICyQAAMAAAAAACAcnFllzT99/MDqlWvsY4dCzFVAAAAAN5EAAwAAAAAAIBy0zI2Qzu37lb9Ro21bVsVUwUAAADgLQTAAAAAAAAAKFc1a2bqaMpODf+/M/S/n8JNFQAAAIA3EAADAAAAAACgQnw5Z79GP1Vbn3wWYSoAAAAAPEUADAAAAAAAgAqzdFGyPvk0QlNeq2EqAAAAADxBAAwAAAAAAIAK9fEHB7RlaxX7amAAAAAAniEABgAAAAAAQIV75eU/Vatmpu66p66pAAAAACgNAmAAgF/4+Zf9un94nOb8N9FUHN55b4u9vn5DiqkA8Efffb/b/ly2Pjp7fdpGe31n0lFTAQAAgWzUY6nqemWa7ru/jqkAAAAAcBcBMADAL2zcZNPUNzZo2fJ9puLw/Q+77fUdO46YCgB/tObXQ/bn8q+/HTIVh3nzd9rr+/enmQoAAAh0d/7tqAb0P6o250ebCgAAAAB3EAADAAAAAFAqERoS1kQhxbZoTU4wnwKgRK7sfEKffXxANeqcJZuNP18BAAAA7uA3aAAAAAAASmphPadgt55mmHLRQvVwm9xAeMhCUwZQpNatMrRnR5KaxjTSuj9CTRUAAABAcQiAAQSdRk07mJ7ngmEuiy8fm7cEw2Pp7XPPOXOPr85l8eVj85ZgeCy9fe45Z+4JhrksQX3OcoLfXhGmUHozejmC4E5TSh5o+er5svjdY1kKvjrXyMefNz3PefO4LN6aLzIySxERjXXb7fW08Ouqplp6wfBz4auPpSUY5up8VX/T85yvfo+WYHgsfXWuwUOfMD3PefO4LDyW7gmGuSycM/cEw1wWzlnZC0lJSckyfa9ITk5WbGysxk94RWNGjTBVAHBfzutIfHy8oqKiTNWVy2vOI71NFYHo7XcTdNc9S80ovwVfdlP36xqbEQB/89K/1umx0SvMKL9VP/dS+wvrmhEAlKOEWurUppaWm2Feg+fu0PTuZlAYKzwuNDjO0KT1e/RQjBkGqVWr12rIsNFaGTfPVFCc+C0HVCMyXNFRNUwl8F3fs4EG9D2qO+84aioll5WVpaVxiercsZmpoDi79qTqeFqGYprzO1hJrViTpLatohRRjRXrJZFiO67EJJvatW1oKihO3wFD1b9fT/W5pYepAAD8XmgT2Ww2MyidKdNm5ctSWAEMAAAAAEABFgxropB84e8xzU/foSzTig1/Ld0PnL5/1nqbOpqyg9keepjnK4uBQLfgy31atz5UTz1d21QAAAAAFIQAGAAAAAAAF6Ga3LmJesw0Q0sHmzbbQ9wDut6USiXGpmX2efZokvOOYDPrKaRzLSWYIYCCvTQhRdWqZupvd7EqFQAAACgMATAAwC/c1v9sHdw7UM+OvdBUHKa+2tFev/qqM00FgD968P7W9ufyA8Nam4rDx7OvtNfbnV/HVACgPIRqQ5zp2rdo3qGsJTZ5d5fmDD20JM+K4LhQbTZdAIV7cnSqrrs2TV2uLvhSQQAAAECwIwAGAPiFsLBKqlMnXBERVUzFoXr1KvZ6aGiIqQDwR1WrVrY/l62PzmrUCLXXK1fmOQ6gAthX/Zbx9XntK4LzrAYGUKzbBx7V+GdS1CymkakAAAAAyEEADAAAAABAXoMOlMGq38I4VgPPH2SGAEqk8xUntPiHfaoX3Vg7drq+URQAAAAIZgTAAAAAAAC4OKbpU4+Zfl4RGhLWRCHZbchCUyqhBcMcnxcSVk8LTM3Z9VM9vL4wEISaNjmpA3uSdMWVDbR4SbipAgAAAMGNABgAAAAAgHJwfa+cUDlUmxJMF4BXJG7ZrafH1dasd6qbCgAAABC8CIABAAAAAChXodpAAAx43Y/fJWvxkqp6elwtUwEAAACCEwEwAAAAAAAAAsJ/Zh5U5UrSHX+vayoAAABA8CEABgAAAACgrCXUUqdeEWaQodYxpgvA68Y+ZVO3a9J01z2EwAAAAAhOBMAAAAAAABQoVJM7N1FImHOrpxnm1hm98t5WRGtTS8vN56nDMd1IAAyUqb/99aiG3HtEjZqeqWPHQkwVAAAACA4EwAAAAAAAlJsMTXrLJvJfoOx17HBCq+L2qn6jxvp9bZipAgAAAIGPABgAAAAAgPLQwabN6Xv0EOkvUG6io0/paMpO+zWBFy+uZ6oAAABAYCMABgAAAACgQBl6aMkOZaU7twMabG4dPDfvbcW0Jaz8BSrKryv36PvvG+jFl2qaCgAAABC4CIABAMFl30FpwmvSR/81Bc8sGNZUIWGO1mnKdlMtoYWjT39uyLBFpliURRpS2q8FwItyn4v522gtMPcqOZ7bAACUh3Hj1uvPlEp66ulapgIAAAAEJgJgAEBwSd4njX1JevsTU/DM9b0Gmp60/NPvlWD6JbFg7mzTkwb36mp6RVj4jWaYLoAKkPCmOtmD2ruKeC7OVg93w1ye24CfOabpZkXv9O6mBMBvTHguRW1an9TlV0aZCgAAABB4CIABAPBE92tPbwOpuHmaV+IEeJG+mGm6Gqibi/sDsrVauFduYAygfCVM6a2QNuO03IxLYvnILsWHwDy3AQAodwMHHNWLz6eoXnRjHTjAn8YAAAAQePgtFwAAj3TVzYNMV6v18fxSrPgbdK2uN11n9sDJrCQkIAIqjvVcbDFytRk5dJy4WFnpifna/NOvB4XjuQ0AQMW7rNMJbVq3W63Pb6Sl/ws3VQAAACAwEAADCDqNmnYwPc8Fw1wWXz42b/HkuPJuA92gBHO5vf2zFwTLzwVzuc+Xj81bSn1cCW/qDufwt8NY1Y+O1rLhzUzB1fVTSx4Ee1uw/Fwwl3u8OZeFc2aJ0JCwJgrxqNVz+3rhvnq+LP77WJacr8418vHnTc9z3jwuiz+c/7p1M7V/d5KeHFtb/34z0lRLzh++R28Ihu/Tm3N1vqq/6XnOV79HSzA8lr461+ChT5ie57x5XBYeS/cEw1wWzpl7gmEuC+es7BEAAwg6uxPjTM9zwTCXxZePzVs8Oq4820A/8X1xc7m5/bOXBMvPBXO5z5ePzVtKe1wLXnba9rnDWG1eco/2lWAuexA8N/fNIeUhWH4umMs93pzLwjmrOL78PQbDY+mrc0180XshgDePy+JP53/JD8lasTJMY56pbSol40/foyeC4fv05lxLfvjI9Dznq9+jJRgeS1+da8Y07735x5vHZeGxdE8wzGXhnLknGOaycM7KHgEwACBw9R0sdR/o2oaOcty2em3+26z20X8dt7vFzW2gS7D9syVm+ByXrWU3T2xvbgFQLhLe1PjTb9Zor0lv3aMYMyqR7i8UuFKY5zYAAL5nxrRDim54Utf2aGAqAAAAgP8iAAYABK7//SL98JNr++VXx22HUvLfZrXtSY7b3ZR3G+gE0y9IRWz/DMB9CfPn5a7+HTRcD7mV/gIIXMc0PX2HstxqezTJ7P7VceKe7PGBQt8ABqDiDLvviB79v1Sd2fRMpaTwJzMAAAD4L36bBQAErkWfSqu/dm0fveG4rUP7/LdZ7e4BjtvdlWcb6HmFJsAVs/0zAPdt3ph77V/erAHAMxl66C2bOmb3lo+sp8lFvVMMQIXqdk2aVsTtVfPYRvppWbipAgAAAP6FABgAELhaxUjntnJtMWY71sjq+W+zWv26jtvdVsJtoEu4/TOAirZdm9aZrtqrNat/AXgqxqYx9t8VQvXw3bWK3C0EQMVqFH1Kf+5L0uNP1NZbsyJNFQAAAPAfBMAAAHiJyzbQG7eZniu2fwb8xTZtiDNdAPCS63sdc3TiIorYLQSAr/jfj8la+0eoHhhxhqkAAAAA/oEAGAAAb3HeBnrmN1pgurnY/hnwT63UkhXAALwqVBsIgAG/MOmlP9W61UldfmWUqQAAAAC+jwAYAACvcd4Gera+WGi6Odj+GQCAoJYQH2p6APzJ/UMP68XnU1Sjzlnauq2KqQIAAAC+iwAYABBcKld2XOe3Zg1T8C7nbaBnzF1keg5s/wz4k+Zq3cF0tVGbWKkHwEMJU6LVYmROAJzBtcUBP3NZpxPasyNJ3bo30OdfRJgqAAAA4JsIgAEAwaVNrLRrtfThNFPwskK3gWb7Z8C/NFPLc01Xq9mqFYCTCA0Ja6IQN1tu+JttkE0PEQADficyMktbNu3W+7MjNOmVmqYKAAAA+B4CYAAAvKqQbaDZ/hnwOy1atTe9/Cv6AaDUOti0eeoxMwDgjz77+IAqVc5Sz971TQUAAADwLQTAAAC/kZ6eKZst3Ywc/vwzXRkZWWbkGwraBprtnwH/E9PjRnU0fc2cosmsAgbgkQxNWr9DWUtsYvEv4P9GPHBYQwYdUaOmZ2rPnsqmCgAAAPgGAmAAgE/KypI2brLptakbdGu/H9Sy7eeKqPWO/vHCb+YeDg898rOq135bbdvN0W23L9aMmZu0ddthc2sFybcN9HZtWmfGbP8M+I+Yq9Xv9HWAV+vhu9+UWxnwwtHqNGW7GQAIHMc0PX2Hstxue9j2GQgwN95wXKvi9uqiDg0176tqpgoAAABUPAJgAIBPOXjwhCa+vE7nt/9Crc/7XA8+FKfPv0hU/GabTp0qeKWvtQJ4/YYUffjxVg0ZtkzntPxUF3f8Uq9P26jDh0+ae5WnPNtAT/leH8eZIds/A36kmR56IndFv+LGqUXnkoXAC4Y1VUiv3JX/AAAgMEVHn9LuxF2aPjNSz46vZaoAAABAxSIABgD4hOPHT+nFl9bq7Jaf6NFRK7Tujz/NLaWzctUBPTBiuWJaf6Jp0zeW+zbRLttAjxyn5abP9s+An+n+gjZPzL0WsD0EDmta6Mpee/CbfXuPmaYAAACCwpdz9sv6F8cDw+s4CgAAAEAFIgAGAFSozMwsvTd7i1q2/Uyjnlyp1NQMc4urKlUqqWVsTbW/oI6aNY3UOWfXVNPsj3+5qK5izqmpypVDzD1d7duXpmEPLtd5F36u/365w761dLlw3gb6NPe2f06Y0tseJOW0FiNXm1uk5SO7uNzGNrNA2YkZPkfzT6/qd8j7HMxpJQl+eW4DgShCQ8KaZD9vC25DFpq7AQhoz4yxqVevY6rfqLG2bK1iqgAAAED5IwAGAFQYa7vna7ov1N/uWqKdSUdNNVfbNrX1+KPnaemiHjpmu0Mb192qVb/cpG2b+yph463anv1xxfJe2rzhVh1NuUPfLeyuh4a31Tln1zAz5NoUn6qbb/1effr/oCNHCg6Zvct5G2iD7Z8Bv3X91ERlzXXaDroEBs9N1LLhzcwIQGDKCX7raYapFGRGL4JgIFhce02aNvy+W9f1aKD3Zlc3VQAAAKB8EQADACqEdc3eSzp9qUU/7jUVB2ul7/1DW2nLpj5a92tvTXjuL7r8siiFhha8wjdHeHglXX1VtCZNvESbN/TRH7/11h23xygkz6dZ1xO+/MqvtGNn/sDZ25y3gbaw/TPg57q/oKz0RGWtH6uOppRPh7HabN0nu013Y8U/AD+UUEudigl+87KC4E5TQs0IQKCqVy9TCRt36+tvquqBEWeYKgAAAFB+CIABBJ1GTTuYnueCYS6Lt49twcJd6njFPG3ddthUHQb0O1sb1vbWa6901NnN86/izauw47JC3zata+vtt67Qrytv0g09GptbHH77/U9d0mmulsftN5UyOv85YVEpwyBr29no6GiXOQprJVll6M3v0VIm58wLmMt9vnxs3uLV7/Hqf2tZAc9De1tyj2LM/QpjPbdz7l/cc9ydFcTB8nPBXO7x5lwWzlmOCA1pU+v0Nf6lDE1avyP7eevaoqMbZX/co0lOUy4fGV2qlcC+er4s/v1YloyvzjXy8edNz3PePC4Lj6X07qyDat3qpP7SoaEyMop+Q6uvfo8Wfz3/7vDmXJ2v6m96nvPV79ESDI+lr841eOgTpuc5bx6XhcfSPcEwl4Vz5p5gmMvCOSt7ISkpKV69GmJycrJiY2M1fsIrGjNqhKkCgPtyXkfi4+MVFRVlqq5cXnMe6W2q8GVz/rvDvg2zde3fHA0aVNUnH3RV5ysamor3ffnVTt1+52KXawxbq4a/XdBdV1xe8M8XgPL36KgVmvjyOjOSFnzZTd2vc30TBwBUtIQp0Wox0rGSt+PEPVo2vASXl7BWDOeExh1s2rzEVuwbRoLJqtVrNWTYaK2Mm2cqKE78lgOqERmu6Kji3zgJKSsrS0vjEtW5Y/lfnmHV6jD1va2eZr5xSFd1TTNV37drT6qOp2UopnldU0FxVqxJUttWUYqoxm4PJZFiO67EJJvatS27vwUEmr4Dhqp/v57qc0sPUwEA+L3QJrLZbGZQOlOmzcqXpbACGABQbqyVt1YI6xz+XnhBHft1fMsy/LX0vOEsxf2vp1rE1DQV6cSJTN3S7wdt237EVAAAAIoTqnmfmj/sd7DpnZKEv5aY7PtONPeNi9C8BEcXQOC7qH26tm7arecm1NS4f9QyVQAAAKDsEAADAMrFvn1p6tX7Wx07dtJUpN43NdH/frxBTc6qbiplq3WrWvplWU9d1TXaVKQDB6zj+k6HD+ceFwAAQOFCtSHO0evY55hbq3hjehwz1xDPnoMAGAg633+9T6cypetuaGAqAAAAQNkgAAYAlLn0dGul7ffasfOoqUgdO9TXB+91VUREFVMpH7Vrh2nOJ1fbw+Ac6/74UwPv+NFlZTIAAIDXxWToPNMFEJyeHWvTIw+lqnrts/Tb72GmCgAAAHgXATAAoMy9+voG/bRsnxlJZzaK0OcfX22/Bm9FqFkzVP/9/Bp7GJxj3lc79d7sLWYEAABQBhJCtdZ0AQSva7ulaf/uJI18vLZeeZVrOAMAAMD7CIABAGXq0KET+scLv5qRFBZWSV98drUaNqxmKhXDuhbwR+9fqZAQU8j25JjVOn78lBkBAAAUJEOtOzh6yz+NkDs7OSfMj9Byey97Dnf2jgYQcCIisvTtgn3atr2Kevepb6oAAACAd4SkpKR4db/L5ORkxcbGavyEVzRm1AhTBQD35byOxMfHKyoqylRdubzmPNLbVOFLHnlshV6evM6MsscPt9XEFy8xo4p3+52L9f4HW81Ien78RRr9+PlmBKAgr0/bqP+8HW9G3pW061j2a/txM7LerFFDNWuWzfaI017rpIv/Us+MAKDkEqZEq8XIUMdg0AFlTT3m6BdlYT2F9Ipw9DvYtHmJza3rBwe6VavXasiw0VoZN89UUJz4LQdUIzJc0VGsIC2JrKwsLY1LVOeOzUzFd3wxt5ruvreufvwuWeefl2GqFW/XnlQdT8tQTPO6poLirFiTpLatohRRzfw3AkVKsR1XYpJN7do2NBUUp++Aoerfr6f63NLDVAAAfi+0iWw2mxmUzpRps/JlKawABgCUma3bDuvV1/8wI8fWy6Mfa2dGvmH8sxcpNDR3GfAL//xN+/enmRGAguzec0yrVh8sk+Yc/lo2Jxwu8H7eaIcP+84fWAH4l5jhNg02fc2sp5CwaE0udClwhIaENckNf7MNfoLwF0Cum3sd15aNu/W3u+pl//uJQB8AAACeIwAGAJSZiS+vU0ZG7kYTjz1ynurWDTejgm2KT9XT49ao4xXz1OTsj9Wy7efqO2CRPvx4q06cyDT38p7mzSI1dEhrM5IOHz6p16ZtMCMAAICCHNP09TZ1NCMpVA+3aaIQK+jN1+pphrmXpePEPZre3QwAwDjjjEz9tmqPNidU0UP/d4apAgAAAKVDAAwAKBPWtXRnf7jFjKTq1atoxINtzCg/my1D9973k9qc/7nG/eNXxf28XzuTjip+s02ffr5dt92+2H7b/AVJ5jO854nH26lSpdxVwO+8m6DMTK9eIQEAAASaGJuWpR/IXQlcAoPn7tCy4ew+AKBwUyb9qW7d0lSrXmP9sqJsLoMBAACAwEcADAAoE/MXJtlD3RzXdTtTkZEFXwdpx86j6tR5nma+FV9k8GptKX3DTd/qxZfWmop3REVVVaeODcxI2p54RMvj9ptRSSzSkLCmCrG30VpgqkUrzeeUtdxj6jRlu6mV3oJhOd9fKeZbOPr054YMW2SKgK9wfv7mbb7yfM7hwfPa+Xno1IYsNLeXhDfmKCXn16ASN15v4LZjmp6+Q1npezSpgykVwAp+s7Lvx8pfACVxw/XHtXPrbj34UB0990JNUwUAAABKjgAYAFAmvvl2l+k59LzxLNNzZW25fEOvb7V+Q4qp5KpSpeD/TI16cqXe/M9mM/KOG3u4Ht+337sef1BY+I3LFpWeur7XQNOTln/6vQq9NGIBFsydbXrS4F5dTQ+oYAlvqpM9KLyriOfKbPUwYaI33kjhsVI9r7drcufs76FX7vPQ2Yxe2bd1frOY57Q35gD8SYYeWuIIeQtqBL8A3FWzZqZ+/mmvjqdVUtduDXTypLkBAAAAKAECYABAmfhh0R7Tk0JCrHexFxwAW2Huuj/+NCOpatXKen78Rdqw9hYdT/2bDu4dqO+/7u6yQtdy//Bl2rb9iBl5Lm9A/f0PuccfFKxVeoUENaXW/drcbTHj5mleiZOeRfpipulqoG7mj+bwAQlTeiukzTgtN+OSWD6yS8WGwKV6XlvBbRc9HGeGhYkbpxaFBrjemAOoaBEaMizC9MvPgmH1fGwXAQAV7R/Ppujpp1JVrWYTffdDVVMFAAAAikYADADwuiNHMpSwJdWMpAsvqKv69fP/sWLL1sN6Y8ZGM5LCwytpxfKeGv34+WrVspZ9BXCdOuG6qmu0li7qoTv/FmPuKZ04kamxz6w2I8+1blVb0dHVzEj67feDygrwywDbA62cbU+9Hf7addXNg0xXq/Xx/BIGYc4rFgddq+tNF76jXt1wtYip6fctIqKK+Y6KZj1XWox0fb3pOHGxstIT87X5p3/mK4bHz+uF012C27zf5+aJ7c0t2eLG6aWCtnL2xhxeNnhu7tcvsk1lxwE4mVlPIZ1rldObFEI1uXMT9Tj9BigAyHVllzRlHNuhzz6P0PCHzzBVAAAAoHAEwAAAr4vfnBv+WqwwtyAffLjV5Zq/T466QOe2LfgPGpUqhWjyvy51CZI//yJRR496Zy80a5Wy83FaW1Pv2n3UjFBapdkGmu2ffd/DI9oqfv2tft86XFrffEdFSHhTdziHvx3GanN6opYNb2YKrq6f6ggSKzoILp3tmvx87vPPCm7zfp8xw+e4BLgzns+7gtcbcwA+JK6WWoRFa3JZ/pAm1FKn7K9R7Kp5AEFv2muH1CLmpFq0bqQtW0v2RjYAAAAEJwJgAIDXJe5wDU7PPruG6bn69vvdpudwU6+Ct4nOUbt2mLpc0dCMpGPHTmrZ8n1m5Lmzm7se53YvbjEdtNzeBprtn+FbFrzstO2zFf4uuUe5exEUzh4Ez819A4RfSPheH58OoAZqTCEhd8zw4YU/r70xB+ATMtS6g+kqVA+3aVIGq4Edq35D2tRyep3JUAvTBYCCPHj/YS2Yt0/X9Wig16YW/O8sAAAAgAAYAOB1NtsJ03OoXSvc9Fw1bxapq6+KPt1axtY2txTukovr68IL6pxuBw+5fq2CpKdn6rvvd59uK1YeMLe4sgJmZ9Yq4EBmrcJz3vrUZVtWr3FzG2i2f4YvSXhT40+/IaG9Jr1VsvD3tO4vFLpSuKx49LxOSMgNoYp8/rk+rze4BMBemEOLNCRnG2vnawRb1zTOqZs2pBy2j0awytBDS3a4rua3rwZukv2z5+l1eiOyf8atefKs+h10QFlLbO69zgAISjHnnFTCxt3aFF9FN95cgh1NAAAAEHQIgAEAXpc3OK1evbLpuZr15hX6bmH30826BnBxrGt2rvn10Om2YWOKuaVwf6xPUbfrvz7dRj+10tziKjIy1PQcjhzNMD14wp1toNn+Gb4kYf48pzBzuB4K8FQmIT73muwdWzU3vYK1aJUbLK+Nz31jhzfmyG+7JnduWuA1jWf0yq4PW2RGgPddP3WHstbb1NGMHSLUwx7gOlqJ3oiwsN7p+1sB8uk3O9llaNL67K8z9ZgZA0DJvDr5Tw0dfERRZ56peV9VM1UAAACAABhAEGrU9PR+fh4Lhrks7s5Xtapr4GutwM3h6bFZq36d/frrIdMr3K+/HTQ9hwvauc5hsY7rxInc47SUJJAuyO0++lhW2M9FCbaBdszlne2fffWc+epcFs5ZwTZvzL32r/MbEgL1fDl/v+fFNityvpjYVqYnLd+4zfTyz5GjoLkKm8PVPN0R1qXoa6POvKvUK4ED9bF05s25LEF5zmJsWpa+Q5snFvzGsBm9csPgQluvCHNvVx0n7lFW+p4SvcHEV8+XxW8eSw/46lwjH3/e9DznzeOy8Fi6p7Rz3dDjuJJ37dL0mZEaMszx7xxvHpeF8++ezlf1Nz3P+er3aAmGx9JX5xo89AnT85w3j8vCY+meYJjLwjlzTzDMZeGclT0CYABBZ3diUX9Fdk8wzGVxd76aNV1X0h4+nPsHU0+PrcOl9RUdnfvu9i+/2qHlcfvNKD/rOsHjn/vVjBxu7Z1/VZp1XIcPp5uRQ41I1y2hS+o9r53/Req5Z4/ybnnqVnNaGVdxPxfFbwNtn8tL2z978/sMhrksnLOCbNemdaar9mrtFM54dlxO2xtntz2leY4XsuLVm+fL4hOPZdxqswq7vSatz93aOit9sSY5/TtqxvNOW0UXwL5SuIBz6Xr+e2tyUZMUwyfOVwEC8ueiAOUxV8xwK6zdoay5nq/UHTw3e57suZYNL/luI756viz+9liWhq/ONfFF74UA3jwuC4+lezyd68s5+3VR+3RFNzlTcz/PfUOWN3D+3bPkh49Mz3O++j1aguGx9NW5Zkzz3pt/vHlcFh5L9wTDXBbOmXuCYS4L56zsEQADALwuqoHr9mNJu7y3pWGlSiF65KHzzEjKypL6D1xkv7ZvXjt2HtUt/X7Qtu1HTEW64vIoe4hckKQk1+Ns0KCq6cFTLttAF7LSj+2f4Vu2aUPF/p4Oo+PExcpKn5NnhWQzPfTW2NxteeMStNl0gTLX/YAjCLZavu2hC2O2eTafN72Uu1wAQFEGDzqiNb/s1dAH6mjCSzVNFQAAAMGIABgA4HUtY2uZnkP8ZpvpeceD97dWu/PPMCNpZ9JR+7V9L71sngYP/UmPPLZC193wjVqf97m+/maXuZdja+pXJ3dUSIgp5OF8nJUrh6hFDH808RrnbaBnfqMFppvLO9s/o3z8uHivnnvhN79v2xNz3xxStFZqGeDX//VZHcbqneG5W0m7iLla/U6vAt6oTR6s3gVKzWwPfToQLrSVbJtnAPBUw4antGL5XlWulKV2F0Vr67Yq5hYAAAAEk5CUlJQs0/eK5ORkxcbGavyEVzRm1AhTBQD35byOxMfHKyoqylRdubzmPNLbVFHRrFW5daLeV0qKY0vlGjWq6MCevyoszHvvO7JC346Xz9Ou3SVbXWytHP7gvS7q1yf/9s+WQ4dOqH6jD5SZ6fjPYquWtbRh7S32fvGsLV3vMtsXD9T89BdKsH1xaT6nbCVM6a0WIx3bxVkr7pYVFrqU0oJhTdXDhLyD5ya6rn5aOFohvcwK4EGzlDWVFcC+7Mmxq/X8hN/MyH99/3V3XdU12ozy8r3naGm487wu8jmaVyHPWW/M4XLuO4zV5iX3qLDcLPfrWVtEu64SdutYAFS4VavXasiw0VoZN89UUJz4LQdUIzJc0VE1TAVFycr+R8rSuER17ujd33F92e9rQ9W7T30NHXJEI/8v1VRLbteeVB1Py1BM87qmguKsWJOktq2iFFHN9bJIKFiK7bgSk2xq17ahqaA4fQcMVf9+PdXnlh6mAgDwe6FNZLN5toBqyrRZ+bIUVgADALzOWmHb+fLcf8AdPnxSS5buNSPvOKtxdf28rKcuubjg7ZydnXFGmL767zWFhr+Whd/sOh3+Wrp05h+g3ua8DfSMua7XMGX7Z/ie5mrN6lIAAODHzj8vQ1s27Vbyvkq6rEuU9u2rbG4BAABAoCMABgCUiWuubmR6Dl9+tdP0vOfMRhFatuQGzZx+uc4/r46p5qpfv6oeHtFWm9f3UffrGptqweblOb6rr3I9fnhBodtAs/0zfFEztTzXdLVaGwiAAZwWoSFhTTRkoRkCgI97aUKKvZ3XvqHefb+6qQIAACCQEQADAMrETb2auFxr98t5O+xbQ3ubda3ee/7eQr+tukmbN9yqLz67Wh9/0FVx/7tRuxP76+WXLlHduuHm3gU7eTJTC75OMiOpWrXKuq7bmWZUkaxtUJsqxJM2zHWlbcXqqpsHma5m64ucP5wv/MZss5tt0LV+uc0uAlOLVu1NL/+q9dLz3ee18/e7Nn676RUsIX6j6UkdW+XuruCNOQB/McP6XSfMavUKuLY9APiWTh1PKDlplxK2VNHV1zXQoUP8SRAAACCQ8dseAKBMNDmrussq2m3bj+jrb3JD1rIQc05N3dSzifre2kyXXlJfVaqU7D9zH3y07fT1ii233NxUNWu6c82mUmwVm7BVa01XHWLUwnQDXUHbQLP9M3xVTI8b1dH0NXOKJgf4KuCY2FamJy3fuM30CrZ5o+O6wpbzYnOvpeiNOQD/E6Ee9iA4u3WuJTYMAODLnh1r05OjUtWiTSNN/3ekqQIAACDQEAADAMrMg/e3Nj2H0U+tcrnOri9ISzulp8auMiOHYfe5HnfxXLeK/Xh+0aveLAnz52m56evcsxVjugEv3zbQ27VpnRmz/TN8TczV6nf6zR2r9fDdb7oX7CwcrU5Tin898BmFbtOel/O27e3V2vkFzBtzAD7vmKan79DmiRlm7CSullqYMLjTFHfeTAYA5eeqrmk6uDdJa34N0zXdG+jPP/nzIAAAQKDhNzwAQJnpeUMTXXF5lBlJv/52SB99UvSKsPI2bfpG7dh51Iwcq387dWxgRiXnvO3p8pEPF71SMOFN3TEyd+Vb4VufdtX09ERledKm+tqK2jzbQE/5Xh/HmSHbP8PnNNNDT+SuWlfcOLXoXLIQeMGwpgrplbu6PZcvP6+ddzOYrfGFhNcJU6bkbtve4Ubd6BLeemMOwD/EDN+T/ZzcYW/zT/+3LdfykdFmi+jogN9BAIB/euP1Qxr9WKrOadWIawMDAAAEGAJgAECZsa4BPPHFi83I4amxq3XkSAErZirA/v1pem7Cb2Yk+5bRE57/ixm5J2b48NxVb9ZKwTZNC1z5lzClt0LajMtd/auBGjM8uLY+ddkGemTuuWD7Z/8x/P42Wrvm5jJpd93huiH6tNc7Fng/bzRrq/hidX9BmyfmvsHDHgKHFfz8ttiD3+zbe5xe3epPXAPv5SO75Ps+rdewFk5vYBn8xD15djDwxhyA/7l+qiMILjgMDs3+vcBsEc31ggH4mKuvStOh5CRtig9Vl6ujtHtPZXMLAAAA/BkBMACgTF1ycX3175u7wnXrtsO68+6lFb4VdHp6pvoMWKSDB0+YinTf4JZqEVPTjNzVVdPnOq0UzGYFH1YQ5NycQw/L4LkvVNiqV3sYXcix5T12r25j67xF7Gls/+xPoqKq6ty2Z5RJq1cv3HwVh2ZNIgu8nzda9epVzFcpWszwOfkCnYKe31ar6ODX4+d19yGadHoFb/7PcXkN6zBWjxb0vPXGHIAfyw2D97g8FxxyrhdMEAzAt/zj2RSNfyZFF3doqIkvl/bfRAAAAPAVBMAAgDL3wnN/Uc2audfB+/yLRD37j1/NqGKM+L+ftWTpXjNyBFpjn7zAjEqp+wvKyhMCF2Xw3ERND8rgw3kbaIPtn+Hjrp+a6Nbz22I9x5f53Qr/ZnpoyeICQqs8OozV5iWFrdz1xhxAIMjIfi4UvkU0APiazlec0K7EXUreV0ntL2mohC2ub8wDAACA/yAABgCUuebNIvXhe11VqVKIqUjj/vGr3v9gqxmVrymvrdcbMzaakRQeXklffHqN6tevaioesEJg6xqdRQRFVihk3Sc4w18H522gLWz/DL+Q8/xeP1YdTSkfK9Q01+r13+e4FeAW/jpmfw0rNrj1xhyAf0uYknMN4CZ+ui08gGD10oQUvTnjkAbd20Svvd7QVAEAAOBPCIABAOXi+u5n6qUJrtfXvf3OxfrH878pq5x2gz55MlOPPLbCvvrX2ZszrlCHS0twLVB35ARFBTRfCYWsbW0LOr6CmtdXMeY5P8EchsMPxdyjZU4/vy6tgkNNrz6vC3kdc+v5Wqo5ump6zn2LOZ/2ldn2+87RQ3numHsbrzEoRwvrnQ59W4zM3f0k1zHNt28PfYCdLwD4tAsvSNePP2xWWFiWmpx9phb96IU3ywIAAKDcEAADAMrNwyPO1d/vbGFGDmOeWa2Bf1usY8dOmkrZ+PPPdN1w03d6efI6U3EY/fj5+uttZ5sRAACAm5xC35BeEaboavDcnOsCE/wC8C+D703WT0v2avzzNfX3QXVNFQAAAL6OABgAUG5CQqRpr3XKF7h++PFWXdLpSy1YuMvrq4EzM7P08afbdNGl/9U33+4yVYcRD7bRP55tb0YAAAAllFBLnYoJfTtO3GNC3x2sQgfg185qfEo/fLNPXTqnqVJ4E330ScGvewAAAPAdBMAAgHJlXW/33Vld9MI/LrIHwjn+WJ+iHr2+UdduCxT3835T9cy33+22B8v9B/6obduPmKoUGhqimdMv1+R/XepyXWIAAIDiRWhIm1pabkYuOti02YS+y4ZnmCIABIa77jiqU2k79L+fqurq6xpox84q5hYAAAD4GgJgAEGnUdMOpue5YJjL4u1js4LfUY+dry8+u1qRka7Xx1u8ZK86XjFPl3X5ShP++bs9GC5sVXDe47Lut3rNQT07/le1v+S/urbH11q1+qC51aFevar6/uvrdc/fXbei9tXz76tzWThn7vHVuSy+fGzeEgyPpbfPPefMPcEwl4VzVpAMTVpvtnheYnO5bnUwnC9LMHyfvjrXyMefNz3PefO4LDyW7vHVuSzO81n/lnt18iE9OSpVV1zZIPvfXrXMLSUTDOes81X9Tc9zvvo9WoLhsfTVuQYPfcL0POfN47LwWLonGOaycM7cEwxzWThnZS8kJSXFq5ttJicnKzY2VuMnvKIxo0aYKgC4L+d1JD4+XlFRUabqyuU155Hepgp/snGTTQ+P/EULv04ylfyaN4tU5ysaqmVsLVWPDNWRIxkKD6ukEycyVatmqP5MSdemeJt+XLxXSbuOms/Kr++tzTTxn5eoyVnVTQWAr3l01ApNfDn3Wt0Lvuym7tc1NiMA8AURGhJWT5rL1s7etGr1Wg0ZNlor4+aZCooTv+WAakSGKzqqhqmgKFlZWVoal6jOHZuZCoqza0+qjqdlKKZ54df+fWZ8Lc16u7pmvXlIV3ZJM9XgtWJNktq2ilJENdc3OqNgKbbjSkyyqV3bhqaC4vQdMFT9+/VUn1t6mAoAwO+FNpHNZjOD0pkybVa+LIUVwACACtWqZS17wPPN/OvU7vwzTNWVtX3z2+8m6IkxqzTi4Tg9mf1x5OMr9OTYVXrgoTiNeWa13pu9pdDw97JODbR86Y36+IOuhL8AAMBDxzSd6/oCgN0zY2xa/MM+PfuPmhr9VG2dOMEldgAAAHwBATAAwCd0u6aRVv18k2a9eYXOP6+OqXrm0kvq67OPr9LSRTeow6X1TRUAAAAA4C1Nm5zUom/3qf2F6apVr7GmvMaqdAAAgIpGAAwA8BmVK4fozr/F6LdVN2nNipvs1wn+y0X17NeZKgnr8zt1bKCxT12g9b/forj/3ahbbm5a4s8HAAAAAJRO31uPKe3wTm3ZWkXnXhCtZcvDzS0AAAAobwTAAACfdEG7OnrhHxdpxfKe+nPf7fYw9+23rlCP7q7XAu3Xp7nef6eLVsb1Usr+v+qnxTfo2bEXqnWrWuYeAAAAAIDy8srLf+qj2Qf06KjauuueukpPNzcAAACg3BAAAwB8Xq1aofbtnO+4PUZdr4w2VYcbejTWwAFn66L2dRUZGWqqAAAAAICK0rZNhn5anJz977c0XXVtlCa9wrbQAAAA5YkAGAAAAAAAAIDX3fm3o/rfj8namVRFsW0a6fsfqppbAAAAUJYIgAEAAAAAAACUmZdf+lNfzd2nF/5ZU7f2q6d9+yqbWwAAAFAWCIABAAAAAAAAlKkWMSf13cJ9+uvAYzqvfUONf76WuQUAAADeRgAMAAAAAAAAoFzccvMxJSftUqUQ6YwGjfXu+9XNLQAAAPAWAmAAAAAAAAAA5erJ0TZti9+tb7+rqos7NtTyuHBzCwAAADxFAAwAAAAAAACg3NWunal3/nNQ0147pEceq637h9dRcjLXBwYAAPAUATAAAAAAAP5q4WiFhDXN14YsNLd7KuFNdSpg/qKa1742gKDxl4vStWxJsq66Mk3t/tJQo5+qbW4BAABAaRAAAwACVtdu/dX+kh5utf+8/bH5bAAAAF+2XZM7N1VIr9lm7GpGr+zbOr+pBDMGAH9w6y3HtHfnLtWqmamqNc7StOmR5hYAAAC4gwAYABCw1q7bpDW//uFW27t3v/lsAAAAX2WFv130cJwZFiZunFoQAgPwQ6MeS5XtQFL2v+nCFNumkb77oaq5BQAAACVBAAwACFhrV3+jpO0/u9UevP8u89kAAAA+auF0l/C348TFykpPPN02T2xvbskWN04veWtL5g5jtdnp6xTWpnc39wcAD4SHZ2nqq4f01dx9+uKLCHXt1kArV4WZWwEAAFAUAmAAQMCKjm6gMxs1dKtFRlY3nw0AAOCLtmvy87nbPlvh77LhzczIIWb4HJcQeMbzrAIG4L9axJzUa1MO6emnUjX0gTrqd1s9Je6oYm4FAABAQQiAAQAAAADwFwnf6+PTq38Hakye8DdHzPDhGmz6ipuneSTAAPzclV3StGL5XvXtc0xdrmqgB0acoePHQ8ytAAAAcEYADCDoNGrawfQ8FwxzWXz52LwlGB5Lb597zpl7fHUuiy8fm7cEw2Pp7XPPOXNPMMxl4Zy5p0zmSkjQckdPGnStrjfd/Lrq5kGmq9Xa4BQAe/O4LEF1/r3Am3ONfPx50/OcN4/LwmPpHl+dy+Jrx9b31mPanrBb782eoGuua6Cxz9Yyt5SeN7/Hzlf1Nz3P8XPhvmCYa/DQJ0zPc948LguPpXuCYS4L58w9wTCXhXNW9giAAQSd3YlOF0zzUDDMZfHlY/OWYHgsvX3uOWfu8dW5LL58bN4SDI+lt88958w9wTCXhXPmnrKYKyF+o/2jpWOr5qZXsBatcreBXhu/3fS8e1yWYDr/3uDNuSa+6L0QwJvHZeGxdI+vzmXx1WNL2T9EPy1JVmgVKTSiif41qaa5xX3ePK4lP3xkep7j58J9wTDXjGnee/OPN4/LwmPpnmCYy8I5c08wzGXhnJU9AmAAAAAAAPzE5o2rTU86L7bg7Z9zxMS2Mj1p+cZtpgcAgWXMkzYdT92hPXsrqX6jxpr5VqS5BQAAIHgRAAMAAAAAgOLFjVOLsKYKydM6TcldXQwAFaFKFWtFfIo2/L5bP/8SptbnReuDjyLMrQAAAMGHABgAAAAAAJTa8pFdFBLWW5OdrjMMABWhXr1M/fuNQ5r/5X59OS9C514QrS/mVjO3AgAABI+QlJSULNP3iuTkZMXGxmr8hFc0ZtQIUwUA9+W8jsTHxysqKspUXbm85jzS21QRyCa+vE6PjlphRtLbb12hO26PMSMA/s56flvP8xwLvuym7tc1NiMAwIJhTdVjpqM/eG6ipnd39Au0cLRCes129AfNUtbUro6+OxLeVKc247TcDIvWXpPWz9FDeX41u+/+J/Tb7+vNqGCHDx/V1m07FRNzjqkU7t57/67LL+tkRsErLe2kKlUOUVhoZVNBcVIPn1DNGuFmhOKkZ5xS5qksVa1axVT8z5Yt1TR16llK3heu4cN36JKLbeaWsnHkaLoiqoWqUqUQU0FRTp7MtP+cWecMJfPY40/q9oE3687bbzIVAIDfC20im82z31GmTJuVL0shAAbgswiAURACYCCwEQADQNEqKgA+r5Cv5Xw8dh3GavOSe+T829n6DZuVmnrEjAq2Ifs+E16apqmvTTCVwjVv1kT16tUxo+C1c1eKqlULU706bHNbEllZWfrtj7264NxoU0Fx9h88qhMnTqpxo1qm4r/W/FpV/55ZS1u2huqJUYfUpfMxc4t3bYjfp+ZN66hquP+G5uXp8JETSt5/RDHN65oKinPH34frtv691L/vDaYCAPB7BMAAgg0BMApCAAwENgJgAChauQfAJeH8dQpZBVycVavXasiw0VoZN89UUJz4LQdUIzJc0VE1TAVFsQLgpXGJ6tyxmamgOLv2pOp4WkZAhXM/LQvX0+NqKT09ROOetunKLmnmFu9YsSZJbVtFsaK1hFJsx5WYZFO7tg1NBcXpO2Co+vfrqT639DAVAIDfK6MAmGsAAwAAAACA0us+RJM6mL5WawPXAgbgoy7rdELfLdyn58al6Nl/1FTXbg0U9zPbggMAgMBDAAwAAAAAgJ9o0aq96Ulr47ebXsES4jeantSxVXPTKwvN1PJc0wUAP3DF5Se06Nt9evqpVM18K1JXXhOl73+oam4FAADwfwTAAAAAAAD4iZjYVqYnLd+4zfQKtnnjatOTzotl21sAyMvaAnrm9IN6dmyKXvhnTXXqHKUFC6uZWwEAAPwXATAAAAAAAP6i+7UabLqa+Y0WmG5+i/SFuVawdV3e1m5ek9c95fm1AMD7unR2bA39r3+m6NWpkbq4Y0MtWMiKYAAA4L8IgAEAAAAA8BvN1fr09XZna/yUgreBTpgyRTNMXx1u1I1lGMqW59cCgLLUscMJzZ+7X9NeO6T/fhmhcy+I1gcfRZhbAQAA/AcBMAAAAAAAfqOZHnpioOlLy0d2Uac8IXDClN5qMTJ3++fBT9yjAjPZhaMVEtb0dBuy0NRzJLypTtZtnd9Ugim52q7JnZuW7GsBgB/5y0XpeuP1Q/po9gF9OS9CZ8c2sl8rGAAAwF8QAAMAAAAA4E+6D9Gk06uAHSGwc5DrHMiqw1g92t30SytunFo4zZ/buujhOHMfy6BZmu7p1wIAH9K2TYZmv3tA33+zTz//Eqaoxmdq8pQa5lYAAADfRQAMAPALPyzao569v9Nbb282FYdJr/xhr69afdBUAPijz79ItD+X52R/dPbMuF/t9S1bD5sKAMC+CnjJYpcQuEAdxmrzknJakTtolrKmdjUDAAgszZud1L/fOKS1q/cqcUcVVa1xlp4ZX0vHj4eYewAAAPgWAmAAgF/YmXRU877aqQ0bUkzF4dffDtnr+/cfNxUA/mjLlsP253LeoPfnFfvtdZst3VQAAA5WCJyorLm520E7Gzw3+zZPw9+Ye7QsPXue9WPV0ZTysUJm6z6EvwCCQIMGpzRp4p+yHUiSFf3WbdhYI/7vDO1Nruy4AwAAgI8gAAYAAAAAwF91f0FZVgCbp5VoK+Y8n1vo5+QEwQW18lphDAA+JDw8S0+PsemYbafOOfukbru9rm6/s67i46ubewAAAFQsAmAAAAAAAAAAKIXhDxzWom/36fruaRo3PkY33tRIX39T1dwKAABQMQiAAQSdRk2Lu1hayQXDXBZfPjZvCYbH0tvnnnPmHl+dy+LLx+YtwfBYevvcc87cEwxzWThn7gmGuSycM/d4c66Rjz9vep7z5nFZeCzd46tzWThnJfPX247qvXd/U9KuRzRpSk2d3z5an3wWYW4tHV89X5ZAfixz+Opcg4c+YXqe8+ZxWXgs3RMMc1k4Z+4JhrksnLOyF5KSkpJl+l6RnJys2NhYjZ/wisaMGmGqAOC+nNeR+Ph4RUVFmaorl9ecR3qbKgLR2+8m6K57lppRfgu+7Kbu1zU2IwD+5qV/rdNjo1eYUX6rfu6l9hfWNSMAQKBZtXqthgwbrZVx80wFxYnfckA1IsMVHVXDVFCUrKwsLY1LVOeOzUwFxdm1J1XH0zIU05zfwUpqxZoktW0VpYhqoVq7LlSzP6yuf78ZqYeHp+rhEYcVEeHVP8P6vRTbcSUm2dSubUNTQXH6Dhiq/v16qs8tPUwFAOD3QpvIZrOZQelMmTYrX5bCCmAAAAAAAAAA8KLzzs3QC/9I0aZ1u3U8rZLqN2qs++6vo03xoeYeAAAAZYcAGADgF0JDKykyMlThYZVNxaFqeGV7vXJl/pMG+LPQ0BD7c9l6rjurVtXxHK9UKcRUAAAAAP9Rt26m/vFsio6m7NSFF6Trplvq6e5763KdYAAAUKb4azkAwC8MHHC2Dh+6Xf8Y195UHKZP62Svd7umkakA8EcPDW9rfy6PeLCNqTh8/slV9voF7eqYCgAAAOCfhtx7RBvX7cn+9+1R+3WCW58XrTdmRJpbAQAAvIcAGAAAAAAAAADKyTVXp2nhvH2a8+kB/fZ7mMIjz9Lop2oraZfrjlcAAAClRQAMAAAAAAAAAOWsVcsMTXvtkA4fSlKdMzLV8fKGuvnW+vrue7aHBgAAniEABgAAAAAAAIAKEhaWpUcfSdXObbv097uO6MWJju2hX59Ww9wDAADAPQTAAAAAAAAAAOADbup5XN8ucGwPvWFjFV3csaHuH15Hf6wPNfcAAAAoHgEwAAAAAAAAAPgQa3vo1175UyuW71XbNunqP7CeulwdpQ8/jjD3AAAAKBwBMAAAAAAAAAD4qGH3HdG6X/do/DMp+u/cCNWJaqyXJ9fQjp1VzD0AAABcEQADAAAAAAAAgI/rfMUJffDeAW3ZuFvh4dIVVzZQ9xsb6PMvWBUMAABcEQADAAAAAAAAgJ8444xM3T/0sBK37NbDw1P1/uwI1W/UWE+Ora2drAoGAADZCIABAAAAAAAAwA9dd22aPvv4gDb8vlvVIzJ15911dG2PBvrkM1YFAwAQzAiAAQAAAAAAAMCP1auXqSdGpeqHb/fp0f9L1SefRqh2/cZ6bHRtJWxhVTAAAMGGABgAAAAAAAAAAkS3a9L08QcHlJiwW/XrZerWfvXU+aoozXqnurkHAAAIdATAAAAAAAAAABBgatXK1KOPpOq3VXv13LgULV5SVZXCm2jQkDpatjzc3AsAAAQiAmAAAAAAAAAACGBXXH5C/5l5UKfSdqhjh3Q9Oqq2brq1vl58qab27q1s7gUAAAIFATAAAAAAAAAABIGQEOmevx/RT4uT9dKEP/VnSiVdeElDdb+xgT74KMLcCwAA+DsCYABBp1HTDqbnuWCYy+LLx+YtwfBYevvcc87c46tzWXz52LwlGB5Lb597zpl7gmEuC+fMPcEwl4Vz5h5vzjXy8edNz3PePC4Lj6V7fHUuC+fMPZ2v6m96nivr7zG2xUlNeC5Fe3bs0sPDU/XlvAiFR56lsc/U0v9+KnqL6GB4LH11rsFDnzA9z3nzuCw8lu4JhrksnDP3BMNcFs5Z2QtJSUnJMn2vSE5OVmxsrMZPeEVjRo0wVQBwX87rSHx8vKKiokzVlctrziO9TRWBbOLL6/ToqBVmJL391hW64/YYMwLg76znt/U8z7Hgy27qfl1jMwIABKpVq9dqyLDRWhk3z1RQnPgtB1QjMlzRUTVMBUXJysrS0rhEde7YzFRQnF17UnU8LUMxzeuaCoqzYk2S2raKUkS1UFPxP+npIfr082qaNr2GkpIq62+3H9Xf/npULWJOmnt4T4rtuBKTbGrXtqGpoDh9BwxV/3491eeWHqYCAPB7oU1ks9nMoHSmTJuVL0thBTAAAAAAAAAAQGFhWRo44JiWLkrWou/2KbSKdEOvBupweUO9+Z/qSknhz8kAAPgD/osNAAAAAAAAAHDRrOlJjXnSpvj1u/XKy4e0ZWuomsc20g031dfsD6ubewEAAF9EAAwAAAAAAAAAKNSll6Tr+fEp+nNfku6/74i+ml9VIWFNNGhIHS1YWM3cCwAA+AoCYAAAAAAAAABAifS4/rjef+egstJ36Oqr0vTq1EjVrt9YQx+oo6X/Czf3AgAAFYkAGAAAAAAAAADgttv6H9P8ufuVmLBb7c5P15Nja6txszP1/Is1tWp1mLkXAAAobwTAAAAAAAAAAIBSq1UrU/cNPqIlPyTr52V7VadOpoYMq6NzWjbSE2Nq67ffCYMBAChPBMAAAAAAAAAAAK84s9Ep3XfvEa2M26tvF+5TjchM3Xl3HbU6N1qTp9TQH+tDzT0BAEBZIQAGAAAAAAAAAHjd2c1PavTjqfp15V799/MDqlRJ6j+wntq2i9aLL9XV1q3VzD0BAIA3EQADAAAAAAAAAMpUy9gMDX/gsNb9ukeffHhAWVkhGvlojM69IFr/nFhT6/5gZTAAAN5CAAwAAAAAAAAAKDdtWmdo1GMH9Plna/XR7APKzJJuu72eWrZtpNFP1dbKVVwzGAAATxAAAwAAAAAAAAAqRNs2GRr1aKrWrtmjL7/Yp1o1MzX0gTq68OKGenjkGVqyNNzcEwAAlBQBMAAAAAAAAACgwsW2OKlRj6VqxfK9mjtnv5o2Oakxz9RWvejGuve+Opq/gGsGAwBQEgTAAAAAAAAAAACfclbjU3po+GEt/j5Zm9bt1qWXpOv1NyLV5eooDfhrPX3wUYSOHw8x9wYAAM4IgAEAAAAAAAAAPqtu3UwNuvuIvvrvfn27IFm9bz6mL+dFqG7Dxrq2RwNNfSNSe/ZUNvcGAAAEwAAAAAAAAAAAvxAWJvXve0yz3z2gY7adevT/UvXH+jANHlZH7S9pqKfH1dKq1dl3AgAgiBEAAwAAAAAAAAD8Urdr0vT6lEP6cs5+vTnjkCpXkoYMq6NGTc+0f1z4dVVzTwAAggcBMAAAAAAAAADA7114QbrGPmXTyri9WpXdLmqfrvc/qK6QsCa64ab6mjY9UjuT2CoaABD4CIABAAAAAAAAAAElOvqUBg86ondnHVRW+g7df98RrV0Xpss6N9SV10TpiTG19dOycHNvAAACCwEwgKDTqGkH0/NcMMxl8eVj85ZgeCy9fe45Z+7x1bksvnxs3hIMj6W3zz3nzD3BMJeFc+aeYJjLwjlzjzfnGvn486bnOW8el4XH0j2+OpeFc+aezlf1Nz3P+er3aPHHx7LH9cc19dVD2rF1l1575ZBqRGbq8Sdqq1a9xhr4t3r2lcIpKbl/LvfV73Hw0CdMz3PePC6Lr54z5nKPN+eycM7cEwxzWThnZS8kJSUly/S9Ijk5WbGxsRo/4RWNGTXCVAHAfTmvI/Hx8YqKijJVVy6vOY/0NlUEsokvr9Ojo1aYkfT2W1fojttjzAiAv7Oe39bzPMeCL7up+3WNzQgAEKhWrV6rIcNGa2XcPFNBceK3HFCNyHBFR9UwFRQlKytLS+MS1bljM1NBcXbtSdXxtAzFNK9rKijOijVJatsqShHVQk0FRUmxHVdikk3t2jY0lYqRmlpJXy2oqq/mV9P+/ZVlyx53v+64rs9ul16Sbu7lG/oOGKr+/Xqqzy09TAUA4PdCm8hms5lB6UyZNitflsIKYAAAAAAAAABAUKpZM1O39T+m994+qK/n79MrLx9SSHZ9xP/V0RkNGuu22+vp408jlJzMtYMBAP6DABgAAAAAAAAAgGzWqt+nx9gU97+92ha/Wzf1OqbVq8PU7i8NdUF2s7aN/mFRVXNvAAB8EwEwAAAAAAAAAAB51K6dqQH9jmnC8ynau3OX3n7rkOrWydRzE2oqNKKJfXXwK6/W0IaNbPsNAPAtBMAAAAAAAAAAABSj3fnpemxkqr7/ep+Op+7QnX87qm3bq+jWfvXUuNmZuvveuvr0swgdOMCf3QEAFYv/EgEAAAAAAAAA4IYqVaTu1x3X5H/9qfW/79HPy/bqisvT9N0PVdX6/Eb27aIfHVVbX39TVadOmU8CAKCcEAADAAAAAAAAAOCBMxud0t/vPKo3Xj+k/buT7NtFRzXI1KQpNRUe2USDhtTVP56vpeVx4eYzAAAoOwTAAAAAAAAAAAB4kbVd9Mj/S9XCeft08vgO3XXHEZ1Ilx55rLYiap2lnr3ra/KUGlq/nusHAwC8jwAYAAAAAAAAAIAydPllJzT+GZuWLUnWwb1JGjLoiBJ3VNEz42upXnRj9butnqZNj9TGTQTCAADPEQADAAAAAAAAAFBOqlXL0o03HNekiX/q4w8OaNO63erb55jWrgtT7z711KjpmRo0pI5mzIzUpngCYQCA+wiAAQAAAAAAAACoIHXrZqrvrcc09dVD2rB2j1bF7dV13dK0anWYbrqlnqKbnKkBf62nrdt66PhxAmEAQPEIgAEAAAAAAAAA8BHR0afsK4KnTz2kjev2aM0ve9X75mNKSWmu+M0Nzb0AACgcATAAAAAAAAAAAD6qYcNT6t/3mNpf+Lranb/TVAEAKBwBMADAL+zde1w/LNqjhC2ppuKwfkOKvX7w4AlTAeCPduw8an8u79hxxFQcfvv9kL1++PBJUwEAAAAAAABQFAJgAIBf+PrbXbr6uoWa/u9NpuLw4ktr7fUVK/ebCgB/9NHH2+zP5Y8/3W4qDqOeXGWvb06wmQoAAAAAAACAohAAAwAAAAAAAAAAAECAIAAGAAAAAAAAAAAAgABBAAwAAAAAAAAAAAAAAYIAGEDQadS0g+l5LhjmsvjysXlLMDyW3j73nDP3+OpcFl8+Nm8JhsfS2+eec+aeYJjLwjlzTzDMZeGcucebc418/HnT85w3j8vCY+keX53LwjlzT+er+pue53z1e7QEw2Ppq3MNHvqE6XnOm8dl4bF0TzDMZeGcuScY5rJwzspeSEpKSpbpe0VycrJiY2M1fsIrGjNqhKkCgPtyXkfi4+MVFRVlqq5cXnMe6W2qCERvv5ugu+5Zakb5Lfiym7pf19iMAPibl/61To+NXmFG+a36uZfaX1jXjAAAgWbV6rUaMmy0VsbNMxUUJ37LAdWIDFd0VA1TQVGysrK0NC5RnTs2MxUUZ9eeVB1Py1BMc34HK6kVa5LUtlWUIqqFmgqKkmI7rsQkm9q1bWgqKE7fAUPVv19P9bmlh6kAAPxeaBPZbDYzKJ0p02bly1JYAQwAAAAAAAAAAAAAAYIAGADgFzp1bKAZ0y5Tn1tc37H/9ztb2OvnnnuGqQDwR9dd28j+XL6225mm4jDigTb2epOzqpsKAAAAAAAAgKIQAAMA/EKLmJq6955YXXpJfVNxuLJLQ3u98ZmEQ4A/O/+8Ovbn8vnnub6Zo/t1Z9rr9epVNRUAAAAAAAAARSEABgAAAAAAAAAAAIAAQQAMAAAAAAAAAAAAAAGCABgAAAAAAAAAAAAAAgQBMAAAAAAAqFCpqYdly24oud9+X6ftiTvNCMXJysrSd999Z0YoiS1bt2vdHxvMCCWxdOlPOnz4iBmhOPsPHFRc3C9mhJI4cPCQDhw4ZEYAABSOABgAAAAAAFSoXbuTtTu7oeQ++WSOli0jOCmpzMxMPffcc2aEkvjxx//piy++MiOUxKuvva49e3gtK6n4+K3698z/mBFKIiFhuxK2bDcjAAAKRwAMAAAAAAAAAAAAAAGCABgAAAAAAAAAAAAAAgQBMAAAAAAAAAAAAAAECAJgAAAAAAAAAAAAAAgQBMAAAAAAAAAAAAAAECAIgAEAZeLgwRPauMnm9bZvf5r5Cg579hwr8H6eNpstw3wFAAXZty+twOeOp+3QoRPmKzjsTDpa4P08bUeO8BwHAAAAAABAYApJSUnJMn2vSE5OVmxsrMZPeEVjRo0wVQBwX87rSHx8vKKiokzVlctrziO9TRW+4IUXf9cTY1aZkf+ZOf1y3fP3FmYEIK+HHvlZr7y63oz8z9w516jnDWeZEQCgor03e46GDButoykbTQXF6TdwhC695EI98tBdpoKinDx5UuGRLXQqbZupoDjjnpuqrdt2atbMF0wFxWke21lzPpmhC9q1MhUU5asFS/T0uElauXyOqaA4ZzW/VP379dTEF58yFQCA3wttIpvNZgalM2XarHxZCiuAAQAAAAAAAAAAACBAsAIYgM9iBbB/YwUwENhYAQwA8KZ/TnxDo596Ue0vPNdUUJwtW3cosnpE9r+V6pkKipKVlaVVq9fqLxedbyoozu49+3TiRLqaN2tsKijO2nUbdc7ZzRQRUdVUUBSb7bB27U5Wm9YxpoLi/L52g27qda0+nj3VVAAAfq+MVgATAAPwWWUVADdq2kG7E+PMyDPBMJelNPMFcwDMz4X7mMs93pzLUpr5gjkA5ufCfczlHl+dy8I5c08wzGXxxnzf//CTBg8bpdTUY1rw5X9M1TPX9/x7QM817rkp+mnZKn391dum4hlvfo8WXztnmZmZ6nhFb9WpU8fnHkuLL871/gf/1e7de/XDj3GcsxK6tf99OnbsRMCfL4s35lu5aq1mzHxfO5OSA/6ceWuuEf/3jP5Yn6CU/b+bimd88XeCHMzlHl+dy8I5c08wzGXhnDkhAAYQbMoqAEb5YAUwENhYAQwA8CZrZaZ1DeCVcfNMBcW5977H7dcAHnT3AFNBUU6dOmW/BvDJ41tNBcV55dW3tG37Tk3+19OmguK0Pu8qzfn032rV8hxTQVEWL4mzXwP4x+8+MhUUp++AofZrAPe5pYepAAD8HgEwgGBDAOzfvv5ml+bO22lG/uevt52tTh0bmBGAvD79fLsW/bjXjPzPfYNb6rxzzzAjAEBFIwB2HwGwewiA3UcA7D4CYPcQALuPABgAAhABMIBgQwAMAAAABAcCYPcRALuHANh9BMDuIwB2DwGw+wiAASAAlVEAXMn+/wAAAAAAAAAAAAAAv0cADAAAAAAAAAAAAAABggAYAAAAAAAAAAAAAAIEATAAAAAAAAAAAAAABIiQlJSULNP3iuTkZMXGxmr8hFfsFxwGgNLKeR1xvnB5Xi6vOY/0NlX4g0dHrVBi4hEzKn/nn1dHTz3RzowAeNvgoT8pJSXdjMrfFZc31IP3tzYjAICvW7V6rYYMG62VcfNMBcW5977HdeklF2rQ3QNMBUU5deqUwiNb6OTxraaC4rzy6lvatn2nJv/raVNBcVqfd5XmfPpvtWp5jqmgKIuXxOnpcZP04/+3d/+xdZ3nfcAfdaVaaA3krl4FuYXk6geTWAnWaHUhG4O9dFUny54QFXa2ekMhJIKEaJtMJU5na3D+sDfFc7xKZlF51uRNGwp3jVM4E2xLiBZ4MQZLgDdlrScnpWjHzoCowoyV3FBuldZo9yXfS95LXv445OXl5TmfT3CQ95x7+d5zHr48Su4X73v+w+/lI8zmgb/zufjbn/5bcf+v7sxHAFj2etbF8PBw3pmf/mdPTclSBMBA1xIAl9vP/8LX4w/+8E/yXudt/+Vb4huv/s28B7Tb2nX/Lv74j/9P3uu8v/trG+J3/s3deQ+AbvdHA+/Gk08dj3998ul8hNl8+Z/9dmzZ0hu77tuejzCTH/7wh3HXLz0Q/+k//n4+wmy++rWX4wc/uBp9Bz+bjzCbX/t7/zCePPJIrF/3M/kIM/n2f70U//L5343jv/VP8hFm84+/9JX45V/6a/HJv35HPgLAsrdIAbAloAEAAIAl9eHeDcLfgh79R3+/Ifx9LfavXB8r0nbX8zGYjzLhR37kR+YR/la7rp++/755hL/Vrtnv/s5vzSP8rW7NPvHzW+YR/lZ7jP3Tx79YIPz1bwNAlQmAAQAAgKVx9tGxL6YnbfvP5terYvD5uLNFHWbaKlejURNhxp397+Vjc1TZsVawZlUci9Ne86NxJr9lTqo0xhZSsyqNsWnGRNoKX5N/LwEoSAAMAAAAdNh7ceyu9bFi1wt5v9mJXbXXzFZisrPfiBO5OXcVH2vzqlkV5HGRQrTbHo/z+WizF2Jnen3W8VGVMdbOmpVZQ52mGRPJ6LhYuTuOzVqoit/DAJg3ATAAAADQQenL7Lvj0IW8O50Lj8dmX2pTl2a/zRCmtFbxsTavmjFFGh8HXss7k7mftTRjzZhwMQ7dNtOsaeMLgPkTAAOwJL71zXvjgysPLtn2+7/3N/KZAIvh7T/41ZZ/e53a/sVv35nPBICuc/a5pi+z73j6W3Hj2vvj2+Wnt+ZXai48Hl+p2vKW274UlxvqMd323I78/hIb7N89Notulpl006rgWFtwzRpVZixujaNvT76uU7Evvzrq5J7WS+1W9n62gJo1Kv0Ya1Wn9+PVvfnlUS/EE9Mtz+7fSwAWQAAMwJJYvbonfuqnfmzJtg996EfzmQCL4Sd/cmXLv71ObT/xEz35TADoLu/FsSMToVT6MvuNg7fmvTGbDr7U9KX2iSNmNTEfxhqzqYdzL0Xfpnxo3CfjuWvfiqPb8m7NidOTZ7RWcYwttGZV8WC8OhrStqpTxD3Hm8Pb81/7Zotx4R4GwMIIgAEAAIDOGPxmfHV8NtOD8dikL7PrNh08ODGT7MLL8bJvtCnKWGNGt0bf663DuQm19xx+MLdbqNwYa0PNKiHV6ctxT96bzqad98Udud2SexgACyQABgAAADpjcDDO52bs/ZUZviD/ZHxqfInMi/EdX2i3wWuxv740cNqWwfMi0+y2aZc7nU3Hxlp31XVBNeuY5TcWW+ro/awkNeuYZVCvxvHzsQ0xJVev6D0MgPYRAAMAAAAdMTjw3dyKuOMjP5dbrW3+yERw9dbANM9HZI7ei2N37YkTeS/2noobr392auBQIp0Za9Wr68KVp2adu58ZZ8Ush3rVznF8eeetcfTzn8ztCe5hACyUABionFvWNzyQZoGq0FfS6XP7sz/7YfzhW/9z1u0v37Kz5fH69ud/fiP3OLsq/C7b2VeiZsV0a19Jp8/tT//0/7X8m528zfQ3/tZ/+5Pc29xU4XfZzr4SNSumCn0lalZMFfpKivR3+bsXcyvi471Tl7Ns7GtT70dyK+L8d7+XW3NXhfrPra/0Bf/dcai+lGj6gv/41LChneeVLHXNphtrrfqa31h7L1b/xOx1naulrtdM2tff8qvZTCHc4o+x1NcvzOnvdy46NS6KBJd17Tu3ZTDGBp+PO1dOnOMdTx9tuaz2TP9eTj6v+d7D2jW2Gi1KzdpAX8W0s69EzYqpQl+Jmi0+ATBQOT94v/6/bheuCn0lnT637733v+Ov/NV/P+v2wQcPtDxe34aHr+UeZ1eF32U7+0rUrJhu7Svp9Ln95//yQcu/2cnbTH/jW3/xdO5tbqrwu2xnX4maFVOFvhI1K6YKfSVqVsysfV14PDY3LseZtzv7p87qmst5nTkwty/423mNybKt/xyluv6v+v/daENw0pX1ymPxypUrs47FuVh+NXstvvJwPYSb/hmsk7XzvJ6/93+0LaBr53klbalZJcZYClobrvG2x8eXdt53+v14Y47jqlE7zmuu/zYU1c5xpq9iurWvRM2KqUJfiZotPgEwAAAAQJc7//DdsWLl7jhW4OGMZw6sj50n804bv+CvuqrXtSpjcbC/f3xp3Due3j/DM1gXR5VrVv4x9mC8eu39eG5H3u0w/zYAVIMAGAAAAGBZuBiHbptbKDLYv9sX/ItAXetKPhbPPhqb5zH7t13ULCnzGHshdubZzvvP5kMd4h4GUB0CYAAAAIAukJYDvXFt6vbq3vyGURfj0Geej5kykcv9uyeCGF/wt02V6lrpsZie0brrhbyzNY6+/eWOzv6tSs2qM8Zujb7Xm6/x8tNb82sRJ3Z1LgT2bwNAtQiAAQAAAJbSps/GG9emXw70nuPvx43TD+a9mgsvx8vTJSIXHo+d9S/4a+74yM/lFgtSlbpWfiy+FvubntH6UvRtyjudUIWaud/FpoMvNV3jiSMzh9xt4d8GgMoRAAPQdf7ST/5Y9B3csuDtx3/8L+QegW7ysz/7F1v+zRbZDv6D23JvAFARO/bH0W25HRfjO3NMC84/fKjQczSZm0rXtbRj8bXYv3LP+DNs0wzVpXpGa11la1aF+13jNc4Uci8S/zYAlJ8AGICu89M//eNx9OlfXPC2atWP5h6BbrJxw4da/s0W2f75U7fn3gBYTjZ/ZGLZy7cG3sut1gYHvptbZiqNuTU+/LHcnEUKYSaWGE3P0Xw0zuS9qliMsaaudWUci8WDzMW6n5W5ZnPnfuceBsBCCYABAACAjtjU+5Hcijj/3e/lVmuXvzuxVOXHe2/NLWa17UvxxR1jS4xOPEvzhdh5VweWGO0ibR9r6lrcsqnZ/ILMRbmflbxmbVfiv0v3MAAWSgAMAAAAdMaOX4l9uRknvzHDzKPX4usnczO2xkc7+QzOrlW8JvccPzVR7wuPx+YDr+WdCljEsVbpuo4qUc0Gn487x4PMrXH07QJB5iLfz0pZszmrwt/l9+I7F3KzFfcwABZIAAwAAAB0yM/FR8ef6/hCPNHfelnLwf7+8Zllse2+uG+OgUmZza8mn4zn3v5S3JH34uSeuHOampfPYo61Kte1RDU7+2isuO3xOD+6k4LMl6Kv0L1mse9nZazZ3CznMTbYv3tOn3vmwMQM6tbX6B4GwMIIgAEAAIAOuTX6Dj+Y2xHnH757ypfO6cvzzQ9PLGe57/BnYxHyhe4xOptufayYdhnO9+LYXevnX5NNn403TjfW/FAcq8R6n4s81spY1yqNxRRk7noh7zwYr16bT5DZgftZ2WpWkTGWxsKKdJ0tZ9am5bPXx87xWbvTXaN7GAALIwAGAAAAOmfH/jg6Pqup4YvyvDV+mV1/ZmElpGU4G+owsd0dhxqXCd17qvhyqzu+3PDMx4tx6LZHZ1hOtHukcKOxFo1jY/K4aTl7bbHHWhfWdcE1Syo3Fl+InS2vt8U2OdDrxP2sbDVLqjLGTu5pcY0NM3+Tma6xgvcwANpHAAwAAAB00K3R9/q3mr7Ubmnbl+Ly6wVny5Xd3lNx4/gn804x9xxvrPkLsXPaGXhlsvhjrZp1rTEWs87czyo5zqowxma9RvcwAOZPAAwAAAB0WPpS+/240bD8ZKN9p2uvVSX8TctwXqtdb+PzGCdLX+6n98wzDBlTq/m/aviMNAOvEl/0L/ZYK1FdjcV56sT9rCQ1q8AY23TwpbiRzv/aDMFtoWtc7PFVtr9HAOpWDA0N3cjttrh69Wr09vbGE08+E4898lA+ClBc/T4yMDAQa9asyUebNd1zvrA7HwUAAAAAAOhyPetieHg478xP/7OnpmQpZgADAAAAAAAAlIQAGAAAAAAAAKAkBMAAAAAAAAAAJSEABirnlvXbcmvhqtBXombFVKGvRM2K6da+EjUrpgp9JWpWTBX6StSsmCr0lahZMVXoK1GzYrq1r0TNiqlCX4maFVOFvhI1K6YKfSVqVkwV+krUbPGtGBoaupHbbXH16tXo7e2NJ558ZvSBwwDzVb+PND64fLKme84XduejAAAAAAAAXa5nXQwPD+ed+el/9tSULMUMYAAAAAAAAICSEAADAAAAAAAAlIQAGAAAAAAAAKAkBMAAAAAAAAAAJSEABgAAAAAAACgJATAAAAAAAABASQiAAQAAAAAAAEpCAAwAAAAAsxjsXxsrVq6btK2NY4P5DQAA0CUEwAAAAAAwrVWxf+W62PxwT94HAIDuJgAGAAAAgGmcOXBznMhtAABYDgTAAAAAANDK4Op44mRu1+w7/f24ca1xuxJ9m/KLAADQJQTAAAAAANDKYE+cz83Y+0E8tyO3AQCgiwmAAQAAAKCFwYGJ5/7u2zWSWwAA0N0EwAAAAAAAAAAlIQAGAAAAgAaD/Wtjxcp1sfnhiRnAJ3atGz02sd0cZ0ZfWRX768fuWh2Do8dqzt488d7G45M1vq9hu7N/4rOnUz/Ppi1/1pkD9WP188wGV8edk97bWk8cu6vex9o4Nv0b53ENc6hZ3vafza/NZppzqP/8RD3m0OecawQA0J0EwAAAAADQNjk43bUq70+jHjJO877zD6dwd1J4W5d/tjGgHndhdWyuvbbzZN5fTAu5hibT12w0eD8wQy1nOYd6cP/1n5lYwvvE6Rn6qxl8ddX4s5/3HR6OTbkNALBcCIABAAAAoC1Wxa+vXBuHLuTd6aTQ8rbV4yHj9FbFzskzUOf8s4tsIdfQZA41O3lz61m7BWrx1of+LPbldpxcPcOM5p54+Wv1YH0kPrUjNwEAlhEBMFA5t6zfllsLV4W+EjUrpgp9JWpWTLf2lahZMVXoK1GzYqrQV6JmxVShr0TNiqlCX8lyv85NB6/EjWvfj8tPX89HIvad/v7osfq2du2muCe/Nu5CTw4jR+LVhvfeeL1xFmlPHPtMQ2i594NaX7c09X3j2gcTYeWF1fHr40spT/rZuB5H3278uXRet8Sre/PLi2bqNTSew9g29Rpa1n+8ZpOv5UocbXj7iSPNIfIt64/G/knh7+TfUdM5xP+NL47/Pnviq69OzJ5uOq+zqyfC6L0jU3/Hs1juY3+uqnCd+ipOzYqpQl+JmhVThb4SNVt8K4aGhm7kdltcvXo1ent744knn4nHHnkoHwUorn4fGRgYiDVr1uSjzZruOV/YnY8CAADAwqVn7NaXWU7h4nMtZ4Om59neHCfy3h1PX4k3Dk4Ex1OkZ9Xm5Yqn7zNp6HfbcFxOIXLDz46FzB9ME1CmJZXrs2onva9x1my939EXJmvsI4WzV6Kv/saFXMPk4zXT1qxphm/zdTT+bmauRU3tfO8cGI43dq6a9drTs4LHls+edM0AAIuhZ10MDw/nnfnpf/bUlCzFDGAAAAAAaIdtw/FvZwp/a87Unz9be+8XZ1xeeCQ+VZ/Je6EnLtf+a/xna/adniHwXGQLuYYpZqrZppH49PjkmZ74o/EpwI3LNM+hFjs+GAuYG/u7sCpenrIM9Kr4ev3ZydtG4j7hLwCwTAmAAQAAAKAjGgLGC6tj88p1sWKGbWwmapLCz4afTcHqjMHrYlrINeTmnF2PD38sN5v0xHfGnxlcpBbX477762Fz8zLQo86umpiVfP/INDOjAQC6nwAYAAAAADphsCfeys3C3m/42W3XY3NudtxCrqFdGs+hYC02HRwefy7w+a+tanqu8MQM65F4bJaZ3AAA3UwADAAAAABUROOy1I3LQDfMbN47smTLawMAtIMAGAAAAAA6bdtwXL72/bgxp+1K9K3PP9dNil5Dl6ypfM+ukdzqiUO/mWf9Niz/vG/8dQCA5UkADAAAAACdsOl6fDw3C2v82Qs9cTk3O24h19AuC63FjpHxZaDj5Ko4Ez1x7EgOgrcNxxeX7PnKAADtIQAGAAAAgI64Hh/dlpsXVsdXzub2nDT8bFquuNDPNlhwgLuQa2iXhdaiYRno9PP9q+KrF8b27rh/JLpkojIAwLwJgAEAAACgI67Hffdfz+2IE7tujjO5Pb1Vsf+u1TFY+9kPfywfqjlxJB2bTk98JweaM2p6Bu4kgxOhaLOFXEO7FDyHwdWxv78n74y55/PDcUdun3h4dZwfbV2PT++c6BcAYLkSAAMAAABAh2w6ODyx/HCsip0r18Wdk8LJMatif+21FStvHn82bWNomWbfbp4SqvbEsbuaf2aqxtmvPXHoM9P0cVs9FJ1qIdfQLq3OYf+UmcD582vX8lY+Mm7TSHx6fBZxtm0k7jP9FwAoAQEwAAAAAHTMSDz3dkOQW3P+4bWxYjQobdxahKabhuOx8fC2JoXATT+zNg7NYebvPbtGcqtmXn0s4BrapnYOpxuuo+bEriKf3zyLONl3eNjyzwBAKQiAAQAAAKCTNg3HG5MC1Bl97Pp4MHnP8StxdPLM1cm2jcS+md6z44N4tTFInuJ6HH17ls9ZwDW0Te06bkwKgafz8d6pSztv2jnScP4j8akduQkAsMwJgAEAAACg01KAeu37cWOGEHXf6drr6T3HG0PO69H3eu1Yy+BzJF5N7399OD6aj0znnuPTfPbeD2qfeSX65pLWzvsa2iiFwLX+Lz/d+tm99c9/brZwd+9I3JObAADLnQAYAAAAAFrYdPDKWHg5Y4A4Es/l96TgtfAs13qI2mKbMbTMwWfz9kGxELPVZ48HtTloHj0+SyBc+BrmXrPRoHr0vTOfQ+PvqnGbqYZnfrP+nOPrcfTzixRQAwAsAQEwAAAAAFAxq+LrJ3Nz20jcVzi5BwDoXgJgAAAAAKBSBvtXx4ncvuP+kfY/nxgAYAkJgAEAAACACumJl7/Wk9sj8djB1s8PBgBYrgTAAAAAAEB1nF0dhy7k9t6RYs9NBgBYBgTAQOXcsn5bbi1cFfpK1KyYKvSVqFkx3dpXombFVKGvRM2KqUJfiZoVU4W+EjUrpgp9JWpWTLf2lZTxOs+cXpVbEft2jZTyGidrZ1+JmhVThb4SNSumCn0lalZMFfpK1GzxrRgaGrqR221x9erV6O3tjSeefCYee+ShfBSguPp9ZGBgINasWZOPNmu653xhdz4KAAAAAADQ5XrWxfDwcN6Zn/5nT03JUswABgAAAAAAACgJATAAAAAAAABASQiAAQAAAAAAAEpCAAwAAAAAAABQEgJgAAAAAAAAgJIQAAMAAAAAAACUhAAYAAAAAAAAoCQEwAAAAAAAAAAlIQAGAAAAAAAAKAkBMAAAAAAAAEBJCIABAAAAAAAASkIADAAAAAAAAFASAmAAAAAAAACAkhAAAwAAAAAAAJSEABgAAAAAAACgJATAAAAAAAAAACUhAAYAAAAAAAAoCQEwAAAAAAAAQEkIgIHKuWX9ttxauCr0lahZMVXoK1GzYrq1r0TNiqlCX4maFVOFvhI1K6YKfSVqVkwV+krUrJhu7StRs2Kq0FeiZsVUoa9EzYqpQl+JmhVThb4SNVt8K4aGhm7kdltcvXo1ent744knn4nHHnkoHwUorn4fGRgYiDVr1uSjzZruOV/YnY8CAAAAAAB0uZ51MTw8nHfmp//ZU1OyFDOAAQAAAAAAAEpCAAwAAAAAAABQEgJgAAAAAAAAgJIQAAMAAAAAAACUhAAYAAAAAAAAoCQEwAAAAAAAAAAlIQAGAAAAAAAAKAkBMAAAAAAAAEBJCIABAAAAAAAASkIADAAAAAAAAFASAmAAAAAAAACAkhAAAwAAAAAAAJSEABgAAAAAAACgJATAAAAAAAAAACUhAAYAAAAAAAAoCQEwAAAAAAAAQEkIgAEAAAAAAABKQgAMVM4t67fl1sJVoa9EzYqpQl+JmhXTrX0lalZMFfpK1KyYKvSVqFkxVegrUbNiqtBXombFdGtfiZoVU4W+EjUrpgp9JWpWTBX6StSsmCr0lajZ4lsxNDR0I7fb4urVq9Hb2xtPPPlMPPbIQ/koQHH1+8jAwECsWbMmH23WdM/5wu58FAAAAAAAoMv1rIvh4eG8Mz/9z56akqWYAQwAAAAAAADQBb797W/nVrPpjrciAAYAAAAAAADoEpPD3iLhbyIABgAAAAAAAOgi9dC3aPibCIABAAAAAAAAusAnPvGJ3GoOfxuPz0YADAAAAAAAANAlJoe9RcLfRAAMAAAAAAAA0EXqoW/R8DcRAAMAAAAAAAB0mfmEv4kAGAAAAAAAAKAkBMAAAAAAAAAAJSEABgAAAAAAACgJATAAAAAAAABASawYGhq6kdttcfXq1ejt7Y0nnnwmHnvkoXwUoLj6fWRgYCDWrFmTjzZzzwEAAAAAAKqqVZayqAHwwc/tyUfn75133sktYOPGjblVDf3PnioUALvnAAAAAAAAi6mdWc3q1atza/5aBcCWgAYAAAAAAAAoCQEwAAAAAAAAQEkIgAEAAAAAAABKYkkD4L6+vvENqIal/Ltfys8GAAAAAADKrxuyiCULgBsv+tixY7kFlF3j33snb37uOQAAAAAAwGJbqhyk0ZIEwIIYqLZO3/zccwAAAAAAgE5Z6hC44wGwIAZIOnXzc88BAAAAAAA6bSlD4I4HwEudeAPdoVPBrHsOAAAAAADQaUs5QW1JloAWyEC1dfqm554DAAAAAAB0ylKGv8mSBMCJQAaqaalueu45AAAAAADAYlvq8DdZMTQ0dCO32+Lq1avR29sbTzz5TBz83J58dP7eeeed3AI2btyYW9XQ/+ypeOyRh2JgYCDWrFmTjzZzzwEAAAAAADqlnVnN6tWrc2v+Uj4yOUtZshnAAAAAAAAAALSXABgAAAAAAACgJATAAAAAAAAAACXR9c8ABqprKZ4BDAAAAAAA0AmL9QzgRQ2AARaqSAAMAAAAAABQNR0LgAHaZS4BMAAAAAAAQFU1ZimeAQwAAAAAAABQEosyAxig3WaaAQwAAAAAAFB1i7YENAAAAAAAAABLwxLQAAAAAAAAACUhAAYAAAAAAAAoiUoGwFeuXMktAAAAAAAAoMrKlh2aAQwAAAAAAABQEgJgAAAAAAAAgJIQAAMAAAAAAACURPcHwO8ej+3bj8e7eRcAAAAAAABgUaWM8qab4qa8bT9eTyvPRV/D8Ztu2h6jLzW9Px8rYq6f13euxfG+2t6E7g+ANxyIc+cOxIa8CwAAAAAAALCo3hmILS8OxdBQ2l6MLYf3N4S6e+LF0eNpOxcHNrwbx/e/FLsv5mMvbonD+wtOcJ3u8869ErUPy8cvxpFLT40eP9f3wPjxi0cuxQPjwXBDAJxm2R7vm0iPx9/TlDY3p8ejGmfojr63/p7ahW4fa797fPt4v00p+Phn1t7XtD+2jZ5Dvf/pXk9GP3fi+E35fJo+Nx8DAAAAAAAAmNH2Y3Fse27Hxui9PTfnYmNvtHz7aKY5zezg6T6v6fg7MfDmlti84Vy8cmpP3JuPb9ixO26/dHk8C52YAfzm4Ri4N6fHL+6JU0+lwPRc9G09PJ42T06PR23YHFveHKh9XO2cz74UW/ZEvDL6ltoJRG/t9NIk3nM5lU59b4nD/bmP8c88FqPn1/IcGszhHIcuHhkraK2A+w9vGU/fX9wydo4AAAAAAAAAc/bu2XgpdseO8SWLT8UDeRLq2FLNG+LAud+Iga15YurW2rufW8AKx1M+L028TX2/EvfWc9VGDXltMhEA334kDtbfXU+l370clxqOj6bHp16ZNAt4e9y751Jcrl3bOwNb4t6DvXEpJcDpZ7dsHruwxhm6D5yKqCfQjZ+ZtDqHRnM4x3HpQkeLPzYLefuxFsUAAAAAAAAAmFaajNoY6G6PY3kCauNSzRNLMl+MI7e/OTEhtlF69O3oktF5v6XJn5ekgDn1fW+8MofnC7flGcAbeyMG3jkXr1zqjY0bdsTuS6/EubROdZp3nMLfdJL1Na/rM3TbpfY5b+Zms3rxUyFS+Nxi+WoAAAAAAACAls5F301PRe/F6ULbvFTzfz8eT12qT1hNYe3Es3qLme3z0sTcN2Ng8rLHoxNmx1ZmTmYOgEenCx+OekCdlnh+c8+9U2bSppnB8dRTcWn3jtolbYi0+8orEb31T7l9YoryaB9jzfbYfm/sefOlODu5gO8ej77RqqYgOCXtY7OUAQAAAAAAAGY0usJxizD2XF+MPzE3LdWcnsl7d3OmOn58cog72uc0M3in+bx3j/c1vD89+/f26N2YguBT+bG86eNeijfrKzPXzDIDeHscu3gkLj0wtnzz1vRM3YmnDE/YsDlSqrs7p7xp99Sl3rHQd8OB+I0th2NrXgJ6/8CW9s4ATueYnis8vqb24bGAOZ3E4a1jx27aGi/tfm6W6dQAAAAAAAAAOVSt/Wc8g6xto8/73dg7np2mXHLLi+kxtM2Z6ugzgC8WezztdJ83FnnWj6VlpscC4u3HXoyYJsNdMTQ0dCO3y+FcX9z0yr0x1Cqozq5cuRJr167NewAAAAAAAEBVlS07bMszgJfaub6JJHw0+J4h/AUAAAAAAAAoq/LNAAYAAAAAAACoqFLMAAYAAAAAAAAg4v8DZEmkibfHSgkAAAAASUVORK5CYII=;" vertex="1" parent="1">
          <mxGeometry x="79" y="170" width="941.54" height="510" as="geometry" />
        </mxCell>
        <mxCell id="ItOmqRgpExPdJanpy6mj-8" style="edgeStyle=orthogonalEdgeStyle;rounded=0;orthogonalLoop=1;jettySize=auto;html=1;exitX=0;exitY=0.5;exitDx=0;exitDy=0;entryX=1;entryY=0.5;entryDx=0;entryDy=0;strokeWidth=3;strokeColor=#FF0000;" edge="1" parent="1" source="ItOmqRgpExPdJanpy6mj-2" target="ItOmqRgpExPdJanpy6mj-4">
          <mxGeometry relative="1" as="geometry" />
        </mxCell>
        <mxCell id="ItOmqRgpExPdJanpy6mj-2" value="" style="rounded=0;whiteSpace=wrap;html=1;strokeWidth=3;fillColor=none;strokeColor=#FF0000;" vertex="1" parent="1">
          <mxGeometry x="600" y="240" width="30" height="20" as="geometry" />
        </mxCell>
        <mxCell id="ItOmqRgpExPdJanpy6mj-4" value="" style="rounded=0;whiteSpace=wrap;html=1;strokeWidth=3;fillColor=none;strokeColor=#FF0000;" vertex="1" parent="1">
          <mxGeometry x="420" y="500" width="80" height="50" as="geometry" />
        </mxCell>
        <mxCell id="ItOmqRgpExPdJanpy6mj-5" value="" style="rounded=0;whiteSpace=wrap;html=1;strokeWidth=3;fillColor=none;strokeColor=#FF0000;" vertex="1" parent="1">
          <mxGeometry x="300" y="390" width="80" height="50" as="geometry" />
        </mxCell>
        <mxCell id="ItOmqRgpExPdJanpy6mj-9" style="edgeStyle=orthogonalEdgeStyle;rounded=0;orthogonalLoop=1;jettySize=auto;html=1;exitX=0;exitY=0.5;exitDx=0;exitDy=0;entryX=1;entryY=0.5;entryDx=0;entryDy=0;strokeWidth=3;strokeColor=#FF0000;" edge="1" parent="1" source="ItOmqRgpExPdJanpy6mj-6" target="ItOmqRgpExPdJanpy6mj-5">
          <mxGeometry relative="1" as="geometry">
            <Array as="points">
              <mxPoint x="680" y="250" />
              <mxPoint x="680" y="230" />
              <mxPoint x="490" y="230" />
              <mxPoint x="490" y="415" />
            </Array>
          </mxGeometry>
        </mxCell>
        <mxCell id="ItOmqRgpExPdJanpy6mj-6" value="" style="rounded=0;whiteSpace=wrap;html=1;strokeWidth=3;fillColor=none;strokeColor=#FF0000;" vertex="1" parent="1">
          <mxGeometry x="710" y="240" width="30" height="20" as="geometry" />
        </mxCell>
        <mxCell id="ItOmqRgpExPdJanpy6mj-7" value="Button to activate Tuning Mode" style="shape=callout;whiteSpace=wrap;html=1;perimeter=calloutPerimeter;fillColor=#f8cecc;strokeColor=#b85450;base=10;size=20;position=0.5;fontStyle=1" vertex="1" parent="1">
          <mxGeometry x="530" y="140" width="210" height="50" as="geometry" />
        </mxCell>
      </root>
    </mxGraphModel>
  </diagram>
</mxfile>
